<svg xmlns="http://www.w3.org/2000/svg" width="62.575" height="62.141" viewBox="0 0 62.575 62.141"><defs><style>.a{fill:#707070;}.b{fill:#222d12;}.c{fill:#c8c8c8;}.d{fill:#7ba040;}.e{fill:#729a2f;}.f{fill:#2b4f01;}.g{fill:#7aa136;}.h{fill:#7aa031;}.i{fill:#709926;}.j{fill:#6d9820;}.k{fill:#709722;}.l{fill:#19440a;}.m{fill:#4d6625;}.n{fill:#7a9f3d;}.o{fill:#455d20;}.p{fill:#465d24;}.q{fill:#365106;}.r{fill:#3d5616;}.s{fill:#435c1c;}.t{fill:#435c1b;}.u{fill:#445d1a;}.v{fill:#456406;}.w{fill:#37510a;}.x{fill:#b2c695;}.y{fill:#3f561d;}.z{fill:#3c5416;}.aa{fill:#274902;}</style></defs><g transform="translate(3659.01 5316.654)"><path class="a" d="M-2951.262-5105.591a96.046,96.046,0,0,1,10.216,3.557,31.075,31.075,0,0,1,.094,4.173c.064-.764-.024-1.682.033-2.59.022-.348-.254-.94.508-.9a15.716,15.716,0,0,1,.063,2.383,2.089,2.089,0,0,0,1.481,2.55c-.051.762.748.356.986.72.107-.126-.08-.292.057-.414a10.889,10.889,0,0,1,3.6.984c.719.441.48,1.162.481,1.783q.02,11.383,0,22.768a19.591,19.591,0,0,0,.111,2.279c-.13.627-.656.837-1.159,1.013-3.519,1.229-7.131,2.139-10.731,3.09a4.227,4.227,0,0,0-2.441.611q-3.122,1.148-6.337,2c-.668.178-1.393.438-1.86-.4a8.111,8.111,0,0,1-.158-2.44q-.01-16.934-.014-33.868c0-.737.234-1.547-.426-2.158a7.1,7.1,0,0,0-4.509,1.059c-.863.421-.628,1.439-.631,2.232-.021,5.729-.013,11.458-.01,17.187,0,5.45-.039,10.9.076,16.349a5.433,5.433,0,0,1-3.414-.569,7.135,7.135,0,0,1-.248-2.592q-.012-20.291,0-40.583c0-1.028-.131-2.1.739-2.911a86.185,86.185,0,0,1,9.578,3.293A6.472,6.472,0,0,0-2951.262-5105.591Z" transform="translate(-671.737 -206.328)"/><path class="b" d="M-3167.2-5111.652a13.631,13.631,0,0,0-.255,3.408q.006,20.154-.018,40.31a7.181,7.181,0,0,1-.006,2.581c-1.622.5-2.965-.2-4.286-.99.021-.776-.631-.713-1.1-.836-.755-.2-1.4-.5-1.571-1.361-.124-10.466-.071-20.929-.034-31.388a2.189,2.189,0,0,1,.121-.565,1.449,1.449,0,0,1,.3-.458c.121-.123.247-.247.367-.372a20.546,20.546,0,0,0-.143-7.115.628.628,0,0,1,.081-.5,31.279,31.279,0,0,1,4.615-1.983c.312.089.6.124.662-.312A1.242,1.242,0,0,1-3167.2-5111.652Z" transform="translate(-469.283 -204.958)"/><path class="b" d="M-3621.036-3724.082q-14.61-6.517-29.218-13.041a3.668,3.668,0,0,1-.639-.471c-.64-1.629-.287-3.306-.239-4.968,2.051-.776,3.774.114,5.477,1.081-.158.722.443.666.847.819a6.937,6.937,0,0,0,2.674.438c1.675.567,3.53.552,5.064,1.566-.114.326-.375.333-.654.3a.973.973,0,0,0,.589.129c.873-.082,1.521.507,2.289.735a3.756,3.756,0,0,0,2.075,0,10.066,10.066,0,0,1,3.788.928c2.838.935,5.8,1.53,8.484,2.912a2.232,2.232,0,0,1,.877,1.853c.032,2.128.075,4.259-.023,6.385C-3619.681-3724.621-3619.722-3723.632-3621.036-3724.082Z" transform="translate(-7.494 -1530.81)"/><path class="a" d="M-2688.455-3724.431c.65.023.952-.214.941-.94-.039-2.423-.083-4.851.031-7.27.033-.708-.69-.731-.7-1.26a43.326,43.326,0,0,1,5.69-1.878q10.6-3.316,21.194-6.658a9.088,9.088,0,0,1,3.965-.742c.542,1.98.991,3.949-.67,5.668a65.515,65.515,0,0,1-7.205,3.276c-1.11.163-2.289.165-3.008,1.26a43.289,43.289,0,0,1-6.442,3.1c-3.943,1.832-7.915,3.6-11.877,5.392C-2687.162-3724.2-2687.794-3723.7-2688.455-3724.431Z" transform="translate(-940.075 -1530.461)"/><path class="c" d="M-3596.864-4710.374c-7.547,2.348-15.076,4.753-22.65,7.013-2.7.8-5.273,2.127-8.172,2.2-4.042-1.205-8.005-2.667-12.11-3.664a7.8,7.8,0,0,1-4.215-1.318l-5.178-1.332c-1.124-.376-2.371-.445-3.3-1.317a29.148,29.148,0,0,0-5.33-1.642.4.4,0,0,1-.608.106c.674-1.09,1.839-.522,2.714-.655,4.073-.62,4.086-.533,4.086-4.6q0-12.353.011-24.708c0-.68-.333-1.689,1.008-1.538.333.5.08.949-.1,1.41a9.46,9.46,0,0,0-.109,2.275c.015,8.59-.045,17.18.03,25.764a1.248,1.248,0,0,0,.618.964,4.6,4.6,0,0,0,1.247.394c.642.179,1.268.409,1.912.581.144.032.286.072.427.112a15.68,15.68,0,0,0,2.833-.231.845.845,0,0,1,.41.136c.364.39.113,1.2.9,1.3a2.607,2.607,0,0,1,1.9.73,21.332,21.332,0,0,0,4.337,1.274,3.286,3.286,0,0,0,1.1-.1c.94-.442,1.455-.045,1.824.773,1.766-.343,3.252.7,4.893.981a3.619,3.619,0,0,1,1.348.633,64.69,64.69,0,0,0,7.877-2.268c.769-.268,1.57-.418,2.349-.647q5.317-1.291,10.528-2.959l1.22-.39c.339-.232.01-.7.34-.939,2.491.859,5.132.792,7.7,1.212.83.135,1.2.379,1.119,1.2-.138,1.387.327,2.814-.287,4.168-.609-.687-.261-1.518-.333-2.283C-3596.611-4708.618-3596.367-4709.542-3596.864-4710.374Z" transform="translate(-0.568 -563.205)"/><path class="b" d="M-3423.872-4764.19l.367-.9.6-.063c.305.321.713.134.777.156a.865.865,0,0,1-.776-.156,6.512,6.512,0,0,1,3.261-.689c.4-.04.577.224.718.535a5.078,5.078,0,0,1,.193,1.778c.008,9.21.019,18.42-.017,27.63,0,.952.335,2.192-1.176,2.486a4.449,4.449,0,0,1-1.93-.683c-.29-.6-.83-.328-1.28-.368-.458.233-.65-.029-.775-.416a3.477,3.477,0,0,0,.067-.584c-.039-9.383.076-18.765-.061-28.147A.628.628,0,0,1-3423.872-4764.19Z" transform="translate(-227.667 -539.935)"/><path class="a" d="M-3295.561-4983.413c.831-.38.688-1.126.688-1.821q0-14.123,0-28.247c0-.651.035-1.3.053-1.956.222-.332.7-.289.915-.635,2.213.1,2.213.1,2.212-2.242,0-1.472,0-2.944,0-4.416,0-.537-.1-1.144.7-1.236a3.115,3.115,0,0,0,.028.323,1.138,1.138,0,0,1,.139.567c-.01,1.825,0,3.65-.011,5.476a2.385,2.385,0,0,1-.465,1.818l0-.01c-.3.45-.147.951-.148,1.431-.016,10.171.025,20.341-.023,30.512a.345.345,0,0,1-.475.253.869.869,0,0,0-.322-.044,19.964,19.964,0,0,1-2.947.318Z" transform="translate(-352.035 -289.933)"/><path class="d" d="M-1968.98-4601.512c-.123.31.127.754-.339.939q0-12.553,0-25.1a3.685,3.685,0,0,0-.329-2.059c1.021.2.631,1.014.633,1.58Q-1968.971-4613.835-1968.98-4601.512Z" transform="translate(-1636.309 -673.719)"/><path class="e" d="M-1718.031-3740.035c.8.01.574.622.589,1.055.044,1.289.057,2.579.082,3.869a1.959,1.959,0,0,1-1.313.684C-1717.625-3736.2-1718.212-3738.162-1718.031-3740.035Z" transform="translate(-1879.401 -1533.544)"/><path class="f" d="M-3658.991-3741.689l.608-.106q0,2.615,0,5.23c-.89-.074-.559-.764-.573-1.223C-3659-3739.087-3658.985-3740.388-3658.991-3741.689Z" transform="translate(0 -1531.839)"/><path class="g" d="M-2632.859-5004.012c-.025.1-.023.273-.08.3-.968.385-3.417-.708-3.828-1.694A17.7,17.7,0,0,1-2632.859-5004.012Z" transform="translate(-990.14 -307.906)"/><path class="h" d="M-2043.893-3459.838a2.342,2.342,0,0,1,3.008-1.26Z" transform="translate(-1564.395 -1803.597)"/><path class="i" d="M-2186.4-4846.96c-.875,1.215.022,2.665-.635,4.221v-4.9C-2186.615-4847.611-2186.333-4847.449-2186.4-4846.96Z" transform="translate(-1425.746 -460.719)"/><path class="j" d="M-2131.046-4668.485l.713.582a2.942,2.942,0,0,1-1.983-.361c-.536-.2-.053-.419.226-.525C-2131.814-4668.441-2131.4-4668.569-2131.046-4668.485Z" transform="translate(-1478.515 -633.955)"/><path class="k" d="M-3285.2-4777.65c.308,1.1-.6.432-.916.635l-.459-.405C-3286.213-4778.1-3285.676-4777.705-3285.2-4777.65Z" transform="translate(-360.743 -528.356)"/><path class="l" d="M-3003.226-5097.052c.115.1.552.048.324.263-.265.249-.538.646-1.006.576a4.368,4.368,0,0,1,.021-.527Z" transform="translate(-634.522 -219.143)"/><path class="b" d="M-2862.653-4786.382a28.667,28.667,0,0,1-4.867-1.334c-.631-11.724-.1-23.458-.3-35.187a1.446,1.446,0,0,1,1.315-1.7c1.654-.308,3.19-1.124,4.912-1.142a1.84,1.84,0,0,1,.155,1.112q.006,18.456,0,36.914C-2861.438-4786.93-2861.219-4785.9-2862.653-4786.382Z" transform="translate(-766.321 -481.925)"/><path class="m" d="M-2702.608-4786.382c1.036.052,1.073-.612,1.067-1.4-.023-2.946-.009-5.892-.009-8.838q0-14.567,0-29.133c.47.37.318.9.318,1.367q0,19.14-.006,38.28A1.983,1.983,0,0,1-2702.608-4786.382Z" transform="translate(-926.367 -481.925)"/><path class="n" d="M-2405.725-3656.478a4.091,4.091,0,0,1-2.349.647A3.118,3.118,0,0,1-2405.725-3656.478Z" transform="translate(-1211.651 -1614.464)"/><path class="o" d="M-3175.915-4731.5q-.047-15.682-.11-31.363a.818.818,0,0,1,.431-.782q.011,16.4.021,32.8a.487.487,0,0,1-.047.733C-3176.35-4730.44-3176.071-4730.982-3175.915-4731.5Z" transform="translate(-467.744 -542.081)"/><path class="p" d="M-3152.413-5013.373a1.505,1.505,0,0,1,.013-.289c.189.183.541.363.544.55.044,2.442.47,4.9-.211,7.32-.659-1.273-.211-2.639-.316-3.958-.08-1.017.047-2.042-.07-3.061A.586.586,0,0,1-3152.413-5013.373Z" transform="translate(-490.597 -299.914)"/><path class="q" d="M-3160.407-5004.459c.008.123.015.245.022.367a33.944,33.944,0,0,1-.007,7.212l-.339-.006c0-2.016-.015-4.031.006-6.046C-3160.72-5003.451-3160.921-5004.037-3160.407-5004.459Z" transform="translate(-482.602 -308.828)"/><path class="r" d="M-3149.049-4985.547q0-3.606.007-7.211c.721,1.661.156,3.4.312,5.1.064.7.011,1.408.011,2.112Z" transform="translate(-493.946 -320.16)"/><path class="s" d="M-3163.074-3718.654q0-.322,0-.644c.782.217,1.562.438,2.345.646.286.076.786-.067.717.4-.053.359-.539.238-.845.3l-2.119-.4Q-3163.359-3718.4-3163.074-3718.654Z" transform="translate(-480.243 -1553.629)"/><path class="t" d="M-3232.528-3605.188a17.31,17.31,0,0,1,4.215,1.318c-.682.61-1.416.367-2.132.1-1.052-.388-2.093-.808-3.155-1.221C-3233.271-3605.3-3232.874-3605.106-3232.528-3605.188Z" transform="translate(-412.051 -1664.156)"/><path class="u" d="M-3494.132-3689.517a7.018,7.018,0,0,1,3.3,1.316c-1.3.3-2.41-.5-3.632-.651-.228-.029-.617-.132-.409-.474C-3494.781-3689.482-3494.389-3689.459-3494.132-3689.517Z" transform="translate(-158.921 -1582.475)"/><path class="v" d="M-3432.345-4712.715l.028.387a1.86,1.86,0,0,1,.152,1.111q.006,13.375,0,26.751a1.565,1.565,0,0,1-.141.95l-.081.112c-.472-.378-.274-.906-.275-1.369q-.018-13.217,0-26.434C-3432.657-4711.713-3432.9-4712.307-3432.345-4712.715Z" transform="translate(-219.194 -591.41)"/><path class="w" d="M-3397.767-3782.286a1.033,1.033,0,0,1,1.523-.308c.484.343-.149.449-.244.675C-3397.007-3781.716-3397.379-3782.028-3397.767-3782.286Z" transform="translate(-253.038 -1492.111)"/><path class="x" d="M-3284.683-3740.589a7.67,7.67,0,0,1,2.947-.319A4.019,4.019,0,0,1-3284.683-3740.589Z" transform="translate(-362.571 -1532.664)"/><path class="x" d="M-3180.066-3738.773q.042.151.1.3c-1.181-.055-.608-.98-.765-1.543l.325-.051C-3180.3-3739.636-3180.618-3739.089-3180.066-3738.773Z" transform="translate(-463.251 -1533.51)"/><path class="y" d="M-3291.161-4730.3v29.61h-.164v-29.677Z" transform="translate(-356.137 -574.313)"/><path class="z" d="M-3420.226-4671.574q-.007-14.407-.013-28.812c.457.374.317.9.32,1.369q.07,13.544.126,27.087C-3419.792-4671.648-3420-4671.59-3420.226-4671.574Z" transform="translate(-231.273 -603.351)"/><path class="aa" d="M-3390.457-4743.369l1.517.127c-.652.345-1.112.333-1.518-.127Z" transform="translate(-260.118 -561.718)"/></g></svg>