<svg xmlns="http://www.w3.org/2000/svg" width="53.435" height="53.146" viewBox="0 0 53.435 53.146"><defs><style>.a,.c,.d,.e,.f{fill:#707070;}.b{fill:#fefefe;}.c{opacity:0.6;}.d{opacity:0.7;}.e{opacity:0.8;}.f{opacity:0.9;}</style></defs><g transform="translate(-5426.019 -5772.388)"><path class="a" d="M5452.629,5825.533a26.572,26.572,0,1,1,26.823-26.5A26.636,26.636,0,0,1,5452.629,5825.533Z" transform="translate(0.001 0)"/><path class="b" d="M5553.063,5921.843a23.155,23.155,0,1,1,23.313-23.153A23.2,23.2,0,0,1,5553.063,5921.843Z" transform="translate(-100.351 -99.737)"/><path class="c" d="M5644.843,6616.617c1.254,0,2.507.017,3.76-.008a.682.682,0,0,1,.789.646,10.627,10.627,0,0,0,2.647,5.265c.311.345.314.534-.017.859-1.807,1.774-3.605,3.562-5.377,5.371-.411.42-.648.334-1-.047a19.187,19.187,0,0,1-5.025-10.533c-.214-1.546-.157-1.553,1.446-1.553Z" transform="translate(-207.424 -816.318)"/><path class="d" d="M5642.381,6200.452c-1.252,0-2.5-.018-3.758.007-.479.009-.619-.151-.569-.622a19.725,19.725,0,0,1,4.2-10.445c.347-.437.553-.55,1-.084,1.721,1.775,3.48,3.513,5.244,5.246.341.335.485.565.149,1.032a9.518,9.518,0,0,0-1.718,4.072c-.1.6-.313.847-.973.812C5644.769,6200.406,5643.574,6200.452,5642.381,6200.452Z" transform="translate(-205.018 -402.849)"/><path class="e" d="M5858.607,5987.976c0,1.25-.017,2.5.008,3.751.011.5-.128.751-.67.831a9.113,9.113,0,0,0-4.012,1.636c-.427.308-.707.364-1.122-.062-1.744-1.795-3.53-3.549-5.3-5.315-.262-.261-.511-.42-.043-.8a20.054,20.054,0,0,1,10.567-4.4c.547-.065.583.2.579.612C5858.6,5985.475,5858.607,5986.725,5858.607,5987.976Z" transform="translate(-407.264 -204.233)"/><path class="f" d="M6277.492,5983.69a19.7,19.7,0,0,1,10.554,4.4c.328.266.286.433.018.7q-2.754,2.688-5.481,5.4c-.306.306-.516.267-.829.036a9.978,9.978,0,0,0-4.342-1.775c-.412-.067-.553-.214-.551-.621q.018-3.844,0-7.687C6276.861,5983.748,6276.991,5983.574,6277.492,5983.69Z" transform="translate(-822.721 -204.284)"/><path class="a" d="M6509.627,6190.041c-.99-1.6-.949-1.563.374-2.886,1.579-1.578,3.079-3.235,4.659-4.907a19.4,19.4,0,0,1,4.742,10.049c.238,1.615.208,1.62-1.446,1.62-1.91,0-3.823-.06-5.73.023-.984.044-1.6-.139-1.613-1.234.181-.4.583-.479.932-.624,1.124-.465,2.267-.886,3.384-1.367.582-.251,1.032-.632.932-1.346-.1-.729-.8-1.106-1.661-.856-.884.257-1.708.681-2.568,1C6510.987,6189.758,6510.4,6190.266,6509.627,6190.041Z" transform="translate(-1047.13 -396.313)"/><path class="a" d="M6129.016,6467.236a3.775,3.775,0,0,1-5.189,3.363,3.711,3.711,0,0,1-.25-6.78,3.609,3.609,0,0,1,4.016.449c.188.145.357.313.536.471A2.229,2.229,0,0,1,6129.016,6467.236Z" transform="translate(-672.489 -668.179)"/><path d="M6323.114,6368.963a4.559,4.559,0,0,0-.888-2.5l6.859-2.834c1.462-.576,2.917-1.17,4.388-1.724,1.154-.435,2.2.226,2.124,1.317a1.454,1.454,0,0,1-1.067,1.286c-1.49.587-2.974,1.189-4.46,1.785Z" transform="translate(-866.588 -569.906)"/></g></svg>