<svg xmlns="http://www.w3.org/2000/svg" width="51.536" height="55.177" viewBox="0 0 51.536 55.177"><defs><style>.a{fill:#707070;}</style></defs><g transform="translate(-1955.021 -3345.414)"><path class="a" d="M1979.394,3397.511l-.6-4.21c-.365.048-.717.087-1.067.141-.6.093-.591.1-.593.706a9.911,9.911,0,0,1-.623,3.682,4.183,4.183,0,0,1-3.393,2.652,6.345,6.345,0,0,1-2.577-.046,3.982,3.982,0,0,1-2.411-1.924,6.374,6.374,0,0,0,2.1.8,5.267,5.267,0,0,0,3.4-.494,4.408,4.408,0,0,0,2.19-3.179,6.486,6.486,0,0,0-.165-3.083,12.59,12.59,0,0,0-1.808-4.079,6.013,6.013,0,0,0-5.118-2.7,2.2,2.2,0,0,1-.613-.066c.249-.037.5-.085.747-.109a6.438,6.438,0,0,1,4.957,1.317,8.423,8.423,0,0,1,2.2,2.727,17.05,17.05,0,0,1,.754,1.827c.086.238.151.355.434.292.47-.1.95-.168,1.459-.254l-1.743-13.581,3.621-.406.016-.064c-.1-.07-.2-.14-.3-.208a23.448,23.448,0,0,1-3.831-3.226,2.436,2.436,0,0,1-.288-.5l.084-.072c.081.055.163.109.242.166a22.977,22.977,0,0,0,6.316,3.33,5.364,5.364,0,0,0,4.92-.657,11.287,11.287,0,0,0,2.557-2.326.325.325,0,0,1,.2-.116,1.053,1.053,0,0,1-.006.351c-.141.371-.306.732-.475,1.128a1.892,1.892,0,0,0,1.161.328c.692-.1,1.381-.211,2.073-.307a.587.587,0,0,0,.489-.343,7.507,7.507,0,0,0,.726-5.8,8.1,8.1,0,0,0-1.023-1.981c-.49-.757-1.061-1.463-1.612-2.179a1.519,1.519,0,0,1-.265-.9,12.054,12.054,0,0,0-.321-2.684,7.729,7.729,0,0,0-1.931-3.22c-1.043-1.1-2.154-2.13-3.161-3.118.265.141.645.328,1.01.541a12.9,12.9,0,0,1,1.13.72c.349.256.666.557,1.035.869.067-.479.315-.887-.011-1.385a5.176,5.176,0,0,1-.671-2.3,11.1,11.1,0,0,0-.345-2.678,3.593,3.593,0,0,1-.15-.52,3.187,3.187,0,0,1,.987,1.773,9.038,9.038,0,0,0,3.259,5.271,3.615,3.615,0,0,0,1.078.613.7.7,0,0,0,1.021-.644,4.042,4.042,0,0,0-.211-1.452,12.425,12.425,0,0,0-4.428-5.974,2.659,2.659,0,0,0-3.061-.142,2.76,2.76,0,0,0-.747.759c-.414.514-.773,1.075-1.208,1.57a3.3,3.3,0,0,1-2.866,1.14c-.686-.048-1.379-.009-2.068-.009l-.035-.1.487-.681-.056-.072-1.71.83-.066-.032.5-.9-.035-.049-1.329.895-.065-.037.571-1.049a4.194,4.194,0,0,0-.726.34c-.469.343-.911.723-1.366,1.085a1.319,1.319,0,0,1-.3.214c-.844.341-1.69.679-2.543,1a1.026,1.026,0,0,1-.549.053,4.831,4.831,0,0,1-3.16-2.02,2.2,2.2,0,0,0-2.777-.894c-1.163.432-2.293.956-3.436,1.441-.228.1-.451.2-.676.306l.015.073h1.068c0,.016,0,.032,0,.048l-1.624.761.009.062h.89l-2.581,2.069.062.1.97-.354.045.064c-.078.141-.153.284-.234.423-.146.252-.3.5-.442.755a2.138,2.138,0,0,0-.126,1.934,9.5,9.5,0,0,0,2.613,3.6,7.1,7.1,0,0,0,2.377,1.5,2.307,2.307,0,0,0,2.045-.176c.191-.116.387-.222.58-.335a3.683,3.683,0,0,0,1.855-3.605,20.032,20.032,0,0,0-.805-4.165c-.259-1-.576-1.994-.867-2.99a.169.169,0,0,1,.014-.149c.274.609.555,1.215.82,1.828a27.146,27.146,0,0,1,1.816,5.183,11.144,11.144,0,0,1,.281,2.948,2.419,2.419,0,0,1-1.242,2.083,4.613,4.613,0,0,1-4.562.233c-.034-.017-.07-.027-.191-.073,0,.567-.009,1.093,0,1.619a11.515,11.515,0,0,0,.736,3.784,6.031,6.031,0,0,1,.111.975c.1.527.227,1.049.343,1.573l.087-.007.246-.916.477,1.675.072-.011.148-.924.084-.042c.244.347.515.677.724,1.044.24.422.425.875.633,1.314l.1-.039-.038-.79.093-.075a2.554,2.554,0,0,0,.168.253,5.581,5.581,0,0,1,1.17,2.785c.076.459.141.923.171,1.387a3.925,3.925,0,0,1-.641,2.293,11.781,11.781,0,0,1-2.392,2.7c-.974.865-1.975,1.7-2.943,2.574a6.2,6.2,0,0,0-1.974,3.3,2.944,2.944,0,0,0,1.049,3.18,10.721,10.721,0,0,1,2.023,2.1l-5.241.764-5.578-45.266,45.276-5.249c.886,9.155,1.77,18.287,2.659,27.469l1.386-.24,2.214,21.6ZM2003,3374.531c-.084.006-.132.005-.178.014q-1.9.342-3.81.686-4.926.895-9.85,1.8a.752.752,0,0,0-.34.188c-.361.324-.683.7-1.07.988a4.251,4.251,0,0,1-3.122.884,24.692,24.692,0,0,1-2.706-.656,1.306,1.306,0,0,0-.454-.046c-.684.083-1.366.183-2.048.279-.371.052-.741.11-1.141.17l2.082,17.365c.124-.014.21-.018.293-.033q1.861-.336,3.722-.673,4.755-.855,9.51-1.709,5.084-.917,10.166-1.842c.4-.073.4-.069.361-.478-.113-1.277-.226-2.555-.331-3.833-.146-1.772-.282-3.545-.427-5.317q-.257-3.152-.521-6.3C2003.1,3375.528,2003.049,3375.046,2003,3374.531Z" transform="translate(0 0)"/><path class="a" d="M2812.721,4009.29c-.092.111-.13.166-.177.213a.378.378,0,0,0-.015.608,2.28,2.28,0,0,1,.2,2.411.771.771,0,0,1-.541.375c-.888.233-1.769.5-2.641.786a.443.443,0,0,1-.49-.085,2.375,2.375,0,0,1,.457-4.049,4.407,4.407,0,0,1,2.739-.429A3.181,3.181,0,0,1,2812.721,4009.29Z" transform="translate(-832.026 -647.244)"/><path class="a" d="M3255.5,4300.323a9.584,9.584,0,0,1-1.392-.462,12.61,12.61,0,0,1-1.523-.964.916.916,0,0,1,.21-1.646,11.361,11.361,0,0,1,3.2-.719,8.966,8.966,0,0,1,1.134-.016.538.538,0,0,1,.572.6,1.727,1.727,0,0,1-.094.742,17.681,17.681,0,0,1-.966,1.818,1.1,1.1,0,0,1-1.113.562C3255.521,4300.264,3255.513,4300.293,3255.5,4300.323Z" transform="translate(-1265.096 -927.593)"/><path class="a" d="M3274.582,3949.7a1.8,1.8,0,0,1,1.726-.1,2.212,2.212,0,0,1,1.385,1.992c.035.461.006.928.006,1.328-.5,0-.994.008-1.489-.007a.555.555,0,0,1-.306-.142,3.729,3.729,0,0,1-1.189-1.956.907.907,0,0,1,.106-.606C3274.958,3949.957,3275.007,3949.793,3274.582,3949.7Z" transform="translate(-1286.959 -589.084)"/><path class="a" d="M3024.571,4660.5c-.065-.574-.136-1.112-.18-1.652a.65.65,0,0,1,.114-.373c1.209-1.857,2.428-3.708,3.633-5.567a.3.3,0,0,1,.406-.134c1.274.378,2.551.744,3.821,1.133a.411.411,0,0,0,.574-.22c1.134-1.925,2.288-3.839,3.436-5.756.059-.1.12-.2.2-.318l4.592,3.026,3.408-7.137.062.008c.028.244.062.486.084.73q.331,3.612.659,7.224c.146,1.566.3,3.132.45,4.7.042.444.041.446-.386.525q-5.939,1.088-11.878,2.177-4.349.8-8.7,1.609C3024.779,4660.485,3024.691,4660.485,3024.571,4660.5Z" transform="translate(-1042.948 -1266.013)"/></g></svg>