<svg xmlns="http://www.w3.org/2000/svg" width="52.882" height="53.426" viewBox="0 0 52.882 53.426"><defs><style>.a{fill:#707070;}.b{fill:#201f1f;}.c{fill:#0f0f10;}</style></defs><g transform="translate(-5628.265 -3858.667)"><path class="a" d="M5628.351,3879.045c-.4-1.81.663-3.067,1.794-4.153q7.653-7.336,15.431-14.54a5.4,5.4,0,0,1,4.5-1.646c8.6,1.042,17.245,1.753,25.775,3.339.266.05.528.115,1.573.345-1.1.868-1.841,1.38-2.5,1.99-3.268,3.052-6.564,6.076-9.736,9.225a4.327,4.327,0,0,1-3.837,1.328,89.556,89.556,0,0,0-16.655-.126,2.323,2.323,0,0,1-1.868.886c-3.414-.371-6.736.482-10.094.789a4.633,4.633,0,0,1-.582.165,3.015,3.015,0,0,0-1.488.666c-.336.289-.649.6-.962.917A2.233,2.233,0,0,1,5628.351,3879.045Z" transform="translate(0 0)"/><path class="a" d="M6204.37,3990.451a80.1,80.1,0,0,0,.773-16.537,4.6,4.6,0,0,1,1.627-3.907c3.923-3.579,7.746-7.266,11.839-11.131.838,5.182,1.251,10.046,1.588,14.91.284,4.088.33,8.191.513,12.287a4.857,4.857,0,0,1-1.451,3.922q-7.9,7.541-15.865,15.021a6.054,6.054,0,0,1-1.3.723c-.54.287-1.053.424-1.425-.247.5-1.4,1.5-2.621,1.5-4.2.335-1.29.185-2.677.784-3.915C6203.693,3995.123,6203.193,3992.616,6204.37,3990.451Z" transform="translate(-539.571 -94.461)"/><path class="a" d="M5629.534,4171.793l1.133-1.112c.744-.19,1.247-.906,2.068-.94a31.007,31.007,0,0,1,10.719-.09,3.5,3.5,0,0,1,2.006.656,149.231,149.231,0,0,0-.315,15.093,1.813,1.813,0,0,1-.582,1.542c-4.191,3.936-8.373,7.881-12.921,12.167C5630.673,4189.742,5629.37,4180.833,5629.534,4171.793Z" transform="translate(-1.183 -292.747)"/><path class="a" d="M5737.669,4520.208c-8.866-1.076-17.8-1.636-26.551-3.529-.231-.717.361-.919.688-1.23,3.759-3.578,7.544-7.128,11.289-10.721a2.436,2.436,0,0,1,2.109-.793,137.274,137.274,0,0,0,14.932.463,2.587,2.587,0,0,1,.606,1.793c-.02,1.629-.017,3.259.029,4.888-.173,2.6-.152,5.24-1.5,7.611A2.024,2.024,0,0,1,5737.669,4520.208Z" transform="translate(-78.052 -608.236)"/><path class="b" d="M5677.5,4141.012c-4.483-.263-8.967-.812-13.45,0-.187-.156-.47-.207-.541-.489a1.79,1.79,0,0,1,1.42-.779c.28.075-.1.028.168.117.32.1.65.024.967.1-.265-.121-.631.026-.815-.306a40.871,40.871,0,0,1,10.557-1.211c.727-.012,1.4-.515,2.121-.188Q5677.716,4139.637,5677.5,4141.012Z" transform="translate(-33.225 -263.453)"/><path class="c" d="M6217.862,4511.22l-.006-1.718,2.713-.17a28.742,28.742,0,0,1-.922,7.2c-.625-.37-.114-1.682-1.406-1.6-.252.015-.11-.909-.165-1.4C6217.989,4512.76,6218.293,4511.956,6217.862,4511.22Z" transform="translate(-555.772 -613.342)"/><path class="c" d="M6174.838,4768.108l1.182-1.018q.171-.359.4-.037c.352.443.862.307,1.32.361A2.838,2.838,0,0,1,6174.838,4768.108Z" transform="translate(-515.221 -856.136)"/><path class="b" d="M5688.589,4164.1l1.809.209c-1.012.322-1.6.451-2.128-.122A.262.262,0,0,1,5688.589,4164.1Z" transform="translate(-56.563 -287.896)"/><path class="b" d="M5650.331,4179.554l.54.49c-.484-.012-.686,1-1.342.37A1.224,1.224,0,0,1,5650.331,4179.554Z" transform="translate(-20.044 -302.48)"/><path class="c" d="M6195.839,4640.243a2.683,2.683,0,0,0-.405.037,27.764,27.764,0,0,0,1.294-7.889c.916-.122,1.084.435,1.078,1.166a14.19,14.19,0,0,1-.2,2.759A4,4,0,0,1,6195.839,4640.243Z" transform="translate(-534.636 -729.327)"/><path class="c" d="M6218.806,4551.355c-.647-1.229.9-2.944-.876-3.924q0-2.593,0-5.187c-.063,1.989,1.545,3.422,1.785,5.311C6218.792,4548.676,6219.883,4550.272,6218.806,4551.355Z" transform="translate(-555.836 -644.366)"/></g></svg>