<svg xmlns="http://www.w3.org/2000/svg" width="56.576" height="41.269" viewBox="0 0 56.576 41.269"><defs><style>.a{fill:#707070;}</style></defs><g transform="translate(3558.895 1011.162)"><path class="a" d="M-3435.422-985.012q-1.9-8.895-3.8-17.791c-.265-1.25-.593-2.655-2.2-2.228a3.375,3.375,0,0,0-1.781,2.171c-1.613,5.935-3.083,11.908-5.069,17.969q-.452-1.731-.9-3.463c-.755-2.9-1.411-5.833-2.326-8.684-.26-.811-1.268-1.385-1.934-2.068-.635.625-1.54,1.14-1.849,1.9-.694,1.7-.567,4.331-1.743,5.077-1.476.936-3.92.386-5.947.438-1.455.037-2.912.007-4.683.007,1.264-5.806,2.361-11.337,3.721-16.8.432-1.737,1.938-2.672,3.915-2.669,13.712.022,27.423,0,41.135.024,2.861.006,4.474,2.043,3.892,4.833-.86,4.124-1.837,8.224-2.642,12.357-.284,1.457-.842,2.036-2.409,1.983-3.506-.118-7.02.047-10.526-.069-2.007-.066-3.03.684-3.356,2.645-.251,1.51-.712,2.986-1.08,4.477Z" transform="translate(-87.447 0)"/><path class="a" d="M-3540.452-645.8c.98,4.18,1.887,8.38,3,12.525a3.6,3.6,0,0,0,1.9,2.329c1.62.43,1.852-1.09,2.155-2.293,1.463-5.812,2.946-11.62,4.58-18.054,1.431,6.429,2.709,12.263,4.046,18.083.172.747.454,1.76,1.012,2.072,1.451.812,2.479.14,2.89-1.442.814-3.138,1.7-6.26,2.4-9.422a1.937,1.937,0,0,1,2.308-1.82c3.168.092,6.341.029,9.882.029-1.04,4.9-2.008,9.543-3.014,14.178-.957,4.409-1.251,4.622-5.9,4.622q-19.6,0-39.2,0c-4.009,0-5.073-1.336-4.235-5.278.809-3.806,1.688-7.6,2.418-11.42a1.758,1.758,0,0,1,2.113-1.7c3.184.078,6.372-.044,9.555.05C-3542.605-643.292-3541.086-643.617-3540.452-645.8Z" transform="translate(0 -344.896)"/></g></svg>