<svg xmlns="http://www.w3.org/2000/svg" width="45.112" height="45.111" viewBox="0 0 45.112 45.111"><defs><style>.a{fill:#707070;}.b{fill:#fff;}</style></defs><g transform="translate(4799.537 -4396.852)"><path class="a" d="M-4761.253,4441.962h-31.528a2.612,2.612,0,0,0-.546-.229c-3.847-.687-6.162-3.288-6.178-7.192q-.063-15.155,0-30.312a7.041,7.041,0,0,1,7.345-7.346q15.155-.064,30.313,0a6.975,6.975,0,0,1,7.025,5.2c.142.507.266,1.019.4,1.528v31.528a4.132,4.132,0,0,0-.252.742,6.931,6.931,0,0,1-5.242,5.764C-4760.364,4441.744-4760.809,4441.855-4761.253,4441.962Zm-25.98-36.679c0,1.639.043,3.1-.018,4.561a1.361,1.361,0,0,0,.9,1.457c3.744,1.839,7.469,3.719,11.2,5.585l3.714,1.86c-.265.143-.407.224-.554.3q-7.16,3.587-14.315,7.18c-.335.169-.854.458-.865.711-.076,1.712-.04,3.43-.04,5.256a6.619,6.619,0,0,0,.631-.222q10.21-5.1,20.405-10.227a1.252,1.252,0,0,0,.537-.914c.061-1.268-.015-2.542.041-3.81a1.345,1.345,0,0,0-.885-1.458c-6.518-3.227-13.015-6.493-19.52-9.744C-4786.348,4405.646-4786.71,4405.51-4787.233,4405.284Z" transform="translate(0 0)"/><path class="b" d="M-4241.719,4779.732c.523.226.886.361,1.229.534,6.5,3.25,13,6.517,19.52,9.743a1.345,1.345,0,0,1,.885,1.458c-.056,1.268.021,2.543-.041,3.811a1.257,1.257,0,0,1-.537.914q-10.187,5.145-20.4,10.226c-.142.071-.3.108-.632.222,0-1.827-.037-3.544.04-5.257.011-.252.53-.542.866-.71q7.15-3.606,14.315-7.18c.146-.074.289-.155.553-.3-1.3-.651-2.505-1.256-3.713-1.86-3.73-1.867-7.455-3.746-11.2-5.585a1.36,1.36,0,0,1-.9-1.457C-4241.676,4782.833-4241.719,4781.371-4241.719,4779.732Z" transform="translate(-545.514 -374.448)"/></g></svg>