<svg xmlns="http://www.w3.org/2000/svg" width="52.682" height="52.427" viewBox="0 0 52.682 52.427"><defs><style>.a{fill:#707070;}.b{fill:#fff;}</style></defs><g transform="translate(-3467.824 -7523.138)"><path class="a" d="M3494.1,7575.565a26.214,26.214,0,1,1,26.406-25.658C3520.451,7564.007,3508.516,7575.6,3494.1,7575.565Zm3.2-29.881,10.17-12.362-.373-.458-25.079,10.319,10.73,9.065a4.991,4.991,0,0,1-2.21-.428c-1.56-.766-2.365-.257-3.123,1.248-1.868,3.709-3.929,7.321-5.9,10.979-.27.5-.466,1.04-.7,1.562l.326.3,26.241-11.771Z" transform="translate(0 0)"/><path class="b" d="M3557.673,7590.859l10.086,8.451-26.241,11.771-.327-.3c.23-.521.427-1.061.7-1.561,1.971-3.659,4.032-7.271,5.9-10.98.758-1.5,1.562-2.014,3.122-1.248a4.983,4.983,0,0,0,2.21.428l-10.73-9.065,25.079-10.32.373.458Z" transform="translate(-60.37 -45.175)"/></g></svg>