<svg xmlns="http://www.w3.org/2000/svg" width="51.307" height="51.307" viewBox="0 0 51.307 51.307"><defs><style>.a{fill:#707070;}.b{fill:#fff;}</style></defs><g transform="translate(-291 -287.693)"><path class="a" d="M50.927,15.544a4.491,4.491,0,1,0,4.38,4.489A4.436,4.436,0,0,0,50.927,15.544ZM4,50.176l28.782,5.131V4L4,9.131Z" transform="translate(287 283.693)"/><path class="b" d="M24.026,16.27v3.481l-5.088.23L18.913,35.1l-3.8-.115V20.121l-5.113.2v-3.2Z" transform="translate(288.651 287.215)"/><path class="a" d="M37.926,15.145a5.122,5.122,0,0,1-5.1,5.145A5.061,5.061,0,0,1,29,18.541V11.749A5.061,5.061,0,0,1,32.825,10,5.122,5.122,0,0,1,37.926,15.145Zm2.55,11.577V40.872h4.463a4.464,4.464,0,0,0,4.4-3.859H49.4V26.722ZM29,22.863V44.731h4.463a4.464,4.464,0,0,0,4.4-3.859h.064V22.863Z" transform="translate(292.906 285.344)"/></g></svg>