<svg xmlns="http://www.w3.org/2000/svg" width="124.748" height="32.501" viewBox="0 0 124.748 32.501"><defs><style>.a{fill:#707070;}.b{fill:#fff;}</style></defs><g transform="translate(-2514.448 -6518.948)"><path class="a" d="M2514.448,6518.948H2639.2v32.5c-.54-.008-1.08-.023-1.62-.023H2514.448Zm49.8,27.566c3.1,0,6.126.038,9.147-.022a11.1,11.1,0,0,0,2.923-.478,6.03,6.03,0,0,0,.569-11.329c-.2-.086-.378-.209-.694-.387a4.188,4.188,0,0,0,3.2-3.146c.819-3.371-.673-6.292-4.1-6.815a107.528,107.528,0,0,0-11.043-.607Zm21.3-.03c3.464,0,6.787.115,10.1-.032a6.125,6.125,0,0,0,6.1-5.034c.422-2.981-.633-5.721-3.917-6.892-.08-.028-.121-.162-.188-.255,1.988-.781,2.928-1.889,3.139-3.663.413-3.473-1.159-6-4.648-6.385a98.331,98.331,0,0,0-10.58-.083Zm-47.479-.009v-2.559h-14.635c.4-.509.671-.867.956-1.215,4.244-5.189,8.465-10.4,12.757-15.547a3.481,3.481,0,0,0,.6-3.185h-17.905v2.623h13.9c-.34.474-.514.746-.717.994-4.169,5.09-8.309,10.2-12.539,15.244a3.792,3.792,0,0,0-.946,3.645Zm1.769.068c.859,0,1.562-.046,2.255.012a1.173,1.173,0,0,0,1.437-.969c.394-1.341.934-2.639,1.387-3.964a1.028,1.028,0,0,1,1.137-.839c2.909.044,5.82-.007,8.728.052a1.423,1.423,0,0,1,1.026.738c.578,1.363,1.018,2.784,1.554,4.167.116.3.4.731.641.754.917.089,1.849.036,2.91.036-2.7-6.975-5.306-13.734-7.918-20.492-.834-2.158-.836-2.114-3.225-2.168a1.443,1.443,0,0,0-1.632,1.094c-1.549,4.125-3.162,8.227-4.748,12.339C2542.224,6540.331,2541.063,6543.361,2539.84,6546.544Zm75,0a12.035,12.035,0,0,1,1.659.011,2.455,2.455,0,0,0,2.7-1.417c1.4-2.243,2.919-4.411,4.393-6.607.284-.423.581-.838.942-1.358,1.965,2.956,3.807,5.748,5.681,8.519.231.342.615.762.969.806a25.672,25.672,0,0,0,3,.038c-.285-.464-.442-.739-.617-1-2.215-3.341-4.411-6.694-6.666-10.008a1.443,1.443,0,0,1-.034-1.941c1.916-2.745,3.751-5.546,5.611-8.329.263-.394.5-.8.756-1.213-2.157-.515-3.634-.073-4.695,1.943a68.779,68.779,0,0,1-3.955,5.992c-1.666-2.5-3.231-4.877-4.832-7.23-.232-.341-.609-.766-.963-.81a26.393,26.393,0,0,0-3.057-.039c1.807,2.725,3.47,5.222,5.12,7.728.635.964,1.738,1.956,1.72,2.919-.019,1.021-1.088,2.041-1.744,3.031C2618.893,6540.5,2616.938,6543.4,2614.836,6546.544Zm-8.025-22.6v22.523h3.021v-22.523Z"/><path class="b" d="M3382.849,6625.13v-22.783a107.667,107.667,0,0,1,11.043.607c3.431.523,4.923,3.444,4.1,6.815a4.187,4.187,0,0,1-3.2,3.146c.315.178.5.3.693.387a6.03,6.03,0,0,1-.569,11.329,11.08,11.08,0,0,1-2.923.478C3388.975,6625.169,3385.952,6625.13,3382.849,6625.13Zm3.218-10.653v8.137c1.549,0,3,0,4.451,0,.457,0,.915.013,1.369-.023,2.548-.2,3.9-1.587,3.931-4.031.035-2.382-1.225-3.911-3.581-4.056C3390.215,6614.378,3388.179,6614.477,3386.067,6614.477Zm-.019-9.53V6612c2.146-.116,4.219-.12,6.261-.369,1.868-.228,2.7-1.391,2.666-3.267a2.809,2.809,0,0,0-2.735-3.078C3390.228,6605.077,3388.2,6605.057,3386.048,6604.947Z" transform="translate(-818.603 -78.616)"/><path class="b" d="M3754.352,6630.011v-22.345a98.331,98.331,0,0,1,10.58.083c3.489.38,5.062,2.913,4.648,6.386-.211,1.773-1.151,2.881-3.139,3.662.066.095.108.227.188.256,3.283,1.17,4.338,3.911,3.917,6.892a6.125,6.125,0,0,1-6.1,5.034C3761.139,6630.126,3757.816,6630.011,3754.352,6630.011Zm3.111-2.551c2.163,0,4.244.159,6.289-.042a3.533,3.533,0,0,0,3.529-3.858c.053-2.314-.942-3.822-3.123-4.046a66.288,66.288,0,0,0-6.7-.05Zm.027-10.544c2.2-.123,4.311-.13,6.39-.39a2.848,2.848,0,0,0,2.6-3.1,2.887,2.887,0,0,0-2.5-3.189c-2.122-.248-4.272-.258-6.491-.374Z" transform="translate(-1168.802 -83.527)"/><path class="b" d="M2619.527,6629.015h-18.532a3.79,3.79,0,0,1,.945-3.645c4.23-5.039,8.37-10.154,12.54-15.244.2-.248.377-.521.717-.994h-13.9v-2.623H2619.2a3.482,3.482,0,0,1-.6,3.186c-4.292,5.149-8.513,10.357-12.757,15.547-.284.348-.556.706-.955,1.215h14.635Z" transform="translate(-81.455 -82.539)"/><path class="b" d="M2957.24,6627.451c1.223-3.183,2.384-6.212,3.552-9.24,1.586-4.111,3.2-8.213,4.748-12.339a1.442,1.442,0,0,1,1.632-1.093c2.389.053,2.391.01,3.225,2.167,2.612,6.758,5.223,13.517,7.918,20.492-1.062,0-1.993.053-2.91-.036-.241-.023-.525-.454-.641-.754-.536-1.383-.976-2.8-1.554-4.167a1.421,1.421,0,0,0-1.026-.737c-2.908-.06-5.819-.009-8.728-.052a1.027,1.027,0,0,0-1.137.839c-.453,1.325-.993,2.623-1.387,3.963a1.172,1.172,0,0,1-1.437.969C2958.8,6627.405,2958.1,6627.451,2957.24,6627.451Zm10.675-19.149-.288.007-3.978,10.684h8.266Z" transform="translate(-417.401 -80.908)"/><path class="b" d="M4265.053,6627.037c2.1-3.145,4.057-6.048,5.989-8.966.656-.991,1.726-2.01,1.744-3.032.018-.963-1.085-1.955-1.72-2.918-1.65-2.506-3.313-5-5.12-7.728a26.293,26.293,0,0,1,3.058.039c.353.043.73.469.962.81,1.6,2.353,3.167,4.729,4.833,7.23a69.153,69.153,0,0,0,3.955-5.992c1.061-2.017,2.537-2.458,4.694-1.943-.255.41-.494.819-.756,1.213-1.861,2.783-3.695,5.584-5.611,8.329a1.442,1.442,0,0,0,.035,1.941c2.255,3.313,4.451,6.667,6.666,10.008.175.264.333.539.617,1a25.672,25.672,0,0,1-3-.038c-.355-.044-.738-.464-.969-.807-1.875-2.771-3.717-5.563-5.682-8.519-.361.521-.658.935-.942,1.358-1.474,2.2-3,4.364-4.394,6.607a2.453,2.453,0,0,1-2.7,1.417A12.117,12.117,0,0,0,4265.053,6627.037Z" transform="translate(-1650.217 -80.493)"/><path class="b" d="M4125.11,6606.05h3.021v22.523h-3.021Z" transform="translate(-1518.299 -82.107)"/><path class="a" d="M3438.961,6813.268c2.112,0,4.148-.1,6.17.026,2.355.146,3.616,1.674,3.581,4.056-.036,2.444-1.384,3.833-3.931,4.031-.455.035-.913.021-1.37.022-1.451,0-2.9,0-4.451,0Z" transform="translate(-871.497 -277.407)"/><path class="a" d="M3438.638,6647.691c2.147.109,4.18.13,6.192.34a2.809,2.809,0,0,1,2.735,3.078c.032,1.876-.8,3.04-2.666,3.267-2.042.249-4.115.253-6.261.369Z" transform="translate(-871.193 -121.36)"/><path class="a" d="M3808.609,6822.14v-8a66.287,66.287,0,0,1,6.7.049c2.181.223,3.176,1.731,3.123,4.045a3.532,3.532,0,0,1-3.529,3.858C3812.853,6822.3,3810.772,6822.14,3808.609,6822.14Z" transform="translate(-1219.948 -278.207)"/><path class="a" d="M3809.087,6654.757V6647.7c2.219.117,4.37.126,6.492.374a2.887,2.887,0,0,1,2.5,3.19,2.848,2.848,0,0,1-2.6,3.1C3813.4,6654.627,3811.286,6654.635,3809.087,6654.757Z" transform="translate(-1220.398 -121.369)"/><path class="a" d="M3073.289,6666.229l4,10.691h-8.267l3.978-10.684Z" transform="translate(-522.773 -138.835)"/></g></svg>