<svg xmlns="http://www.w3.org/2000/svg" width="11.375" height="13" viewBox="0 0 11.375 13">
  <path id="calendar" d="M0,.406A1.219,1.219,0,0,0,1.219,1.625h8.938A1.219,1.219,0,0,0,11.375.406V-6.5H0ZM8.125-4.57a.306.306,0,0,1,.3-.3H9.445a.306.306,0,0,1,.3.3v1.016a.306.306,0,0,1-.3.3H8.43a.306.306,0,0,1-.3-.3Zm0,3.25a.306.306,0,0,1,.3-.3H9.445a.306.306,0,0,1,.3.3V-.3a.306.306,0,0,1-.3.3H8.43a.306.306,0,0,1-.3-.3ZM4.875-4.57a.306.306,0,0,1,.3-.3H6.2a.306.306,0,0,1,.3.3v1.016a.306.306,0,0,1-.3.3H5.18a.306.306,0,0,1-.3-.3Zm0,3.25a.306.306,0,0,1,.3-.3H6.2a.306.306,0,0,1,.3.3V-.3a.306.306,0,0,1-.3.3H5.18a.306.306,0,0,1-.3-.3ZM1.625-4.57a.306.306,0,0,1,.3-.3H2.945a.306.306,0,0,1,.3.3v1.016a.306.306,0,0,1-.3.3H1.93a.306.306,0,0,1-.3-.3Zm0,3.25a.306.306,0,0,1,.3-.3H2.945a.306.306,0,0,1,.3.3V-.3a.306.306,0,0,1-.3.3H1.93a.306.306,0,0,1-.3-.3Zm8.531-8.43H8.938v-1.219a.407.407,0,0,0-.406-.406H7.719a.407.407,0,0,0-.406.406V-9.75H4.063v-1.219a.407.407,0,0,0-.406-.406H2.844a.407.407,0,0,0-.406.406V-9.75H1.219A1.219,1.219,0,0,0,0-8.531v1.219H11.375V-8.531A1.219,1.219,0,0,0,10.156-9.75Z" transform="translate(0 11.375)" fill="#646972"/>
</svg>
