<svg xmlns="http://www.w3.org/2000/svg" width="10.656" height="10.656" viewBox="0 0 10.656 10.656">
  <path id="close_icon" data-name="close icon" d="M5.5-9.453A5.327,5.327,0,0,0,.172-4.125,5.327,5.327,0,0,0,5.5,1.2a5.327,5.327,0,0,0,5.328-5.328A5.327,5.327,0,0,0,5.5-9.453ZM8.112-2.726a.258.258,0,0,1,0,.365l-.851.849a.258.258,0,0,1-.365,0L5.5-2.922,4.1-1.513a.258.258,0,0,1-.365,0l-.849-.851a.258.258,0,0,1,0-.365L4.3-4.125l-1.409-1.4a.258.258,0,0,1,0-.365l.851-.851a.258.258,0,0,1,.365,0L5.5-5.328,6.9-6.737a.258.258,0,0,1,.365,0l.851.851a.258.258,0,0,1,0,.365L6.7-4.125Z" transform="translate(-0.172 9.453)" fill="#fff"/>
</svg>
