<svg xmlns="http://www.w3.org/2000/svg" width="19.006" height="18" viewBox="0 0 19.006 18">
  <path id="Credentials" d="M546.5-2231.431c.073-.355.131-.714.221-1.065a8.367,8.367,0,0,1,6.639-5.838,4.048,4.048,0,0,1,4.684,4.581,7.128,7.128,0,0,1-1.473,3.674q1,1,2,2c.667.668,1.331,1.339,1.974,1.986l1.076-1.1c-.3-.312-.641-.7-1.007-1.056a.42.42,0,0,1-.035-.662c.268-.288.554-.56.839-.831a.421.421,0,0,1,.662.044c1.017,1.017,2.045,2.022,3.051,3.049.508.519.489.662-.01,1.19-.848.9-.865.9-1.738.031-.2-.2-.386-.406-.589-.62l-1.109,1.148c.383.37.787.754,1.185,1.146s.822.813,1.225,1.228a1.093,1.093,0,0,1-.013,1.676,1.107,1.107,0,0,1-1.766.1q-3.582-3.567-7.153-7.144a4.147,4.147,0,0,1-.313-.4,7.457,7.457,0,0,1-2.963,1.395,4.572,4.572,0,0,1-4.061-.86,3.621,3.621,0,0,1-1.249-2.372,2.031,2.031,0,0,0-.078-.28Zm5.208-1.783c-1.852-.2-2.959.522-3,1.968a2.168,2.168,0,0,0,2.22,2.252,2.125,2.125,0,0,0,1.591-.759,2.26,2.26,0,0,0,.372-2.258c1.4.269,2.275-.061,2.788-1.027a2.186,2.186,0,0,0-.4-2.535,2.19,2.19,0,0,0-2.537-.387C551.787-2235.457,551.451-2234.561,551.712-2233.214Z" transform="translate(-546.504 2238.361)" fill="#fff"/>
</svg>
