<svg xmlns="http://www.w3.org/2000/svg" width="18" height="14" viewBox="0 0 18 14">
  <path id="Dashboard" d="M9-13A9,9,0,0,0,0-4,8.953,8.953,0,0,0,1.221.525.989.989,0,0,0,2.078,1H15.922a.989.989,0,0,0,.858-.475A8.953,8.953,0,0,0,18-4,9,9,0,0,0,9-13Zm0,2a.987.987,0,0,1,.948.739,1.68,1.68,0,0,0-.108.208l-.288.865A.974.974,0,0,1,9-9a1,1,0,0,1-1-1A1,1,0,0,1,9-11ZM3-2A1,1,0,0,1,2-3,1,1,0,0,1,3-4,1,1,0,0,1,4-3,1,1,0,0,1,3-2ZM4.5-7a1,1,0,0,1-1-1,1,1,0,0,1,1-1,1,1,0,0,1,1,1A1,1,0,0,1,4.5-7Zm7.712-2.263L10.3-3.513A1.988,1.988,0,0,1,11-2a1.979,1.979,0,0,1-.277,1H7.277A1.979,1.979,0,0,1,7-2,1.994,1.994,0,0,1,8.872-3.987l1.917-5.75a.747.747,0,0,1,.949-.474A.75.75,0,0,1,12.212-9.263Zm.458,1.788.485-1.455A.986.986,0,0,1,13.5-9a1,1,0,0,1,1,1,1,1,0,0,1-1,1A.985.985,0,0,1,12.67-7.475ZM15-2a1,1,0,0,1-1-1,1,1,0,0,1,1-1,1,1,0,0,1,1,1A1,1,0,0,1,15-2Z" transform="translate(0 13)" fill="#7d7f7d"/>
</svg>
