<svg xmlns="http://www.w3.org/2000/svg" width="15.75" height="18" viewBox="0 0 15.75 18">
  <path id="documentation_icon" data-name="documentation icon" d="M15.75-3.094V-14.906a.842.842,0,0,0-.844-.844H3.375A3.376,3.376,0,0,0,0-12.375v11.25A3.376,3.376,0,0,0,3.375,2.25H14.906a.842.842,0,0,0,.844-.844V.844a.85.85,0,0,0-.313-.657,7.842,7.842,0,0,1,0-2.626A.838.838,0,0,0,15.75-3.094ZM4.5-11.039a.212.212,0,0,1,.211-.211h7.453a.212.212,0,0,1,.211.211v.7a.212.212,0,0,1-.211.211H4.711a.212.212,0,0,1-.211-.211Zm0,2.25A.212.212,0,0,1,4.711-9h7.453a.212.212,0,0,1,.211.211v.7a.212.212,0,0,1-.211.211H4.711A.212.212,0,0,1,4.5-8.086ZM13.409,0H3.375A1.124,1.124,0,0,1,2.25-1.125,1.128,1.128,0,0,1,3.375-2.25H13.409A12.654,12.654,0,0,0,13.409,0Z" transform="translate(0 15.75)"/>
</svg>
