<svg xmlns="http://www.w3.org/2000/svg" width="20.25" height="17.996" viewBox="0 0 20.25 17.996">
  <path id="edit" d="M14.154-12.825a.344.344,0,0,0-.485,0L5.991-5.147,5.629-1.884a.684.684,0,0,0,.756.756l3.263-.362,7.678-7.678a.344.344,0,0,0,0-.485Zm5.7-.805-1.716-1.716a1.375,1.375,0,0,0-1.941,0L14.948-14.1a.344.344,0,0,0,0,.485l3.171,3.171a.344.344,0,0,0,.485,0l1.245-1.245A1.375,1.375,0,0,0,19.849-13.63ZM13.5-3.579V0H2.25V-11.25h8.079a.432.432,0,0,0,.3-.123l1.406-1.406a.422.422,0,0,0-.3-.721H1.688A1.688,1.688,0,0,0,0-11.812V.563A1.688,1.688,0,0,0,1.688,2.25H14.063A1.688,1.688,0,0,0,15.75.563V-4.985a.423.423,0,0,0-.721-.3L13.623-3.878A.432.432,0,0,0,13.5-3.579Z" transform="translate(0 15.746)" fill="#646972"/>
</svg>
