<svg xmlns="http://www.w3.org/2000/svg" width="13.563" height="13.563" viewBox="0 0 13.563 13.563">
  <path id="help" d="M13.781-5.25A6.782,6.782,0,0,0,7-12.031,6.782,6.782,0,0,0,.219-5.25,6.781,6.781,0,0,0,7,1.531,6.781,6.781,0,0,0,13.781-5.25Zm-6.6-4.539A3.12,3.12,0,0,1,10.368-7c0,2.106-2.275,2.138-2.275,2.917v.036a.328.328,0,0,1-.328.328H6.234a.328.328,0,0,1-.328-.328v-.109c0-1.123.851-1.571,1.494-1.932.552-.309.89-.52.89-.929,0-.542-.691-.9-1.25-.9-.743,0-1.078.359-1.567.979a.328.328,0,0,1-.456.058L4.069-7.6A.329.329,0,0,1,4-8.046,3.542,3.542,0,0,1,7.182-9.789ZM7-3.008A1.259,1.259,0,0,1,8.258-1.75,1.259,1.259,0,0,1,7-.492,1.259,1.259,0,0,1,5.742-1.75,1.259,1.259,0,0,1,7-3.008Z" transform="translate(-0.219 12.031)" fill="#646972"/>
</svg>
