<svg xmlns="http://www.w3.org/2000/svg" width="17.438" height="17.438" viewBox="0 0 17.438 17.438">
  <path id="Info" d="M9-15.469A8.72,8.72,0,0,0,.281-6.75,8.718,8.718,0,0,0,9,1.969,8.718,8.718,0,0,0,17.719-6.75,8.72,8.72,0,0,0,9-15.469ZM9-11.6a1.477,1.477,0,0,1,1.477,1.477A1.477,1.477,0,0,1,9-8.648a1.477,1.477,0,0,1-1.477-1.477A1.477,1.477,0,0,1,9-11.6Zm1.969,8.93a.422.422,0,0,1-.422.422H7.453a.422.422,0,0,1-.422-.422v-.844a.422.422,0,0,1,.422-.422h.422v-2.25H7.453a.422.422,0,0,1-.422-.422v-.844a.422.422,0,0,1,.422-.422H9.7a.422.422,0,0,1,.422.422v3.516h.422a.422.422,0,0,1,.422.422Z" transform="translate(-0.281 15.469)"/>
</svg>
