<svg xmlns="http://www.w3.org/2000/svg" width="26.125" height="19.493" viewBox="0 0 26.125 19.493">
  <g id="Integrations" transform="translate(-2456.178 3572.487)">
    <path id="Path_15" data-name="Path 15" d="M2646.722-3561.263a1.141,1.141,0,0,1-1.262.717c-.422-.029-.847-.006-1.231-.006l-.84,1.844c.285.284.6.6.918.917a.96.96,0,0,1,0,1.5q-.628.633-1.261,1.26a.954.954,0,0,1-1.459.007c-.315-.309-.621-.628-.942-.931a.3.3,0,0,0-.251-.067c-.57.215-1.133.446-1.74.689,0,.376,0,.808,0,1.239a.97.97,0,0,1-1.09,1.1c-.586,0-1.172,0-1.758,0a.939.939,0,0,1-1.027-1.029c0-.441,0-.883,0-1.324a.219.219,0,0,0-.166-.238q-.758-.325-1.5-.683a.2.2,0,0,0-.282.042c-.282.294-.573.58-.864.865a.953.953,0,0,1-1.425,0c-.2-.186-.4-.365-.613-.56l2.827-3.235c.079.094.137.177.208.246a5.333,5.333,0,0,0,5.683,1.427,5.237,5.237,0,0,0,3.786-4.49,5.482,5.482,0,0,0-4.738-6.247,5.356,5.356,0,0,0-4.427,1.37.794.794,0,0,1-.515.2,1.534,1.534,0,0,1-1.264-.494c-.651-.633-1.349-1.216-2.048-1.838.056-.066.1-.132.159-.188q.638-.641,1.279-1.279a.954.954,0,0,1,1.46,0c.308.3.616.609.917.92a.246.246,0,0,0,.325.068c.5-.207,1.01-.39,1.521-.571.12-.043.178-.088.175-.226-.009-.4-.007-.8,0-1.2a.944.944,0,0,1,1.035-1.024q.9-.005,1.81,0a.948.948,0,0,1,1.029,1.032c0,.433.007.866,0,1.3a.25.25,0,0,0,.192.274c.491.207.976.429,1.456.663.129.062.2.068.3-.04.275-.289.56-.569.845-.848a.951.951,0,0,1,1.442,0q.653.644,1.3,1.3a.951.951,0,0,1,0,1.441c-.352.356-.709.707-1.032,1.029.215.62.416,1.21.632,1.8a.271.271,0,0,0,.209.114,8.429,8.429,0,0,0,.993,0,1.1,1.1,0,0,1,1.229.721Z" transform="translate(-164.42)" fill="#fff"/>
    <path id="Path_16" data-name="Path 16" d="M2463.925-3472.529c-3.137-.448-5.779.308-7.67,3-.382-1.142.7-4.269,1.939-5.636a8.312,8.312,0,0,1,5.4-2.6c-.054-.87-.107-1.729-.165-2.668l5.545,4.935-4.883,5.589C2464.035-3470.827,2463.981-3471.673,2463.925-3472.529Z" transform="translate(0 -87.349)" fill="#fff"/>
    <path id="Path_17" data-name="Path 17" d="M2743.718-3413.159a1.781,1.781,0,0,1-1.786-1.8,1.781,1.781,0,0,1,1.8-1.785,1.781,1.781,0,0,1,1.786,1.8A1.781,1.781,0,0,1,2743.718-3413.159Z" transform="translate(-271.16 -147.789)" fill="#fff"/>
  </g>
</svg>
