<svg xmlns="http://www.w3.org/2000/svg" width="19.617" height="20.321" viewBox="0 0 19.617 20.321">
  <g id="Jobs" transform="matrix(0.819, -0.574, 0.574, 0.819, 3256.532, 297.596)">
    <path id="Path_3" data-name="Path 3" d="M-2243.436-2106.857c.124.034.249.065.371.1a2.141,2.141,0,0,1,1.47,2.339,2.141,2.141,0,0,1-2.153,1.841,2.147,2.147,0,0,1-2.094-1.846,2.15,2.15,0,0,1,1.728-2.4,1.035,1.035,0,0,0,.121-.037Z" transform="translate(-251.086)" fill="#fff"/>
    <path id="Path_4" data-name="Path 4" d="M-2503.987-1794.208c.013-.047.028-.093.04-.14a1.4,1.4,0,0,1,1.511-1.089,1.409,1.409,0,0,1,1.266,1.289,1.41,1.41,0,0,1-1.09,1.478,1.412,1.412,0,0,1-1.682-1.032c-.011-.046-.03-.09-.045-.136Z" transform="translate(0 -302.924)" fill="#fff"/>
    <path id="Path_5" data-name="Path 5" d="M-2054.779-2024.324a2.478,2.478,0,0,1,2.485,2.468,2.483,2.483,0,0,1-2.473,2.482,2.483,2.483,0,0,1-2.485-2.47A2.478,2.478,0,0,1-2054.779-2024.324Z" transform="translate(-434.553 -80.282)" fill="#fff"/>
    <path id="Path_6" data-name="Path 6" d="M-1958.083-1809.31a2.026,2.026,0,0,1,2.028-2.01,2.028,2.028,0,0,1,2.01,2.03,2.027,2.027,0,0,1-2.03,2.01A2.024,2.024,0,0,1-1958.083-1809.31Z" transform="translate(-531.018 -287.478)" fill="#fff"/>
    <path id="Path_7" data-name="Path 7" d="M-2434.751-2008.464a1.773,1.773,0,0,1,1.779-1.781,1.783,1.783,0,0,1,1.779,1.786,1.789,1.789,0,0,1-1.793,1.775A1.78,1.78,0,0,1-2434.751-2008.464Z" transform="translate(-67.348 -93.978)" fill="#fff"/>
    <path id="Path_8" data-name="Path 8" d="M-2216.517-1511.922a1.407,1.407,0,0,1-1.418,1.408,1.415,1.415,0,0,1-1.4-1.411,1.415,1.415,0,0,1,1.422-1.409A1.408,1.408,0,0,1-2216.517-1511.922Z" transform="translate(-276.889 -577.34)" fill="#fff"/>
    <path id="Path_9" data-name="Path 9" d="M-2018.765-1595.442a1.4,1.4,0,0,1-1.4,1.4,1.414,1.414,0,0,1-1.415-1.415,1.408,1.408,0,0,1,1.406-1.4A1.4,1.4,0,0,1-2018.765-1595.442Z" transform="translate(-469.251 -496.096)" fill="#fff"/>
    <path id="Path_10" data-name="Path 10" d="M-2415.464-1590.1a1.318,1.318,0,0,1-1.323,1.317,1.331,1.331,0,0,1-1.316-1.329,1.319,1.319,0,0,1,1.328-1.312A1.309,1.309,0,0,1-2415.464-1590.1Z" transform="translate(-83.543 -501.378)" fill="#fff"/>
  </g>
</svg>
