<svg xmlns="http://www.w3.org/2000/svg" width="17.438" height="17.719" viewBox="0 0 17.438 17.719">
  <path id="logout" d="M14.063-13.848a.843.843,0,0,0-1.223.274l-.555.988a.839.839,0,0,0,.229,1.086,5.909,5.909,0,0,1,2.394,4.711A5.9,5.9,0,0,1,9-.844a5.9,5.9,0,0,1-5.906-5.91A5.878,5.878,0,0,1,5.484-11.5a.843.843,0,0,0,.232-1.09l-.555-.988a.846.846,0,0,0-1.23-.271A8.72,8.72,0,0,0,.281-6.736a8.738,8.738,0,0,0,8.736,8.7,8.72,8.72,0,0,0,8.7-8.719A8.7,8.7,0,0,0,14.063-13.848ZM10.406-6.469v-8.437a.842.842,0,0,0-.844-.844H8.438a.842.842,0,0,0-.844.844v8.438a.842.842,0,0,0,.844.844H9.563A.842.842,0,0,0,10.406-6.469Z" transform="translate(-0.281 15.75)"/>
</svg>
