<svg xmlns="http://www.w3.org/2000/svg" width="17.187" height="18.901" viewBox="0 0 17.187 18.901">
  <g id="Organizations" transform="translate(4457.966 1101.346)">
    <path id="Path_14" data-name="Path 14" d="M-4457.966-1082.445v-18.9h17.187v18.9h-6v-3.405h-5.166v3.408Zm1.726-17.182v1.691h3.406v-1.691Zm8.574,1.7v-1.691h-3.406v1.691Zm5.167-1.69h-3.409v1.689h3.409Zm-13.745,5.127h3.409v-1.689h-3.409Zm8.575.007v-1.688h-3.409v1.688Zm5.16.007v-1.7h-3.4v1.7Zm-10.316,1.746h-3.409v1.688h3.409Zm5.163,0h-3.408v1.688h3.408Zm1.745,1.682h3.418v-1.687h-3.418Zm-6.908,1.76h-3.409v1.688h3.409Zm5.16,1.69v-1.693h-3.408v1.693Zm1.742-.01h3.418v-1.679h-3.418Zm-6.9,1.763h-3.409v1.688h3.409Zm10.327,0h-3.409v1.689h3.409Z" fill="#fff"/>
  </g>
</svg>
