<svg xmlns="http://www.w3.org/2000/svg" width="23.75" height="16.625" viewBox="0 0 23.75 16.625">
  <path id="Teams" d="M3.563-8.312a2.377,2.377,0,0,0,2.375-2.375,2.377,2.377,0,0,0-2.375-2.375,2.377,2.377,0,0,0-2.375,2.375A2.377,2.377,0,0,0,3.563-8.312Zm16.625,0a2.377,2.377,0,0,0,2.375-2.375,2.377,2.377,0,0,0-2.375-2.375,2.377,2.377,0,0,0-2.375,2.375A2.377,2.377,0,0,0,20.188-8.312Zm1.188,1.188H19a2.368,2.368,0,0,0-1.674.69,5.428,5.428,0,0,1,2.787,4.06h2.449A1.186,1.186,0,0,0,23.75-3.562V-4.75A2.377,2.377,0,0,0,21.375-7.125Zm-9.5,0a4.154,4.154,0,0,0,4.156-4.156,4.154,4.154,0,0,0-4.156-4.156,4.154,4.154,0,0,0-4.156,4.156A4.154,4.154,0,0,0,11.875-7.125Zm2.85,1.188h-.308a5.846,5.846,0,0,1-2.542.594,5.858,5.858,0,0,1-2.542-.594H9.025A4.276,4.276,0,0,0,4.75-1.662V-.594A1.782,1.782,0,0,0,6.531,1.188H17.219A1.782,1.782,0,0,0,19-.594V-1.662A4.276,4.276,0,0,0,14.725-5.937Zm-8.3-.5a2.368,2.368,0,0,0-1.674-.69H2.375A2.377,2.377,0,0,0,0-4.75v1.188A1.186,1.186,0,0,0,1.188-2.375H3.633A5.442,5.442,0,0,1,6.424-6.435Z" transform="translate(0 15.438)" fill="#fff"/>
</svg>
