<svg xmlns="http://www.w3.org/2000/svg" width="21.375" height="18.996" viewBox="0 0 21.375 18.996">
  <path id="Templates" d="M14.94-13.537a.363.363,0,0,0-.512,0l-8.1,8.1L5.941-1.989a.722.722,0,0,0,.8.8l3.444-.382,8.1-8.1a.363.363,0,0,0,0-.512Zm6.012-.85L19.141-16.2a1.451,1.451,0,0,0-2.048,0l-1.314,1.314a.363.363,0,0,0,0,.512l3.347,3.347a.363.363,0,0,0,.512,0l1.314-1.314A1.451,1.451,0,0,0,20.952-14.387Zm-6.7,10.61V0H2.375V-11.875H10.9a.456.456,0,0,0,.315-.13L12.7-13.489a.445.445,0,0,0-.315-.761H1.781A1.782,1.782,0,0,0,0-12.469V.594A1.782,1.782,0,0,0,1.781,2.375H14.844A1.782,1.782,0,0,0,16.625.594V-5.262a.446.446,0,0,0-.761-.315L14.38-4.093A.456.456,0,0,0,14.25-3.778Z" transform="translate(0 16.621)" fill="#fff"/>
</svg>
