<svg xmlns="http://www.w3.org/2000/svg" width="16.625" height="19" viewBox="0 0 16.625 19">
  <path id="user_white" d="M8.313-7.125a4.75,4.75,0,0,0,4.75-4.75,4.75,4.75,0,0,0-4.75-4.75,4.75,4.75,0,0,0-4.75,4.75A4.75,4.75,0,0,0,8.313-7.125Zm3.325,1.188h-.62a6.467,6.467,0,0,1-2.705.594,6.48,6.48,0,0,1-2.705-.594h-.62A4.989,4.989,0,0,0,0-.95V.594A1.782,1.782,0,0,0,1.781,2.375H14.844A1.782,1.782,0,0,0,16.625.594V-.95A4.989,4.989,0,0,0,11.637-5.937Z" transform="translate(0 16.625)" fill="#fff"/>
</svg>
