<svg xmlns="http://www.w3.org/2000/svg" width="13.563" height="13.563" viewBox="0 0 13.563 13.563">
  <defs>
    <style>
      .cls-1 {
        fill: red;
      }
    </style>
  </defs>
  <path id="alert-red" class="cls-1" d="M7-12.031A6.782,6.782,0,0,0,.219-5.25,6.781,6.781,0,0,0,7,1.531,6.781,6.781,0,0,0,13.781-5.25,6.782,6.782,0,0,0,7-12.031ZM7-9.023A1.148,1.148,0,0,1,8.148-7.875,1.148,1.148,0,0,1,7-6.727,1.148,1.148,0,0,1,5.852-7.875,1.148,1.148,0,0,1,7-9.023ZM8.531-2.078A.328.328,0,0,1,8.2-1.75H5.8a.328.328,0,0,1-.328-.328v-.656A.328.328,0,0,1,5.8-3.062h.328v-1.75H5.8a.328.328,0,0,1-.328-.328V-5.8A.328.328,0,0,1,5.8-6.125h1.75a.328.328,0,0,1,.328.328v2.734H8.2a.328.328,0,0,1,.328.328Z" transform="translate(-0.219 12.031)"/>
</svg>
