<svg xmlns="http://www.w3.org/2000/svg" width="14.875" height="17" viewBox="0 0 14.875 17">
  <defs>
    <style>
      .cls-1 {
        fill: #593cab;
      }
    </style>
  </defs>
  <path id="calendar-blue" class="cls-1" d="M0,.531A1.594,1.594,0,0,0,1.594,2.125H13.281A1.594,1.594,0,0,0,14.875.531V-8.5H0ZM10.625-5.977a.4.4,0,0,1,.4-.4h1.328a.4.4,0,0,1,.4.4v1.328a.4.4,0,0,1-.4.4H11.023a.4.4,0,0,1-.4-.4Zm0,4.25a.4.4,0,0,1,.4-.4h1.328a.4.4,0,0,1,.4.4V-.4a.4.4,0,0,1-.4.4H11.023a.4.4,0,0,1-.4-.4Zm-4.25-4.25a.4.4,0,0,1,.4-.4H8.1a.4.4,0,0,1,.4.4v1.328a.4.4,0,0,1-.4.4H6.773a.4.4,0,0,1-.4-.4Zm0,4.25a.4.4,0,0,1,.4-.4H8.1a.4.4,0,0,1,.4.4V-.4a.4.4,0,0,1-.4.4H6.773a.4.4,0,0,1-.4-.4Zm-4.25-4.25a.4.4,0,0,1,.4-.4H3.852a.4.4,0,0,1,.4.4v1.328a.4.4,0,0,1-.4.4H2.523a.4.4,0,0,1-.4-.4Zm0,4.25a.4.4,0,0,1,.4-.4H3.852a.4.4,0,0,1,.4.4V-.4a.4.4,0,0,1-.4.4H2.523a.4.4,0,0,1-.4-.4ZM13.281-12.75H11.688v-1.594a.533.533,0,0,0-.531-.531H10.094a.533.533,0,0,0-.531.531v1.594H5.313v-1.594a.533.533,0,0,0-.531-.531H3.719a.533.533,0,0,0-.531.531v1.594H1.594A1.594,1.594,0,0,0,0-11.156v1.594H14.875v-1.594A1.594,1.594,0,0,0,13.281-12.75Z" transform="translate(0 14.875)"/>
</svg>
