<svg xmlns="http://www.w3.org/2000/svg" width="13.563" height="13.563" viewBox="0 0 13.563 13.563">
  <defs>
    <style>
      .cls-1 {
        fill: #1362a8;
      }
    </style>
  </defs>
  <path id="Close-blue" class="cls-1" d="M7-12.031A6.78,6.78,0,0,0,.219-5.25,6.78,6.78,0,0,0,7,1.531,6.78,6.78,0,0,0,13.781-5.25,6.78,6.78,0,0,0,7-12.031ZM10.325-3.47a.328.328,0,0,1,0,.465L9.242-1.925a.328.328,0,0,1-.465,0L7-3.719,5.22-1.925a.328.328,0,0,1-.465,0L3.675-3.008a.328.328,0,0,1,0-.465L5.469-5.25,3.675-7.03a.328.328,0,0,1,0-.465L4.758-8.578a.328.328,0,0,1,.465,0L7-6.781,8.78-8.575a.328.328,0,0,1,.465,0l1.083,1.083a.328.328,0,0,1,0,.465L8.531-5.25Z" transform="translate(-0.219 12.031)"/>
</svg>
