<svg xmlns="http://www.w3.org/2000/svg" width="12.25" height="14" viewBox="0 0 12.25 14">
  <defs>
    <style>
      .cls-1 {
        fill: #484848;
      }
    </style>
  </defs>
  <path id="Copy" class="cls-1" d="M2.625,0H-1.969A1.533,1.533,0,0,1-3.5-1.531V-9.625H-5.469a.656.656,0,0,0-.656.656V1.094a.656.656,0,0,0,.656.656H1.969a.656.656,0,0,0,.656-.656Zm0-9.406V-12.25H-1.969a.656.656,0,0,0-.656.656V-1.531a.656.656,0,0,0,.656.656H5.469a.656.656,0,0,0,.656-.656V-8.75H3.281A.658.658,0,0,1,2.625-9.406Zm3.308-.848-1.8-1.8a.654.654,0,0,0-.464-.192H3.5v2.625H6.125v-.166A.654.654,0,0,0,5.933-10.255Z" transform="translate(6.125 12.25)"/>
</svg>
