<svg xmlns="http://www.w3.org/2000/svg" width="19" height="19" viewBox="0 0 19 19">
  <defs>
    <style>
      .cls-1 {
        fill: #7d7f7d;
      }
    </style>
  </defs>
  <path id="Credential_" data-name="Credential " class="cls-1" d="M19-10.094a6.518,6.518,0,0,0-6.531-6.531,6.531,6.531,0,0,0-6.531,6.531,6.526,6.526,0,0,0,.328,2.047l-6,6A.891.891,0,0,0,0-1.412v2.9a.891.891,0,0,0,.891.891H5.047a.891.891,0,0,0,.891-.891V0H7.422a.891.891,0,0,0,.891-.891V-2.375H9.694a.888.888,0,0,0,.666-.3l.891-1a6.562,6.562,0,0,0,1.218.114A6.531,6.531,0,0,0,19-10.094Zm-6.531-1.781a1.781,1.781,0,0,1,1.781-1.781,1.781,1.781,0,0,1,1.781,1.781,1.781,1.781,0,0,1-1.781,1.781A1.781,1.781,0,0,1,12.469-11.875Z" transform="translate(0 16.625)"/>
</svg>
