<svg xmlns="http://www.w3.org/2000/svg" width="14" height="14" viewBox="0 0 14 14">
  <defs>
    <style>
      .cls-1 {
        fill: #484848;
      }
    </style>
  </defs>
  <path id="Downlaod" class="cls-1" d="M-1.094-12.25a.655.655,0,0,0-.656.656V-7h-2.4a.546.546,0,0,0-.386.932L-.372-1.906a.53.53,0,0,0,.746,0L4.534-6.068A.546.546,0,0,0,4.148-7H1.75v-4.594a.655.655,0,0,0-.656-.656ZM7-1.969a.655.655,0,0,0-.656-.656H2.332L.993-1.285a1.4,1.4,0,0,1-1.985,0l-1.34-1.34H-6.344A.655.655,0,0,0-7-1.969V1.094a.655.655,0,0,0,.656.656H6.344A.655.655,0,0,0,7,1.094ZM3.609.438a.547.547,0,1,1-.547-.547A.548.548,0,0,1,3.609.438Zm1.75,0a.547.547,0,1,1-.547-.547A.548.548,0,0,1,5.359.438Z" transform="translate(7 12.25)"/>
</svg>
