<svg xmlns="http://www.w3.org/2000/svg" width="15.75" height="13.997" viewBox="0 0 15.75 13.997">
  <defs>
    <style>
      .cls-1 {
        fill: #484848;
      }
    </style>
  </defs>
  <path id="Edit" class="cls-1" d="M3.134-9.975a.267.267,0,0,0-.377,0L-3.216-4-3.5-1.466a.532.532,0,0,0,.588.588l2.538-.282L5.6-7.131a.267.267,0,0,0,0-.377Zm4.43-.626L6.229-11.936a1.069,1.069,0,0,0-1.509,0l-.968.968a.267.267,0,0,0,0,.377L6.218-8.124a.267.267,0,0,0,.377,0l.968-.968A1.069,1.069,0,0,0,7.563-10.6ZM2.625-2.784V0h-8.75V-8.75H.159a.336.336,0,0,0,.232-.1L1.485-9.939a.328.328,0,0,0-.232-.561H-6.562A1.313,1.313,0,0,0-7.875-9.187V.438A1.313,1.313,0,0,0-6.562,1.75H3.063A1.313,1.313,0,0,0,4.375.438V-3.877a.329.329,0,0,0-.561-.232L2.721-3.016A.336.336,0,0,0,2.625-2.784Z" transform="translate(7.875 12.247)"/>
</svg>
