<svg xmlns="http://www.w3.org/2000/svg" width="14.049" height="13.881" viewBox="0 0 14.049 13.881">
  <defs>
    <style>
      .cls-1 {
        fill: #7d7f7d;
      }
    </style>
  </defs>
  <g id="Hosts" transform="translate(1361.429 211.208)">
    <path id="Path_3906" data-name="Path 3906" class="cls-1" d="M-1361.429-199.42v-9.691c.014-.087.027-.174.042-.26a2.263,2.263,0,0,1,2.15-1.831c1.6-.008,3.192,0,4.788,0a2.021,2.021,0,0,1,.454.052,2.255,2.255,0,0,1,1.773,2.241q0,4.645,0,9.289a2.46,2.46,0,0,1-.071.588,2.258,2.258,0,0,1-2.208,1.706q-2.319,0-4.637,0c-.076,0-.153,0-.229-.011a2.267,2.267,0,0,1-1.971-1.634C-1361.381-199.118-1361.4-199.271-1361.429-199.42Zm4.595-5.014q1.3,0,2.609,0a.753.753,0,0,0,.794-.777q0-2.082,0-4.164a.716.716,0,0,0-.1-.382.765.765,0,0,0-.7-.376q-2.089,0-4.178,0c-.351,0-.7,0-1.053,0a.746.746,0,0,0-.757.768q0,2.078,0,4.157a.85.85,0,0,0,.041.26.748.748,0,0,0,.755.512Zm-.9,3.081a.907.907,0,0,0,.9.911.908.908,0,0,0,.908-.9.909.909,0,0,0-.9-.915A.907.907,0,0,0-1357.734-201.353Z"/>
    <path id="Path_3907" data-name="Path 3907" class="cls-1" d="M-1153.342-208.622v8.731c-.157.108-.314.217-.472.324a21.5,21.5,0,0,1-1.836,1.154c-.822.443-1.68.81-2.538,1.175-.107.045-.214.089-.324.134.134-.184.269-.357.391-.539a1.779,1.779,0,0,0,.325-.756,4.409,4.409,0,0,0,.022-.544q0-3.866,0-7.732c0-.982,0-1.964,0-2.945a1.21,1.21,0,0,0-.218-.713c-.072-.1-.147-.207-.228-.3s-.194-.214-.3-.328l.056.017c.3.107.6.212.9.321a19.618,19.618,0,0,1,2.929,1.276C-1154.2-209.11-1153.771-208.866-1153.342-208.622Z" transform="translate(-194.038 -0.231)"/>
    <path id="Path_3908" data-name="Path 3908" class="cls-1" d="M-1320.827-177.421q1.093,0,2.186,0a.751.751,0,0,1,.756.6.546.546,0,0,1,.016.121c0,.337.01.674-.008,1.01a.733.733,0,0,1-.728.682c-.492.005-.984,0-1.477,0h-2.925a.752.752,0,0,1-.771-.64.547.547,0,0,1-.007-.093c0-.315,0-.631,0-.946a.743.743,0,0,1,.734-.731c.741,0,1.481,0,2.222,0Z" transform="translate(-35.997 -32.309)"/>
    <path id="Path_3909" data-name="Path 3909" class="cls-1" d="M-1320.944-111.506q1.089,0,2.178,0a.75.75,0,0,1,.762.6,1.177,1.177,0,0,1,.019.242c0,.15,0,.3-.008.451a.751.751,0,0,1-.714.686h-4.421a.736.736,0,0,1-.762-.646,2.953,2.953,0,0,1,.005-.714.723.723,0,0,1,.72-.617c.74,0,1.481,0,2.221,0Z" transform="translate(-35.879 -95.342)"/>
  </g>
</svg>
