<svg xmlns="http://www.w3.org/2000/svg" width="59" height="44.25" viewBox="0 0 59 44.25">
  <defs>
    <style>
      .cls-1 {
        fill: #007bff;
      }
    </style>
  </defs>
  <path id="image_icon" data-name="image icon" class="cls-1" d="M53.469,0A5.531,5.531,0,0,0,59-5.531V-38.719a5.531,5.531,0,0,0-5.531-5.531H5.531A5.531,5.531,0,0,0,0-38.719V-5.531A5.531,5.531,0,0,0,5.531,0ZM12.906-37.8a6.453,6.453,0,0,1,6.453,6.453,6.453,6.453,0,0,1-6.453,6.453,6.453,6.453,0,0,1-6.453-6.453A6.453,6.453,0,0,1,12.906-37.8ZM7.375-7.375v-5.531l8.241-8.241a1.383,1.383,0,0,1,1.956,0l6.4,6.4L39.585-30.366a1.383,1.383,0,0,1,1.956,0L51.625-20.281V-7.375Z" transform="translate(0 44.25)"/>
</svg>
