<svg xmlns="http://www.w3.org/2000/svg" width="19" height="19" viewBox="0 0 19 19">
  <defs>
    <style>
      .cls-1 {
        fill: #7d7f7d;
      }
    </style>
  </defs>
  <path id="Instance_" data-name="Instance " class="cls-1" d="M.461-11.132,9.1-7.211a.95.95,0,0,0,.79,0l8.644-3.921a.829.829,0,0,0,0-1.485L9.9-16.539a.946.946,0,0,0-.394-.085.953.953,0,0,0-.4.085L.461-12.618A.829.829,0,0,0,.461-11.132ZM18.539-7.856l-2.156-.977-6,2.719a2.13,2.13,0,0,1-.885.192,2.131,2.131,0,0,1-.885-.192l-6-2.719L.461-7.856a.828.828,0,0,0,0,1.484L9.1-2.453a.953.953,0,0,0,.79,0l8.645-3.918A.828.828,0,0,0,18.539-7.856Zm0,4.743-2.148-.973L10.385-1.364a2.13,2.13,0,0,1-.885.192,2.131,2.131,0,0,1-.885-.192L2.608-4.087.461-3.113a.828.828,0,0,0,0,1.484L9.1,2.289a.953.953,0,0,0,.79,0l8.645-3.918A.828.828,0,0,0,18.539-3.113Z" transform="translate(0 16.625)"/>
</svg>
