<svg xmlns="http://www.w3.org/2000/svg" width="18.187" height="18" viewBox="0 0 18.187 18">
  <defs>
    <style>
      .cls-1 {
        fill: #7d7f7d;
      }
    </style>
  </defs>
  <path id="Inventories" class="cls-1" d="M-260.691-1969.425a1.521,1.521,0,0,0-1.573-1.591c-.233-.007-.466,0-.76,0,0-.691.022-1.335,0-1.978a2.037,2.037,0,0,0-1.711-1.978,4.742,4.742,0,0,0-.8-.033c-1.21,0-2.42,0-3.669,0v-2.287c.305,0,.555.005.8,0a1.507,1.507,0,0,0,1.6-1.563q.028-1.467,0-2.935a1.487,1.487,0,0,0-1.605-1.544q-1.373-.009-2.746,0a1.479,1.479,0,0,0-1.581,1.52q-.034,1.49,0,2.982a1.5,1.5,0,0,0,1.57,1.54c.263.008.526,0,.8,0v2.245a.525.525,0,0,1-.115.035q-1.822,0-3.645.007a2.127,2.127,0,0,0-2.4,2.419c0,.514,0,1.027,0,1.571-.28,0-.483,0-.687,0a1.535,1.535,0,0,0-1.642,1.666c0,.8-.008,1.61,0,2.415a1.51,1.51,0,0,0,1.573,1.585q1.065.014,2.13,0a1.508,1.508,0,0,0,1.578-1.534c.021-.867.018-1.736,0-2.6a1.419,1.419,0,0,0-.864-1.357,5.857,5.857,0,0,0-.93-.242c0-.655-.03-1.331.011-2a.78.78,0,0,1,.781-.758c1.4-.033,2.8-.013,4.216-.013v2.847c-.2,0-.367-.008-.536,0a1.516,1.516,0,0,0-1.508,1.514q-.032,1.325,0,2.651a1.5,1.5,0,0,0,1.518,1.5c.741.015,1.483.014,2.225,0a1.5,1.5,0,0,0,1.536-1.527q.026-1.3,0-2.6a1.516,1.516,0,0,0-1.49-1.53c-.182-.011-.365,0-.551,0v-2.853c1.4,0,2.773-.012,4.143.006a.86.86,0,0,1,.864.841c.03.643.007,1.289.007,1.962-1.218.156-1.772.622-1.8,1.548-.03.883-.028,1.768,0,2.651a1.5,1.5,0,0,0,1.556,1.508q1.089.016,2.178,0a1.5,1.5,0,0,0,1.544-1.564Q-260.677-1968.171-260.691-1969.425Zm-7.253-11.878c0,.331,0,.662,0,.993s-.005.662,0,.993c0-.331,0-.662,0-.993S-267.946-1980.973-267.944-1981.3Zm6.119,13.135c0,.236,0,.473,0,.709,0-.237,0-.473,0-.709s0-.473,0-.709c0-.094,0-.189,0-.283,0,.094,0,.189,0,.283C-261.83-1968.641-261.825-1968.4-261.825-1968.168Z" transform="translate(278.871 1983.343)"/>
</svg>
