<svg xmlns="http://www.w3.org/2000/svg" width="19.617" height="20.321" viewBox="0 0 19.617 20.321">
  <defs>
    <style>
      .cls-1 {
        fill: #7d7f7d;
      }
    </style>
  </defs>
  <g id="Jobs" transform="matrix(0.819, -0.574, 0.574, 0.819, -3.058, 7.987)">
    <path id="Path_3" data-name="Path 3" class="cls-1" d="M2.426,0c.124.034.249.065.371.1A2.14,2.14,0,1,1,1.748.037,1.035,1.035,0,0,0,1.87,0Z" transform="translate(7.039)"/>
    <path id="Path_4" data-name="Path 4" class="cls-1" d="M0,1.233c.013-.047.028-.093.04-.14a1.4,1.4,0,1,1,.005.647C.034,1.694.015,1.649,0,1.6Z" transform="translate(0 8.492)"/>
    <path id="Path_5" data-name="Path 5" class="cls-1" d="M2.473,0A2.475,2.475,0,1,1,0,2.48,2.478,2.478,0,0,1,2.473,0Z" transform="translate(12.182 2.251)"/>
    <path id="Path_6" data-name="Path 6" class="cls-1" d="M0,2.01A2.019,2.019,0,1,1,2.009,4.039,2.026,2.026,0,0,1,0,2.01Z" transform="translate(14.886 8.059)"/>
    <path id="Path_7" data-name="Path 7" class="cls-1" d="M0,1.781A1.779,1.779,0,1,1,1.765,3.56,1.773,1.773,0,0,1,0,1.781Z" transform="translate(1.888 2.634)"/>
    <path id="Path_8" data-name="Path 8" class="cls-1" d="M2.819,1.411A1.409,1.409,0,1,1,1.422,0,1.407,1.407,0,0,1,2.819,1.411Z" transform="translate(7.762 16.185)"/>
    <path id="Path_9" data-name="Path 9" class="cls-1" d="M2.816,1.412A1.408,1.408,0,1,1,1.406,0,1.4,1.4,0,0,1,2.816,1.412Z" transform="translate(13.155 13.907)"/>
    <path id="Path_10" data-name="Path 10" class="cls-1" d="M2.639,1.324A1.319,1.319,0,1,1,1.328,0,1.309,1.309,0,0,1,2.639,1.324Z" transform="translate(2.342 14.055)"/>
  </g>
</svg>
