<svg xmlns="http://www.w3.org/2000/svg" width="14" height="14" viewBox="0 0 14 14">
  <defs>
    <style>
      .cls-1 {
        fill: #484848;
      }
    </style>
  </defs>
  <path id="Launch" class="cls-1" d="M6.812-11.728a.472.472,0,0,0-.334-.333,9.918,9.918,0,0,0-2.256-.189c-2.823,0-4.515,1.509-5.779,3.5h-2.85a1.438,1.438,0,0,0-1.173.724l-1.352,2.7A.778.778,0,0,0-7-5.031a.657.657,0,0,0,.656.656h2.839l-.615.614a.891.891,0,0,0,0,1.237l1.392,1.392a.892.892,0,0,0,1.238,0l.615-.614V1.094a.657.657,0,0,0,.656.656.782.782,0,0,0,.293-.069L2.774.331A1.433,1.433,0,0,0,3.5-.841V-3.7C5.484-4.963,7-6.661,7-9.469A9.705,9.705,0,0,0,6.812-11.728ZM3.5-7.656A1.094,1.094,0,0,1,2.408-8.75,1.094,1.094,0,0,1,3.5-9.844,1.094,1.094,0,0,1,4.6-8.75,1.1,1.1,0,0,1,3.5-7.656Z" transform="translate(7 12.25)"/>
</svg>
