<svg xmlns="http://www.w3.org/2000/svg" width="19" height="16.032" viewBox="0 0 19 16.032">
  <defs>
    <style>
      .cls-1 {
        fill: #7d7f7d;
      }
    </style>
  </defs>
  <path id="Management_" data-name="Management " class="cls-1" d="M5.181-15.308a.444.444,0,0,0-.315-.131.444.444,0,0,0-.315.131L2.187-12.958l-.842-.821a.444.444,0,0,0-.315-.131.444.444,0,0,0-.315.131L.131-13.2A.444.444,0,0,0,0-12.88a.444.444,0,0,0,.131.316L1.9-10.806a.472.472,0,0,0,.327.131.473.473,0,0,0,.327-.131l.579-.58,2.679-2.679a.447.447,0,0,0,.131-.317.448.448,0,0,0-.128-.314Zm0,5.907a.444.444,0,0,0-.315-.131A.444.444,0,0,0,4.55-9.4L2.187-7.036l-.842-.82a.444.444,0,0,0-.315-.131.444.444,0,0,0-.315.131l-.583.582A.444.444,0,0,0,0-6.958a.444.444,0,0,0,.131.316L1.893-4.88a.472.472,0,0,0,.326.13.473.473,0,0,0,.327-.13l.583-.582,2.679-2.68a.444.444,0,0,0,.131-.315.444.444,0,0,0-.128-.312ZM2.375-2.969a1.8,1.8,0,0,0-1.8,1.781A1.8,1.8,0,0,0,2.375.594,1.782,1.782,0,0,0,4.156-1.187,1.782,1.782,0,0,0,2.375-2.969Zm16.031.594H7.719a.594.594,0,0,0-.594.594V-.594A.594.594,0,0,0,7.719,0H18.406A.594.594,0,0,0,19-.594V-1.781A.594.594,0,0,0,18.406-2.375Zm0-11.875H7.719a.594.594,0,0,0-.594.594v1.188a.594.594,0,0,0,.594.594H18.406A.594.594,0,0,0,19-12.469v-1.187A.594.594,0,0,0,18.406-14.25Zm0,5.938H7.719a.594.594,0,0,0-.594.594v1.188a.594.594,0,0,0,.594.594H18.406A.594.594,0,0,0,19-6.531V-7.719A.594.594,0,0,0,18.406-8.312Z" transform="translate(0 15.439)"/>
</svg>
