<svg xmlns="http://www.w3.org/2000/svg" width="24" height="24.792" viewBox="0 0 24 24.792">
  <defs>
    <style>
      .cls-1 {
        fill: #fff;
      }
    </style>
  </defs>
  <path id="Notifications_white" class="cls-1" d="M12,10.8a3.428,3.428,0,0,0,3.427-3.429H8.573A3.428,3.428,0,0,0,12,10.8Zm11.539-8.02C22.5,1.671,20.567,0,20.567-5.482a8.46,8.46,0,0,0-6.854-8.312,7.692,7.692,0,0,0-3.426,0A8.46,8.46,0,0,0,3.433-5.482C3.433,0,1.5,1.671.461,2.783A1.674,1.674,0,0,0,0,3.946,1.716,1.716,0,0,0,1.72,5.661H22.28A1.715,1.715,0,0,0,24,3.946,1.673,1.673,0,0,0,23.539,2.783Z" transform="translate(0 13.988)"/>
</svg>
