<svg xmlns="http://www.w3.org/2000/svg" width="28.828" height="30.864" viewBox="0 0 28.828 30.864">
  <defs>
    <style>
      .cls-1 {
        fill: #fff;
      }

      .cls-2 {
        fill: red;
      }

      .cls-3, .cls-4 {
        stroke: none;
      }

      .cls-4 {
        fill: #593cab;
      }
    </style>
  </defs>
  <g id="Notifications-red" transform="translate(-1208 -12.94)">
    <path id="Notifications_white" class="cls-1" d="M12,10.8a3.428,3.428,0,0,0,3.427-3.429H8.573A3.428,3.428,0,0,0,12,10.8Zm11.539-8.02C22.5,1.671,20.567,0,20.567-5.482a8.46,8.46,0,0,0-6.854-8.312,7.692,7.692,0,0,0-3.426,0A8.46,8.46,0,0,0,3.433-5.482C3.433,0,1.5,1.671.461,2.783A1.674,1.674,0,0,0,0,3.946,1.716,1.716,0,0,0,1.72,5.661H22.28A1.715,1.715,0,0,0,24,3.946,1.673,1.673,0,0,0,23.539,2.783Z" transform="translate(1208 33)"/>
    <g id="Path_3919" data-name="Path 3919" class="cls-2" transform="translate(1220.253 12.94)">
      <path class="cls-3" d="M 8.287540435791016 16.07508087158203 C 3.993480443954468 16.07508087158203 0.5000004172325134 12.58160018920898 0.5000004172325134 8.287540435791016 C 0.5000004172325134 3.993480443954468 3.993480443954468 0.5000004172325134 8.287540435791016 0.5000004172325134 C 12.58160018920898 0.5000004172325134 16.07508087158203 3.993480443954468 16.07508087158203 8.287540435791016 C 16.07508087158203 12.58160018920898 12.58160018920898 16.07508087158203 8.287540435791016 16.07508087158203 Z"/>
      <path class="cls-4" d="M 8.287540435791016 1 C 4.269180297851563 1 1 4.269180297851563 1 8.287540435791016 C 1 12.30590057373047 4.269180297851563 15.57508087158203 8.287540435791016 15.57508087158203 C 12.30590057373047 15.57508087158203 15.57508087158203 12.30590057373047 15.57508087158203 8.287540435791016 C 15.57508087158203 4.269180297851563 12.30590057373047 1 8.287540435791016 1 M 8.287540435791016 0 C 12.86462020874023 0 16.57508087158203 3.710460662841797 16.57508087158203 8.287540435791016 C 16.57508087158203 12.86462020874023 12.86462020874023 16.57508087158203 8.287540435791016 16.57508087158203 C 3.710460662841797 16.57508087158203 0 12.86462020874023 0 8.287540435791016 C 0 3.710460662841797 3.710460662841797 0 8.287540435791016 0 Z"/>
    </g>
  </g>
</svg>
