<svg xmlns="http://www.w3.org/2000/svg" width="16.625" height="19" viewBox="0 0 16.625 19">
  <defs>
    <style>
      .cls-1 {
        fill: #7d7f7d;
      }
    </style>
  </defs>
  <path id="Notifications" class="cls-1" d="M8.313,2.375A2.375,2.375,0,0,0,10.686,0H5.939A2.375,2.375,0,0,0,8.313,2.375Zm7.993-5.556c-.717-.77-2.058-1.929-2.058-5.726A5.86,5.86,0,0,0,9.5-14.664v-.773a1.187,1.187,0,0,0-1.187-1.187,1.187,1.187,0,0,0-1.187,1.188v.773A5.86,5.86,0,0,0,2.378-8.906c0,3.8-1.342,4.955-2.058,5.726A1.16,1.16,0,0,0,0-2.375,1.189,1.189,0,0,0,1.191-1.187H15.434a1.188,1.188,0,0,0,1.191-1.187A1.159,1.159,0,0,0,16.305-3.181Z" transform="translate(0 16.625)"/>
</svg>
