<svg xmlns="http://www.w3.org/2000/svg" width="21.25" height="17" viewBox="0 0 21.25 17">
  <defs>
    <style>
      .cls-1 {
        fill: #fff;
      }
    </style>
  </defs>
  <path id="Path_3956" data-name="Path 3956" class="cls-1" d="M10.625-1.594A4.763,4.763,0,0,1,5.88-6.013L2.4-8.705A11.064,11.064,0,0,0,1.178-6.859a1.069,1.069,0,0,0-.115.484,1.077,1.077,0,0,0,.115.486A10.649,10.649,0,0,0,10.625,0a10.313,10.313,0,0,0,2.586-.347L11.488-1.68A4.767,4.767,0,0,1,10.625-1.594ZM21.045.335,17.374-2.5a10.958,10.958,0,0,0,2.7-3.389,1.069,1.069,0,0,0,.115-.484,1.077,1.077,0,0,0-.115-.486,10.649,10.649,0,0,0-9.447-5.89A10.226,10.226,0,0,0,5.734-11.5L1.509-14.763a.529.529,0,0,0-.326-.112.53.53,0,0,0-.42.205l-.652.839A.529.529,0,0,0,0-13.505a.53.53,0,0,0,.2.42l19.535,15.1a.532.532,0,0,0,.746-.093l.652-.839a.532.532,0,0,0-.094-.745Zm-6.1-4.715-1.3-1.009a3.146,3.146,0,0,0,.173-.987q0-.021,0-.042a3.148,3.148,0,0,0-3.146-3.146,3.141,3.141,0,0,0-.882.127,1.58,1.58,0,0,1,.309.937,1.55,1.55,0,0,1-.051.332L7.6-10.057a4.714,4.714,0,0,1,3.026-1.1h0a4.781,4.781,0,0,1,4.779,4.779v0a4.668,4.668,0,0,1-.462,2Z" transform="translate(0 14.875)"/>
</svg>
