<svg xmlns="http://www.w3.org/2000/svg" width="21.375" height="14.25" viewBox="0 0 21.375 14.25">
  <defs>
    <style>
      .cls-1 {
        fill: #7d7f7d;
      }
    </style>
  </defs>
  <path id="Projects" class="cls-1" d="M21.252-5.786a.891.891,0,0,0-.769-1.339H5.641A2.37,2.37,0,0,0,3.589-5.947L.9-1.339A.891.891,0,0,0,1.671,0H16.513a2.37,2.37,0,0,0,2.051-1.178ZM5.641-8.312H17.813v-1.781a1.781,1.781,0,0,0-1.781-1.781H10.094L7.719-14.25H1.781A1.781,1.781,0,0,0,0-12.469V-2.151L2.563-6.545A3.575,3.575,0,0,1,5.641-8.312Z" transform="translate(0 14.25)"/>
</svg>
