<svg xmlns="http://www.w3.org/2000/svg" width="16.625" height="19" viewBox="0 0 16.625 19">
  <defs>
    <style>
      .cls-1 {
        fill: #7d7f7d;
      }
    </style>
  </defs>
  <path id="Schedules" class="cls-1" d="M0,.594A1.782,1.782,0,0,0,1.781,2.375H14.844A1.782,1.782,0,0,0,16.625.594V-9.5H0ZM11.875-6.68a.447.447,0,0,1,.445-.445H13.8a.447.447,0,0,1,.445.445V-5.2a.447.447,0,0,1-.445.445H12.32a.447.447,0,0,1-.445-.445Zm0,4.75a.447.447,0,0,1,.445-.445H13.8a.447.447,0,0,1,.445.445V-.445A.447.447,0,0,1,13.8,0H12.32a.447.447,0,0,1-.445-.445ZM7.125-6.68a.447.447,0,0,1,.445-.445H9.055A.447.447,0,0,1,9.5-6.68V-5.2a.447.447,0,0,1-.445.445H7.57A.447.447,0,0,1,7.125-5.2Zm0,4.75a.447.447,0,0,1,.445-.445H9.055A.447.447,0,0,1,9.5-1.93V-.445A.447.447,0,0,1,9.055,0H7.57a.447.447,0,0,1-.445-.445ZM2.375-6.68a.447.447,0,0,1,.445-.445H4.3a.447.447,0,0,1,.445.445V-5.2A.447.447,0,0,1,4.3-4.75H2.82A.447.447,0,0,1,2.375-5.2Zm0,4.75a.447.447,0,0,1,.445-.445H4.3a.447.447,0,0,1,.445.445V-.445A.447.447,0,0,1,4.3,0H2.82a.447.447,0,0,1-.445-.445ZM14.844-14.25H13.063v-1.781a.6.6,0,0,0-.594-.594H11.281a.6.6,0,0,0-.594.594v1.781H5.938v-1.781a.6.6,0,0,0-.594-.594H4.156a.6.6,0,0,0-.594.594v1.781H1.781A1.782,1.782,0,0,0,0-12.469v1.781H16.625v-1.781A1.782,1.782,0,0,0,14.844-14.25Z" transform="translate(0 16.625)"/>
</svg>
