<svg xmlns="http://www.w3.org/2000/svg" width="19.001" height="19.002" viewBox="0 0 19.001 19.002">
  <defs>
    <style>
      .cls-1 {
        fill: #7d7f7d;
      }
    </style>
  </defs>
  <path id="Settings" class="cls-1" d="M18.6-1.941,14.25-6.286A2.755,2.755,0,0,0,11.081-6.8L7.125-10.758v-2.3l-4.75-3.562L0-14.25,3.563-9.5h2.3L9.823-5.544a2.761,2.761,0,0,0,.516,3.169L14.684,1.97a1.38,1.38,0,0,0,1.956,0L18.6.015A1.386,1.386,0,0,0,18.6-1.941ZM12.309-8.275a3.9,3.9,0,0,1,2.779,1.15l.72.72A5.253,5.253,0,0,0,17.434-7.5a5.337,5.337,0,0,0,1.406-5.073.444.444,0,0,0-.746-.2l-2.761,2.761-2.52-.419-.419-2.52,2.761-2.761a.448.448,0,0,0-.212-.75,5.346,5.346,0,0,0-5.069,1.406,5.259,5.259,0,0,0-1.529,3.845l3.047,3.047A4.042,4.042,0,0,1,12.309-8.275ZM8.454-5.232l-2.1-2.1L.694-1.677a2.374,2.374,0,0,0,0,3.358,2.374,2.374,0,0,0,3.358,0L8.639-2.906A3.985,3.985,0,0,1,8.454-5.232ZM2.375.891A.893.893,0,0,1,1.484,0a.888.888,0,0,1,.891-.891A.888.888,0,0,1,3.266,0,.891.891,0,0,1,2.375.891Z" transform="translate(0.002 16.625)"/>
</svg>
