<svg xmlns="http://www.w3.org/2000/svg" width="18.406" height="18.406" viewBox="0 0 18.406 18.406">
  <defs>
    <style>
      .cls-1 {
        fill: #593cab;
      }
    </style>
  </defs>
  <path id="Time" class="cls-1" d="M0-16.328a9.2,9.2,0,0,0-9.2,9.2A9.2,9.2,0,0,0,0,2.078a9.2,9.2,0,0,0,9.2-9.2A9.2,9.2,0,0,0,0-16.328ZM3.432-4.713h0l-.742.928a.593.593,0,0,1-.464.223.592.592,0,0,1-.371-.131h0L-.631-5.537A1.48,1.48,0,0,1-1.187-6.7v-5.772a.594.594,0,0,1,.594-.594H.594a.594.594,0,0,1,.594.594v5.344L3.34-5.548a.593.593,0,0,1,.223.464A.592.592,0,0,1,3.432-4.713Z" transform="translate(9.203 16.328)"/>
</svg>
