<svg xmlns="http://www.w3.org/2000/svg" width="20.249" height="13.5" viewBox="0 0 20.249 13.5">
  <defs>
    <style>
      .cls-1 {
        fill: #646972;
      }
    </style>
  </defs>
  <path id="view" class="cls-1" d="M20.128-7.263a11.276,11.276,0,0,0-10-6.237,11.278,11.278,0,0,0-10,6.237A1.131,1.131,0,0,0,0-6.751a1.141,1.141,0,0,0,.122.514A11.276,11.276,0,0,0,10.125,0a11.278,11.278,0,0,0,10-6.237,1.131,1.131,0,0,0,.122-.512A1.141,1.141,0,0,0,20.128-7.263Zm-10,5.576A5.065,5.065,0,0,1,5.063-6.75a5.065,5.065,0,0,1,5.063-5.062A5.065,5.065,0,0,1,15.188-6.75v0a5.062,5.062,0,0,1-5.06,5.06Zm0-8.437a3.347,3.347,0,0,0-.89.133,1.674,1.674,0,0,1,.326,1A1.683,1.683,0,0,1,7.879-7.314a1.676,1.676,0,0,1-1-.326,3.367,3.367,0,0,0-.117.883A3.369,3.369,0,0,0,10.133-3.39,3.369,3.369,0,0,0,13.5-6.757a3.369,3.369,0,0,0-3.367-3.367Z" transform="translate(-0.001 13.5)"/>
</svg>
