<svg xmlns="http://www.w3.org/2000/svg" width="30.331" height="30.335" viewBox="0 0 30.331 30.335">
  <defs>
    <style>
      .cls-1 {
        fill: #7d7f7d;
      }
    </style>
  </defs>
  <g id="Workflow_" data-name="Workflow " transform="translate(-456.048 -156.642)">
    <path id="Path_3920" data-name="Path 3920" class="cls-1" d="M600.575,391.434c-.713-.489-1.5-.869-2.229-1.335a5.028,5.028,0,0,1-1.067-.88.826.826,0,0,1-.079-1.055,5.272,5.272,0,0,0,1.158-3.069,2.74,2.74,0,0,0-1.4-2.846,3.5,3.5,0,0,0-2.1-.373,2.74,2.74,0,0,0-2.581,2.425,5.142,5.142,0,0,0,1.054,3.732.726.726,0,0,1,.177.3,1.235,1.235,0,0,1-.421,1.2,7.316,7.316,0,0,1-.88.6c-.6.353-1.238.659-1.831,1.031a2.626,2.626,0,0,0-1.346,2.477c.038.89.007,1.782.008,2.673,0,.539.195.814.574.811s.554-.264.554-.822c0-.869.03-1.739-.009-2.606a1.66,1.66,0,0,1,.9-1.626c.6-.347,1.2-.675,1.816-.991a.468.468,0,0,1,.362.02c.461.221.92.45,1.362.706a.713.713,0,0,1,.309.387c.247.924.449,1.86.707,2.781a.532.532,0,0,1-.289.7.5.5,0,0,1-.282-.732,1.008,1.008,0,0,0,.07-.257.58.58,0,0,0-.393-.712.588.588,0,0,0-.729.42c-.1.307-.183.619-.26.931a.636.636,0,0,0,.194.667c.327.3.639.621.965.925a.575.575,0,0,0,.906-.022c.287-.28.558-.577.856-.845a.754.754,0,0,0,.22-.843c-.277-1.03-.533-2.067-.809-3.1a.3.3,0,0,1,.182-.422c.391-.187.769-.4,1.158-.593a.4.4,0,0,1,.3-.04c.7.382,1.41.76,2.09,1.181a1.429,1.429,0,0,1,.668,1.337c-.019.969,0,1.938-.006,2.907a.564.564,0,0,0,.37.606c.4.146.755-.136.758-.616.006-.991-.01-1.983.006-2.974A2.325,2.325,0,0,0,600.575,391.434Zm-5.581-2.995a.6.6,0,0,0,.741.489l.15-.016.62,1.36c-.344.179-.7.373-1.072.554a.279.279,0,0,1-.216,0c-.378-.184-.75-.379-1.154-.587.078-.117.135-.208.2-.294a2.953,2.953,0,0,0,.36-2.118.714.714,0,0,0-.233-.352,3.817,3.817,0,0,1-.972-3.049c.049-.775.643-1.267,1.544-1.411a2.286,2.286,0,0,1,1.367.19,1.463,1.463,0,0,1,.9,1.373,4.787,4.787,0,0,1-.509,2.289,1.628,1.628,0,0,1-1.185.934A.574.574,0,0,0,594.994,388.439Z" transform="translate(-124.09 -210.16)"/>
    <path id="Path_3921" data-name="Path 3921" class="cls-1" d="M465.527,391.022a.7.7,0,0,0,.17-.556c-.017-.141-.2-.28-.329-.385-.312-.248-.667-.446-.955-.718a1.089,1.089,0,0,1-.211-1.23,5.175,5.175,0,0,0,1.169-2.994,2.769,2.769,0,0,0-.975-2.631,3.36,3.36,0,0,0-2.581-.655,2.722,2.722,0,0,0-2.525,2.477,5.178,5.178,0,0,0,1.077,3.693.641.641,0,0,1,.162.277,1.228,1.228,0,0,1-.389,1.182,7.181,7.181,0,0,1-.9.625c-.6.355-1.237.661-1.83,1.031a2.65,2.65,0,0,0-1.358,2.5c.037.912.007,1.826.008,2.739,0,.452.208.719.56.727s.568-.254.569-.707c0-.9.033-1.805-.009-2.705a1.678,1.678,0,0,1,.908-1.652c.6-.345,1.2-.671,1.816-.989a.427.427,0,0,1,.333.018c.449.219.9.444,1.328.7a.774.774,0,0,1,.33.409c.254.91.46,1.834.72,2.741a.533.533,0,0,1-.284.73c-.4-.266-.4-.266-.278-.7.027-.1.058-.192.075-.291a.575.575,0,0,0-.393-.711.588.588,0,0,0-.729.421c-.1.307-.182.618-.26.931a.642.642,0,0,0,.193.667c.315.3.613.615.925.917a.571.571,0,0,0,.883.016c.319-.295.618-.611.941-.9a.705.705,0,0,0,.208-.785c-.095-.343-.187-.686-.278-1.03-.211-.791-.421-1.582-.633-2.381.453-.236.882-.447,1.3-.679a.63.63,0,0,1,.646-.029A.687.687,0,0,0,465.527,391.022ZM462,388.459c.058.322.336.488.743.443.066-.007.131-.019.209-.03a6.69,6.69,0,0,0,.238.688,7.157,7.157,0,0,0,.392.648c-.408.208-.815.42-1.227.622a.215.215,0,0,1-.156-.031c-.364-.187-.725-.379-1.115-.584.078-.115.136-.206.2-.292a2.925,2.925,0,0,0,.363-2.117c-.012-.132-.152-.263-.254-.376a3.85,3.85,0,0,1-.922-3.222,1.541,1.541,0,0,1,1.53-1.215,3.319,3.319,0,0,1,1.3.194,1.463,1.463,0,0,1,.958,1.56,4.8,4.8,0,0,1-.54,2.114,1.675,1.675,0,0,1-1.17.909C462.121,387.849,461.934,388.1,462,388.459Z" transform="translate(0 -210.131)"/>
    <path id="Path_3922" data-name="Path 3922" class="cls-1" d="M774.647,393.748a2.316,2.316,0,0,0-1-2.045c-.7-.484-1.478-.86-2.2-1.321a5.648,5.648,0,0,1-1.1-.892.83.83,0,0,1-.095-1.055,5.453,5.453,0,0,0,1.161-3,2.761,2.761,0,0,0-2.06-3.186,4.628,4.628,0,0,0-1.42-.105,2.71,2.71,0,0,0-2.6,2.4,5.077,5.077,0,0,0,.98,3.623,1.11,1.11,0,0,1-.069,1.522,6.619,6.619,0,0,1-.943.681.583.583,0,0,0-.28.79c.158.309.46.371.833.218a.628.628,0,0,1,.45,0,14.406,14.406,0,0,1,1.333.689.762.762,0,0,1,.325.412c.246.913.445,1.838.7,2.749a.516.516,0,0,1-.283.706.5.5,0,0,1-.278-.711,1.255,1.255,0,0,0,.067-.292.587.587,0,0,0-.415-.7.6.6,0,0,0-.713.452c-.081.289-.13.587-.218.873a.638.638,0,0,0,.183.7c.309.305.612.617.924.919a.576.576,0,0,0,.906,0c.3-.286.575-.591.879-.869a.737.737,0,0,0,.213-.815c-.275-1.031-.533-2.067-.809-3.1-.058-.217-.029-.344.19-.447.393-.183.768-.4,1.158-.593a.391.391,0,0,1,.3-.026c.676.363,1.354.724,2.009,1.123a1.513,1.513,0,0,1,.736,1.439c-.026.946,0,1.894-.009,2.841a.588.588,0,0,0,.323.607.569.569,0,0,0,.806-.581C774.649,395.753,774.635,394.751,774.647,393.748Zm-6.586-5.038c.054.342.341.523.752.473l.178-.023a6.845,6.845,0,0,0,.234.69,7.446,7.446,0,0,0,.385.659c-.382.2-.752.4-1.127.582a.28.28,0,0,1-.216-.01c-.377-.186-.748-.383-1.186-.609a2.442,2.442,0,0,0,.626-2.119,1.137,1.137,0,0,0-.27-.644,3.873,3.873,0,0,1-.969-2.961,1.557,1.557,0,0,1,1.564-1.458,3.2,3.2,0,0,1,1.33.182,1.381,1.381,0,0,1,.931,1.409,4.79,4.79,0,0,1-.515,2.256,1.631,1.631,0,0,1-1.159.92C768.217,388.133,768.01,388.388,768.061,388.71Z" transform="translate(-288.268 -210.418)"/>
    <path id="Path_3923" data-name="Path 3923" class="cls-1" d="M735.648,166.471a5.81,5.81,0,1,0,9.7-6.387.587.587,0,0,0-.646-.3c-.462.1-.6.516-.3.962a4.653,4.653,0,1,1-8.4,1.566,4.676,4.676,0,0,1,7.123-2.825c.4.257.717.241.908-.047.23-.346.144-.633-.273-.916a6,6,0,0,0-3.549-.966,5.624,5.624,0,0,0-4.845,3.147A5.361,5.361,0,0,0,735.648,166.471Z" transform="translate(-259.99 -0.853)"/>
    <path id="Path_3924" data-name="Path 3924" class="cls-1" d="M596.65,166.548a5.868,5.868,0,0,0,6.333,2.53,5.4,5.4,0,0,0,2.2-1.08.575.575,0,0,0-.674-.931c-.094.059-.18.131-.271.195a4.7,4.7,0,0,1-5.28.026,4.633,4.633,0,0,1-1.945-4.842,4.682,4.682,0,0,1,7.12-2.884c.411.268.745.251.934-.049.211-.334.114-.64-.3-.915a5.68,5.68,0,0,0-3.713-.926,5.963,5.963,0,0,0-5.327,6.2A5.3,5.3,0,0,0,596.65,166.548Z" transform="translate(-130.342 -0.94)"/>
    <path id="Path_3925" data-name="Path 3925" class="cls-1" d="M463.044,168.212a5.66,5.66,0,0,0,2.6-1.148.558.558,0,0,0,.113-.825.546.546,0,0,0-.771-.117c-.1.057-.18.131-.274.191a4.538,4.538,0,0,1-5.1.14,4.4,4.4,0,0,1-2.189-4.541,4.66,4.66,0,0,1,7.2-3.284c.392.256.723.242.913-.039.221-.326.123-.65-.274-.921a6.277,6.277,0,0,0-3.22-1.027c-.556.1-1.122.162-1.665.309a5.8,5.8,0,0,0,2.678,11.261Z" transform="translate(-0.147)"/>
    <path id="Path_3926" data-name="Path 3926" class="cls-1" d="M490.429,554.293a.566.566,0,0,0-.559.617c-.008.423,0,.846,0,1.269h0c0,.423-.007.846,0,1.269a.555.555,0,0,0,.539.6.567.567,0,0,0,.584-.6q.014-1.269,0-2.538A.58.58,0,0,0,490.429,554.293Z" transform="translate(-31.558 -371.072)"/>
    <path id="Path_3927" data-name="Path 3927" class="cls-1" d="M623.367,554.3a.567.567,0,0,0-.549.626c-.008.412,0,.824,0,1.235s-.006.846,0,1.269a.561.561,0,0,0,.551.622.58.58,0,0,0,.576-.641q.01-1.236,0-2.471A.586.586,0,0,0,623.367,554.3Z" transform="translate(-155.619 -371.077)"/>
    <path id="Path_3928" data-name="Path 3928" class="cls-1" d="M727.307,554.907a.562.562,0,0,0-.562-.612.574.574,0,0,0-.562.589q-.016,1.285,0,2.571a.566.566,0,0,0,.589.593.557.557,0,0,0,.535-.6c.009-.423,0-.846,0-1.269S727.316,555.33,727.307,554.907Z" transform="translate(-252.071 -371.074)"/>
    <path id="Path_3929" data-name="Path 3929" class="cls-1" d="M860.47,554.3a.557.557,0,0,0-.555.585c-.009.423,0,.846,0,1.269s-.006.868,0,1.3a.555.555,0,0,0,.54.6.567.567,0,0,0,.581-.6q.014-1.285,0-2.571A.57.57,0,0,0,860.47,554.3Z" transform="translate(-376.868 -371.075)"/>
    <path id="Path_3930" data-name="Path 3930" class="cls-1" d="M503.981,219.8l-.663.663,1.408,1.408,2.8-2.808-.663-.663-2.143,2.143Z" transform="translate(-44.111 -57.63)"/>
    <path id="Path_3931" data-name="Path 3931" class="cls-1" d="M641.405,219.8l-.663.663,1.408,1.408,2.8-2.808-.663-.663-2.143,2.143Z" transform="translate(-172.349 -57.63)"/>
    <path id="Path_3932" data-name="Path 3932" class="cls-1" d="M791.288,219.8l-.663.663,1.408,1.408,2.8-2.808-.663-.663-2.143,2.143Z" transform="translate(-312.214 -57.63)"/>
  </g>
</svg>
