<svg xmlns="http://www.w3.org/2000/svg" width="17.999" height="18.002" viewBox="0 0 17.999 18.002">
  <defs>
    <style>
      .cls-1 {
        fill: #646972;
        opacity: 0.6;
      }
    </style>
  </defs>
  <path id="zoom" class="cls-1" d="M17.754-.186,14.249-3.691a.843.843,0,0,0-.6-.246h-.573a7.277,7.277,0,0,0,1.547-4.5A7.311,7.311,0,0,0,7.313-15.75,7.311,7.311,0,0,0,0-8.437,7.311,7.311,0,0,0,7.313-1.125a7.277,7.277,0,0,0,4.5-1.547V-2.1a.843.843,0,0,0,.246.6L15.564,2a.84.84,0,0,0,1.192,0l.995-.995A.848.848,0,0,0,17.754-.186ZM7.313-3.937a4.5,4.5,0,0,1-4.5-4.5,4.5,4.5,0,0,1,4.5-4.5,4.5,4.5,0,0,1,4.5,4.5A4.5,4.5,0,0,1,7.313-3.937Z" transform="translate(0 15.75)"/>
</svg>
