<svg xmlns="http://www.w3.org/2000/svg" width="20" height="20" viewBox="0 0 20 20"><defs><style>.a{fill:#7d7f7d;fill-rule:evenodd;}.b{fill:none;stroke:#fff;stroke-linecap:round;stroke-width:1.5px;}</style></defs><g transform="translate(-10 0)"><g transform="translate(-290 -1679)"><g transform="translate(56 160)"><path class="a" d="M262.005,1523h-6.764a2,2,0,0,1-1.79-1.1l-.893-1.789a2,2,0,0,0-1.79-1.106h-4.763a2,2,0,0,0-2.005,2v16a2,2,0,0,0,2.005,2h16a2,2,0,0,0,1.995-2v-12a2,2,0,0,0-1.995-2Z"/></g><g transform="translate(300 1680.098)"><line class="b" x2="7.75" transform="translate(6.964 7.964) rotate(45)"/><line class="b" x2="7.75" transform="translate(12.445 7.964) rotate(135)"/></g></g></g></svg>