<svg xmlns="http://www.w3.org/2000/svg" width="13.066" height="16.282" viewBox="0 0 13.066 16.282"><defs><style>.a{fill:#484848;}</style></defs><path class="a" d="M16.246,16.706H4.816a.816.816,0,1,0,0,1.633h11.43a.816.816,0,0,0,0-1.633ZM4.816,15.074h.073l3.4-.31a1.633,1.633,0,0,0,.988-.465L16.629,6.95a1.568,1.568,0,0,0-.057-2.213L14.335,2.5a1.633,1.633,0,0,0-2.172-.057L4.816,9.791a1.633,1.633,0,0,0-.465.988L4,14.184a.814.814,0,0,0,.816.89ZM13.2,3.643l2.229,2.229L13.8,7.464,11.608,5.276Z" transform="translate(-3.996 -2.058)"/></svg>