<svg xmlns="http://www.w3.org/2000/svg" width="14" height="14" viewBox="0 0 14 14"><defs><style>.a{fill:#f5187e;fill-rule:evenodd;}</style></defs><path class="a" d="M3.231,0A3.224,3.224,0,0,0,0,3.231v7.538A3.224,3.224,0,0,0,3.231,14h7.538A3.224,3.224,0,0,0,14,10.769V3.231A3.224,3.224,0,0,0,10.769,0ZM7,3.229a.269.269,0,0,1,.19.089L9.623,6.012a.269.269,0,0,1-.2.449H8.077V10.5a.269.269,0,0,1-.269.269H6.194a.269.269,0,0,1-.269-.268l0-4.04H4.577a.269.269,0,0,1-.2-.448L6.793,3.319a.274.274,0,0,1,.184-.089H7Z"/></svg>