<svg xmlns="http://www.w3.org/2000/svg" width="20" height="20" viewBox="0 0 20 20"><defs><style>.a{fill:#7d7f7d;}.b{fill:#fff;}</style></defs><g transform="translate(-750 -207)"><path class="a" d="M21,7.54H16.46V3a1,1,0,0,0-1-1H3A1,1,0,0,0,2,3V15.46a1,1,0,0,0,1,1H7.54V21a1,1,0,0,0,1,1H21a1,1,0,0,0,1-1V8.54A1,1,0,0,0,21,7.54Z" transform="translate(748 205)"/><path class="b" d="M10.907,8.54H9.723A1.183,1.183,0,0,0,8.54,9.723v1.183c0,.654.23,1.071.884,1.071s.725-1.071.725-1.725c.654,0,1.939.051,1.941-.655A1.052,1.052,0,0,0,10.907,8.54Zm5.306,5.006c-.654,0-.653,1.316-.653,1.969-.654,0-1.9-.1-1.9.549A.969.969,0,0,0,14.729,17.1h1.183A1.183,1.183,0,0,0,17.1,15.913V14.729c0-.654-.23-1.183-.884-1.183Z" transform="translate(747.364 204.364)"/></g></svg>