<svg xmlns="http://www.w3.org/2000/svg" width="26.258" height="20.508" viewBox="0 0 26.258 20.508"><defs><style>.a{fill:#7d7f7d;}.b{fill:#fff;stroke:#7d7f7d;stroke-width:0.5px;}</style></defs><g transform="translate(-437.89 -844.343)"><path class="a" d="M445.413,864.6c-.276.114-.482.209-.7.284a.518.518,0,0,1-.241-.006,4.187,4.187,0,0,0-.637-.115c-1.434-.011-2.869-.009-4.3-.007a.884.884,0,0,0-.98.723,1.225,1.225,0,0,0-.016.234q0,5.974,0,11.948a.276.276,0,0,0,.051.172c.031-.072.067-.143.093-.218q1.517-4.379,3.033-8.759c.01-.03.022-.059.032-.088.3-.841.545-.986,1.443-.981,2.289.013,4.577.006,6.866.005q4.068,0,8.136,0a.956.956,0,0,1,.955,1.387q-1.7,4.552-3.4,9.1a1.565,1.565,0,0,1-1.565,1.083H439.513a1.525,1.525,0,0,1-1.622-1.616q0-6.009,0-12.018a1.523,1.523,0,0,1,1.631-1.632q2.269,0,4.538,0A3.435,3.435,0,0,1,445.413,864.6Z" transform="translate(0 -14.515)"/><path class="b" d="M475.563,849.729a2.564,2.564,0,0,1,3.21.271,3.17,3.17,0,0,1,.786,1.332.725.725,0,0,0,.645.6,3.976,3.976,0,0,1,3.018,4.513,4.025,4.025,0,0,1-3.858,2.83q-6.217.056-12.435,0a4.02,4.02,0,0,1-3.86-2.828,3.9,3.9,0,0,1,2.069-4.22.811.811,0,0,0,.522-.748,5.092,5.092,0,0,1,3.914-4.629,5.209,5.209,0,0,1,5.745,2.491C475.393,849.464,475.47,849.582,475.563,849.729Z" transform="translate(-19.411 -2.088)"/></g></svg>