<svg xmlns="http://www.w3.org/2000/svg" width="19.2" height="24" viewBox="0 0 19.2 24"><defs><style>.a{fill:#7d7f7d;}</style></defs><path class="a" d="M6.4,2A2.4,2.4,0,0,0,4,4.4V6.8A1.2,1.2,0,0,0,5.2,8H22a1.2,1.2,0,0,0,1.2-1.2V4.4A2.4,2.4,0,0,0,20.8,2ZM5.2,10.4A1.2,1.2,0,0,0,4,11.6v4.8a1.2,1.2,0,0,0,1.2,1.2H22a1.2,1.2,0,0,0,1.2-1.2V11.6A1.2,1.2,0,0,0,22,10.4Zm0,9.6A1.2,1.2,0,0,0,4,21.2v2.4A2.4,2.4,0,0,0,6.4,26H20.8a2.4,2.4,0,0,0,2.4-2.4V21.2A1.2,1.2,0,0,0,22,20Z" transform="translate(-4 -2)"/></svg>