<svg xmlns="http://www.w3.org/2000/svg" width="27.789" height="24" viewBox="0 0 27.789 24"><defs><style>.a{fill:#7d7f7d;}</style></defs><path class="a" d="M14.895,2a1.263,1.263,0,0,0-.9.375L1.257,13.492a.632.632,0,0,0,.375,1.14H4.789V24.737A1.264,1.264,0,0,0,6.053,26h5.053a1.264,1.264,0,0,0,1.263-1.263V17.158h5.053v7.579A1.264,1.264,0,0,0,18.684,26h5.053A1.264,1.264,0,0,0,25,24.737V14.632h3.158a.632.632,0,0,0,.375-1.14L15.8,2.382l-.007-.007A1.263,1.263,0,0,0,14.895,2Z" transform="translate(-1 -2)"/></svg>