<svg xmlns="http://www.w3.org/2000/svg" width="30" height="30" viewBox="0 0 30 30"><defs><style>.a{fill:#f5187e;}</style></defs><path class="a" d="M0,241H3.574v1.758H0Zm0,0" transform="translate(0 -226.879)"/><path class="a" d="M451,241h3.574v1.758H451Zm0,0" transform="translate(-424.574 -226.879)"/><path class="a" d="M383.277,67.576l2.486-2.486,1.243,1.243-2.486,2.486Zm0,0" transform="translate(-360.82 -61.276)"/><path class="a" d="M67.572,68.814l-2.486-2.486,1.243-1.243,2.486,2.486Zm0,0" transform="translate(-61.272 -61.272)"/><path class="a" d="M241,0h1.758V3.574H241Zm0,0" transform="translate(-226.879)"/><path class="a" d="M92.758,452A1.758,1.758,0,0,0,91,453.758v1.758h19.336v-1.758A1.758,1.758,0,0,0,108.578,452Zm0,0" transform="translate(-85.668 -425.516)"/><path class="a" d="M121,128.91v9.727h15.82V128.91a7.91,7.91,0,0,0-15.82,0Zm7.031-2.637h1.758v5.273h-1.758Zm0,7.031h1.758v1.758h-1.758Zm0,0" transform="translate(-113.91 -113.91)"/></svg>