<svg xmlns="http://www.w3.org/2000/svg" width="24" height="22.639" viewBox="0 0 24 22.639"><defs><style>.a{fill:#ec8942;}</style></defs><path class="a" d="M23.514,31.867,15.026,16.241a3.52,3.52,0,0,0-6.053,0l-.014.025L.5,31.842a3.518,3.518,0,0,0,3.026,5.316h16.9a3.556,3.556,0,0,0,3.106-1.779A3.469,3.469,0,0,0,23.514,31.867ZM10.592,21.674a1.408,1.408,0,0,1,2.815,0V27.3a1.408,1.408,0,1,1-2.815,0V21.674ZM12,34.343a2.112,2.112,0,1,1,2.111-2.112A2.114,2.114,0,0,1,12,34.343Z" transform="translate(-0.001 -14.519)"/></svg>