<svg xmlns="http://www.w3.org/2000/svg" width="24.003" height="32.923" viewBox="0 0 24.003 32.923"><defs><style>.a{fill:#7d7f7d;}</style></defs><g transform="translate(-21.366 -5.5)"><g transform="translate(21.366 5.5)"><circle class="a" cx="5.885" cy="5.885" r="5.885" transform="translate(3.058)"/><path class="a" d="M32.549,43.762a6.22,6.22,0,0,0-4.12-4.362,7.917,7.917,0,0,1-4.12,1.142A7.794,7.794,0,0,1,20.224,39.4a6.267,6.267,0,0,0-4.293,5.193l-.554,4.674a1.726,1.726,0,0,0,1.35,1.9,37.537,37.537,0,0,0,6.924.727A8.93,8.93,0,0,1,32.549,43.762Z" transform="translate(-15.366 -26.626)"/><path class="a" d="M52.12,58.2a6.82,6.82,0,1,0,6.82,6.82A6.811,6.811,0,0,0,52.12,58.2Zm2.735,7.858H52.12a1.079,1.079,0,0,1-1.073-1.073V61.523a1.073,1.073,0,0,1,2.146,0v2.389h1.662a1.073,1.073,0,1,1,0,2.146Z" transform="translate(-34.937 -38.917)"/></g></g></svg>