<svg xmlns="http://www.w3.org/2000/svg" width="20" height="20" viewBox="0 0 20 20"><defs><style>.a{fill:none;}.b{fill:#5d5d5d;}</style></defs><path class="a" d="M0,0H20V20H0Z"/><path class="b" d="M3,2.833v8.333A.836.836,0,0,0,3.833,12H5.5v5.958a.415.415,0,0,0,.775.208L10.6,10.75A.829.829,0,0,0,9.883,9.5H8l2.817-6.325A.839.839,0,0,0,10.05,2H3.833A.836.836,0,0,0,3,2.833ZM15.5,2a1.2,1.2,0,0,0-1.117.783L12.35,8.5a.752.752,0,0,0,.708,1,.736.736,0,0,0,.7-.5l.408-1.167h2.667L17.242,9a.742.742,0,1,0,1.4-.492L16.608,2.792A1.174,1.174,0,0,0,15.5,2Zm-.958,4.708L15.5,3.667l.958,3.042Z" transform="translate(-0.5 -0.333)"/></svg>