<svg xmlns="http://www.w3.org/2000/svg" width="15.255" height="23.322" viewBox="0 0 15.255 23.322"><defs><style>.a{fill:#7d7f7d;}</style></defs><g transform="translate(-940.811 -188.119)"><path class="a" d="M941.624,456.71a.222.222,0,0,0-.029-.024,1.362,1.362,0,0,1-.6-.721,2.466,2.466,0,0,1,.083-2.034,1.792,1.792,0,0,1,1.051-.917,3.6,3.6,0,0,1,.638-.114q1.079-.162,2.158-.32c.2-.03.406-.062.61-.089a.141.141,0,0,1,.1.02,4.079,4.079,0,0,0,1.752.755,5.156,5.156,0,0,0,2.9-.247,2.721,2.721,0,0,0,1.639-1.41c.027-.05.058-.079.108-.076.133.008.267.017.4.036q1.393.2,2.785.407c.147.022.294.042.44.065a.786.786,0,0,1,.124.03.373.373,0,0,1,.138.665.709.709,0,0,1-.293.148c-1.318.311-2.637.615-3.956.921q-2.27.527-4.541,1.053a.43.43,0,0,1-.183,0q-2.15-.475-4.3-.954a.7.7,0,0,0-.791.356,1.455,1.455,0,0,0-.016,1.4,1.082,1.082,0,0,0,.709.54q2.2.609,4.412,1.21a.333.333,0,0,0,.158,0q4.2-1,8.394-2a.545.545,0,0,1,.185-.026.378.378,0,0,1,.076.742c-.234.073-.471.133-.709.191q-3.97.974-7.941,1.944a.347.347,0,0,1-.165,0c-1.244-.334-2.488-.671-3.732-1-.192-.051-.391-.078-.587-.118a.7.7,0,0,0-.7.256,1.154,1.154,0,0,0-.257.516,2.239,2.239,0,0,0-.062.773.946.946,0,0,0,.736.893q1.285.373,2.572.736c.681.191,1.364.371,2.047.554a.238.238,0,0,0,.116,0q4.206-1.069,8.411-2.142a.435.435,0,0,1,.36.05.37.37,0,0,1,.171.383.3.3,0,0,1-.219.278q-.358.114-.723.206-3.99,1-7.981,2a.308.308,0,0,1-.149,0q-2.364-.645-4.726-1.3a2.577,2.577,0,0,1-.511-.188,1.607,1.607,0,0,1-.88-1.271,2.72,2.72,0,0,1,.186-1.46A1.53,1.53,0,0,1,941.624,456.71Z" transform="translate(0 -250.211)"/><path class="a" d="M1061.016,430.846a.116.116,0,0,0,.011.014c.12.087.226.189.2.351a.452.452,0,0,1-.314.365,2.692,2.692,0,0,1-.436.077c-.033.134-.074.293-.112.453-.052.218-.091.253-.313.254q-.685,0-1.369,0c-.177,0-.233-.046-.279-.213-.038-.14-.079-.28-.113-.421a.114.114,0,0,0-.124-.1,1.634,1.634,0,0,1-.357-.07.461.461,0,0,1-.168-.114.335.335,0,0,1,.021-.529l.074-.061-.123-.083a.341.341,0,0,1-.014-.576.785.785,0,0,1,.478-.157c.813,0,1.626-.01,2.439-.005a1.952,1.952,0,0,1,.5.081.368.368,0,0,1,.273.31.323.323,0,0,1-.143.341C1061.11,430.792,1061.065,430.816,1061.016,430.846Z" transform="translate(-110.792 -229.785)"/><path class="a" d="M1164.867,240.22l-.908,1.15-.332-.4,1.229-.768Z" transform="translate(-211.648 -49.476)"/><path class="a" d="M1181.072,290.37l-.131-.5,1.448-.176.005.015Z" transform="translate(-228.093 -96.487)"/><path class="a" d="M982.818,289.909l-.137.5-1.323-.658,0-.013Z" transform="translate(-38.514 -96.523)"/><path class="a" d="M1090.971,189.571l.3-1.452h.015c.066.482.132.964.2,1.451Z" transform="translate(-142.634 0)"/><path class="a" d="M1000.723,241.259l-.915-1.153.012-.014,1.229.776Z" transform="translate(-56.04 -49.368)"/><path class="a" d="M1042.953,203.316l-.462.22-.345-1.435.014-.006Z" transform="translate(-96.256 -13.274)"/><path class="a" d="M1135.664,202.258l-.343,1.426-.46-.218.787-1.216Z" transform="translate(-184.323 -13.423)"/><path class="a" d="M1029.393,241.347a3.419,3.419,0,0,0-1.381-1.623,3.868,3.868,0,0,0-2.366-.491,3.573,3.573,0,0,0-2.879,5.152c.22.435.471.854.7,1.287.152.293.287.6.422.9a1.144,1.144,0,0,1,.1.543c-.012.2-.021.4-.033.6a.533.533,0,0,0,.39.6,1.894,1.894,0,0,0,.518.1c.394.014.788,0,1.182,0v.012c.454-.01.908-.009,1.361-.034a2.221,2.221,0,0,0,.548-.118.367.367,0,0,0,.268-.352,3.207,3.207,0,0,0-.017-.511,1.839,1.839,0,0,1,.123-1.049c.269-.563.547-1.124.849-1.67A3.578,3.578,0,0,0,1029.393,241.347Zm-6.557,1.9a3.209,3.209,0,0,1,.488-2.1,4.627,4.627,0,0,0,.277,3.827A3.564,3.564,0,0,1,1022.836,243.249Z" transform="translate(-77.458 -48.533)"/></g></svg>