<svg xmlns="http://www.w3.org/2000/svg" width="24" height="24" viewBox="0 0 24 24"><defs><style>.a{fill:#5c3eb0;}.b{fill:#fff;}</style></defs><path class="a" d="M25.951,9.4A2.1,2.1,0,1,0,28,11.5,2.075,2.075,0,0,0,25.951,9.4ZM4,25.6,17.463,28V4L4,6.4Z" transform="translate(-4 -4)"/><path class="b" d="M16.561,16.27V17.9l-2.38.107-.012,7.074-1.777-.054V18.071l-2.392.1v-1.5Z" transform="translate(-6.421 -8.883)"/><path class="a" d="M33.175,12.407a2.4,2.4,0,0,1-2.386,2.407A2.367,2.367,0,0,1,29,14V10.818A2.367,2.367,0,0,1,30.789,10,2.4,2.4,0,0,1,33.175,12.407Zm1.193,5.415v6.619h2.088a2.088,2.088,0,0,0,2.058-1.805h.03V17.822ZM29,16.017V26.246h2.088a2.088,2.088,0,0,0,2.058-1.805h.03V16.017Z" transform="translate(-14.543 -6.421)"/></svg>