<svg xmlns="http://www.w3.org/2000/svg" width="33.446" height="33.446" viewBox="0 0 33.446 33.446"><defs><style>.a{fill:#fff;}.b{fill:#464775;}</style></defs><path class="a" d="M34.591,11.525a2.927,2.927,0,1,0,2.855,2.927A2.892,2.892,0,0,0,34.591,11.525ZM4,34.1l18.763,3.345V4L4,7.345Z" transform="translate(-4 -4)"/><path class="b" d="M19.143,16.27v2.269l-3.317.15-.017,9.858-2.477-.075V18.78L10,18.913V16.827Z" transform="translate(-5.013 -5.975)"/><path class="a" d="M34.819,13.354a3.339,3.339,0,0,1-3.325,3.354A3.3,3.3,0,0,1,29,15.568V11.14A3.3,3.3,0,0,1,31.494,10,3.339,3.339,0,0,1,34.819,13.354ZM36.481,20.9v9.224H39.39a2.91,2.91,0,0,0,2.868-2.516H42.3V20.9ZM29,18.385V32.64h2.909a2.91,2.91,0,0,0,2.868-2.516h.042V18.385Z" transform="translate(-8.853 -5.013)"/></svg>