<svg xmlns="http://www.w3.org/2000/svg" width="29" height="32.143" viewBox="0 0 29 32.143"><defs><style>.a,.c{fill:#fff;}.b{fill:#cc141e;stroke:#593cab;stroke-width:2px;}.c{font-size:10px;font-family:OpenSans, Open Sans;letter-spacing:0.011em;}.d{stroke:none;}.e{fill:none;}</style></defs><g transform="translate(-1142.436 -13)"><path class="a" d="M28.4,26.056H8.414a2.413,2.413,0,0,1-2.183-3.439l1.837-3.7V14.6a10.459,10.459,0,0,1,9.841-10.59h0A10.34,10.34,0,0,1,28.745,14.339v4.582L30.572,22.6A2.411,2.411,0,0,1,28.4,26.056ZM17.957,5.045h0Zm-3.624,22.39a4.131,4.131,0,0,0,8.147,0Z" transform="translate(1136.437 14.262)"/><g class="b" transform="translate(1154.436 13)"><circle class="d" cx="8.5" cy="8.5" r="8.5"/><circle class="e" cx="8.5" cy="8.5" r="7.5"/></g><text class="c" transform="translate(1159.436 24.963)"><tspan x="0" y="0">4</tspan></text></g></svg>