<svg xmlns="http://www.w3.org/2000/svg" width="24" height="24" viewBox="0 0 24 24"><defs><style>.a{fill:#298bcc;}.b{fill:#fff;}</style></defs><path class="a" d="M28,13h8.619a.88.88,0,0,1,.87.889V25.436a.88.88,0,0,1-.87.889H28Z" transform="translate(-13.489 -7.662)"/><rect class="b" width="8.303" height="9.217" transform="translate(14.511 8.436)"/><path class="a" d="M17.641,28,4,25.3V6.7L17.641,4Z" transform="translate(-4 -4)"/><path class="b" d="M12.91,16.5c-1.884,0-3.41,1.992-3.41,4.448S11.027,25.4,12.91,25.4s3.41-1.992,3.41-4.448S14.794,16.5,12.91,16.5Zm-.148,7.117c-.983,0-1.779-1.2-1.779-2.669s.8-2.669,1.779-2.669,1.779,1.2,1.779,2.669S13.745,23.617,12.762,23.617Z" transform="translate(-6.238 -8.948)"/><rect class="a" width="1.601" height="1.72" transform="translate(14.44 15.456)"/><rect class="a" width="1.601" height="1.72" transform="translate(16.483 15.456)"/><rect class="a" width="1.601" height="1.72" transform="translate(18.525 15.456)"/><rect class="a" width="1.601" height="1.72" transform="translate(14.44 13.307)"/><rect class="a" width="1.601" height="1.72" transform="translate(16.483 13.307)"/><rect class="a" width="1.601" height="1.72" transform="translate(18.525 13.307)"/><rect class="a" width="1.601" height="1.72" transform="translate(20.59 13.307)"/><rect class="a" width="1.601" height="1.72" transform="translate(14.44 11.234)"/><rect class="a" width="1.601" height="1.72" transform="translate(16.483 11.234)"/><rect class="a" width="1.601" height="1.72" transform="translate(18.525 11.234)"/><rect class="a" width="1.601" height="1.72" transform="translate(20.59 11.234)"/><rect class="a" width="1.601" height="1.72" transform="translate(16.483 9.075)"/><rect class="a" width="1.601" height="1.72" transform="translate(18.525 9.075)"/><rect class="a" width="1.601" height="1.72" transform="translate(20.59 9.075)"/></svg>