<svg xmlns="http://www.w3.org/2000/svg" width="20.454" height="23.613" viewBox="0 0 20.454 23.613"><defs><style>.a{fill:#7d7f7d;}.b{fill:#fff;}</style></defs><g transform="translate(-924.846 -271.391)"><path class="a" d="M16.768,23.613H.563C.11,23.613,0,23.5,0,23.047V.566C0,.111.111,0,.564,0H16.72c.486,0,.591.1.591.588q0,4.809,0,9.617v.261l.047.009.1-.285.006-.016L17.524,10c.118-.343.251-.729.385-1.107A1.315,1.315,0,0,1,19.1,7.971h.057a1.287,1.287,0,0,1,1.058.535,1.324,1.324,0,0,1,.169,1.207c-.268.8-.546,1.6-.855,2.489l-.163.469-.006.016-.152.437-.445,1.285c-.406,1.17-.909,2.623-1.384,4a1.216,1.216,0,0,0-.061.384c0,.981,0,1.979,0,2.943v.483q0,.427,0,.853C17.312,23.493,17.19,23.613,16.768,23.613Zm-1.709-3.132c.021.1.037.173.054.247l.023.106.009.046.008-.006.514-.387-.234-.079-.069-.023-.336-.113,0,.009c.01.049.022.113.04.2l-.007,0Zm3.181-10.14h0c-1.072,3.1-2.135,6.177-3.212,9.291l.158.054.166.057.134.046.307.105.21.072.632-1.825,1.44-4.162.016-.045,1.128-3.259-.979-.336ZM2.381,11.824V18.1h7.937c1.342,0,2.729,0,4.176,0,.089,0,.23-.031.246-.081l.022-.06.016-.045a2.114,2.114,0,0,0,.164-.669c.008-.682.012-1.364.012-2.213q0-.553,0-1.107v-.008c0-.367,0-.732,0-1.1v-.995ZM19.174,8.754a.511.511,0,0,0-.127.017L19,8.783l-.016.006-.006,0-.01,0-.006,0-.014.006,0,0-.011,0,0,0-.013.006a.537.537,0,0,0-.252.279l0,.011,0,.007a2.107,2.107,0,0,0-.075.227l0,.012a1.86,1.86,0,0,1-.083.242l.123.042.033.011.136.047,0,0,.329.113.352.121a1.99,1.99,0,0,1,.092-.264c.015-.037.03-.074.044-.111a.559.559,0,0,0-.043-.585l0-.005,0,0-.008-.01A.479.479,0,0,0,19.174,8.754Z" transform="translate(924.846 271.391)"/><path class="b" d="M4.523,2.362H.457A.4.4,0,0,1,0,1.909c0-.444,0-.918,0-1.45C.005.143.151,0,.475,0h8.06c.386,0,.516.13.517.514,0,.45,0,.915,0,1.376,0,.325-.144.47-.461.47ZM.809.8v.758H8.253V.8Z" transform="translate(931.533 274.539)"/><path class="b" d="M7.206,2.362H.539C.122,2.362,0,2.24,0,1.821V1.627c0-.38,0-.772,0-1.159C0,.145.147,0,.465,0L4.532,0,8.6,0A.4.4,0,0,1,9.05.456c0,.374,0,.754,0,1.121v.28c0,.373-.132.5-.5.5ZM.8.8v.758H8.244V.8Z" transform="translate(931.534 277.687)"/><path class="b" d="M1.134,2.363H.469C.148,2.36,0,2.217,0,1.9,0,1.426,0,.947,0,.474,0,.148.145,0,.46,0L2.29,0,3.874,0a.4.4,0,0,1,.455.451c0,.551,0,1.033,0,1.473a.4.4,0,0,1-.445.435l-.661,0H1.134ZM.8.8v.758h2.73V.8Z" transform="translate(926.419 274.538)"/><path class="b" d="M1.144,2.363H.479C.141,2.361,0,2.222,0,1.884,0,1.309,0,.87,0,.459A.4.4,0,0,1,.451,0L2.17,0,3.889,0a.392.392,0,0,1,.44.44c0,.489,0,.985,0,1.474,0,.3-.149.443-.46.445H1.144ZM.8.8v.758H3.524V.8Z" transform="translate(926.419 277.687)"/><path class="b" d="M955.736,577.221h8.616v.767h-8.616Z" transform="translate(-28.902 -286.148)"/><path class="b" d="M949.475,419.11v-.758h4.691v.758Z" transform="translate(-23.044 -137.503)"/><path class="b" d="M953.786,296.123v.757H949.48v-.757Z" transform="translate(-23.049 -23.141)"/></g></svg>