<svg xmlns="http://www.w3.org/2000/svg" width="26.667" height="24" viewBox="0 0 26.667 24"><defs><style>.a{fill:#7d7f7d;}</style></defs><path class="a" d="M23.333,19V7a4,4,0,0,0-4-4H6A4,4,0,0,0,2,7V9.667A1.334,1.334,0,0,0,3.333,11H6V23a4,4,0,0,0,4,4H24.667a4,4,0,0,0,4-4V20.333A1.334,1.334,0,0,0,27.333,19Zm-4-4h0A1.334,1.334,0,0,1,18,16.333H11.333A1.334,1.334,0,0,1,10,15h0a1.334,1.334,0,0,1,1.333-1.333H18A1.334,1.334,0,0,1,19.333,15Zm0,5.333h0A1.334,1.334,0,0,1,18,21.667H11.333A1.334,1.334,0,0,1,10,20.333h0A1.334,1.334,0,0,1,11.333,19H18A1.334,1.334,0,0,1,19.333,20.333ZM4.667,7A1.335,1.335,0,0,1,6,5.667h9.561A4.012,4.012,0,0,0,15.333,7V8.333H4.667ZM26,23a1.333,1.333,0,0,1-2.667,0V21.667H26Z" transform="translate(-2 -3)"/></svg>