<svg xmlns="http://www.w3.org/2000/svg" width="20.833" height="24" viewBox="0 0 20.833 24"><defs><style>.a{fill:#7d7f7d;}</style></defs><path class="a" d="M12,3A4.314,4.314,0,0,0,8,7.571a4.314,4.314,0,0,0,4,4.571,4.314,4.314,0,0,0,4-4.571A4.314,4.314,0,0,0,12,3Zm0,12.571c-3.141,0-9,1.766-9,5.143v1.714a1.079,1.079,0,0,0,1,1.143h8.295A9.051,9.051,0,0,1,12,21.286a8.594,8.594,0,0,1,1.953-5.536A12.032,12.032,0,0,0,12,15.571Zm6.064,0a.269.269,0,0,0-.252.257L17.7,16.984a3.882,3.882,0,0,0-1.3.859l-.937-.464a.237.237,0,0,0-.318.123L14.2,19.355a.317.317,0,0,0,.068.377l.807.683a5.31,5.31,0,0,0-.076.871,5.165,5.165,0,0,0,.076.868l-.8.685a.317.317,0,0,0-.068.377l.936,1.853a.238.238,0,0,0,.32.121l.936-.462a3.889,3.889,0,0,0,1.3.859l.117,1.156a.267.267,0,0,0,.252.257h1.871a.269.269,0,0,0,.252-.257l.117-1.156a3.882,3.882,0,0,0,1.3-.859l.938.464a.238.238,0,0,0,.318-.123l.938-1.853a.317.317,0,0,0-.068-.377l-.807-.685a4.987,4.987,0,0,0,0-1.737l.8-.685a.317.317,0,0,0,.068-.377L22.861,17.5a.238.238,0,0,0-.32-.121l-.936.462a3.889,3.889,0,0,0-1.3-.859l-.117-1.156a.267.267,0,0,0-.252-.257ZM19,19.286a1.888,1.888,0,0,1,1.75,2,1.888,1.888,0,0,1-1.75,2,1.888,1.888,0,0,1-1.75-2A1.888,1.888,0,0,1,19,19.286Z" transform="translate(-3 -3)"/></svg>