<svg xmlns="http://www.w3.org/2000/svg" width="24" height="24" viewBox="0 0 24 24"><defs><style>.a{fill:#298bcc;}.b{fill:#fff;}</style></defs><g transform="translate(-1 -66)"><g transform="translate(-9 54)"><path class="a" d="M30.6,12H13.4A3.4,3.4,0,0,0,10,15.4V32.6A3.4,3.4,0,0,0,13.4,36H30.6A3.4,3.4,0,0,0,34,32.6V15.4A3.4,3.4,0,0,0,30.6,12Z"/><path class="b" d="M28.362,34.02a.654.654,0,0,1-.654.654H18.06A2.067,2.067,0,0,1,16,32.6V25.654A.654.654,0,0,1,16.654,25H26.3a2.067,2.067,0,0,1,2.06,2.073Z" transform="translate(-2.775 -5.837)"/><path class="b" d="M44.543,34.539l-3.317-2.132A.491.491,0,0,1,41,31.993v-3.61a.491.491,0,0,1,.226-.413l3.317-2.132a.492.492,0,0,1,.757.413v7.873A.492.492,0,0,1,44.543,34.539Z" transform="translate(-13.987 -6.189)"/></g></g></svg>