<svg xmlns="http://www.w3.org/2000/svg" width="75.081" height="61.725" viewBox="0 0 75.081 61.725"><defs><style>.a{fill:#707070;}</style></defs><g transform="translate(-975.953 -258.463)"><g transform="translate(975.953 258.463)"><path class="a" d="M7112.892,1433.552v-11.236c0-.724-.043-1.451.009-2.171.079-1.059-.264-1.54-1.428-1.538q-22.32.046-44.638.036a4.206,4.206,0,0,0-.831.183v50.78c2.417-1.863,4.662-3.444,6.726-5.232a8.628,8.628,0,0,1,6.14-2.085c10.532.1,21.067.042,31.6.042h2.384c-.85-4.1,3.141-4.964,4.9-7.468,0,2.987.152,5.983-.051,8.956-.154,2.236-2.132,3.5-4.958,3.505-7.178.02-14.354.008-21.531.008-4.278,0-8.561-.052-12.836.043a4.953,4.953,0,0,0-2.659.928c-2.54,1.872-4.988,3.875-7.451,5.852-1.5,1.207-3.125,1.709-4.937.82a4.387,4.387,0,0,1-2.471-4.354q.026-26.058.018-52.118c0-3.168,1.585-4.783,4.722-4.787q23.8-.029,47.6,0c3,0,4.568,1.648,4.607,4.686a29.615,29.615,0,0,0,.061,5.319C7118.767,1428.178,7115.8,1430.507,7112.892,1433.552Z" transform="translate(-7060.863 -1413.703)"/><path class="a" d="M7347.736,1519.86l-7.055-6.331c4.969-5.542,9.859-11,14.813-16.52l7.053,6.314C7357.63,1508.812,7352.751,1514.258,7347.736,1519.86Z" transform="translate(-7292.953 -1482.8)"/><path class="a" d="M7320.235,1615.11c-2.128,3.316-5.626,3.12-8.6,4-.329.1-1.369-.756-1.321-1.037.547-3.163-.131-6.779,3.062-9.141C7315.663,1611,7317.9,1613.005,7320.235,1615.11Z" transform="translate(-7267.76 -1575.632)"/><path class="a" d="M7448.01,1470.845l-6.852-6.174c.261-.337.435-.59.637-.819,3.476-3.926,2.747-3.924,6.656-.394,3.842,3.464,3.877,2.72.208,6.883A5.722,5.722,0,0,1,7448.01,1470.845Z" transform="translate(-7376.291 -1452.814)"/></g><g transform="translate(990.784 270.23)"><path class="a" d="M8582.705,1465.1c-.051-.059-.1-.11-.143-.167a4,4,0,0,0-4.187-1.679c-1.572.262-3.143.532-4.719.771a1.774,1.774,0,0,1-.842-.1c-1.3-.482-2.592-.989-3.881-1.5a.7.7,0,0,1-.3-.286,10.074,10.074,0,0,1,7.018-15.26,9.908,9.908,0,0,1,11.244,8.981,10.1,10.1,0,0,1-3.674,8.879c-.109.1-.232.178-.352.264A1.659,1.659,0,0,1,8582.705,1465.1Zm-7.822-10.52a4.868,4.868,0,0,0-2.428,4.839,1.932,1.932,0,0,0,1.875,1.9c1.828.028,3.658.023,5.49,0a1.846,1.846,0,0,0,1.795-1.47,5.147,5.147,0,0,0,.072-1.263,4.511,4.511,0,0,0-2.078-3.762c-.115-.078-.234-.154-.354-.234a3.31,3.31,0,1,0-4.373-.006Z" transform="translate(-8562.848 -1446.781)"/><path class="a" d="M8533.769,1669.19q-.958,1.089-1.911,2.168c-1.735,1.964-3.465,3.932-5.216,5.882a1.454,1.454,0,0,1-.765.436c-2.393.424-4.786.819-7.182,1.211a1.62,1.62,0,0,1-.605-.034c-1.013-.229-2.033-.433-3.027-.724a5.773,5.773,0,0,0-2.6.122c-1.112.171-2.222.375-3.333.555-.664.108-.921-.077-1.032-.74q-.535-3.224-1.059-6.451c-.088-.542.1-.859.594-.944,1.295-.225,2.595-.432,3.895-.644a4.147,4.147,0,0,1,2.316.315c.673.284,1.375.51,2.021.847a4.316,4.316,0,0,0,3.017.323c1.3-.272,2.622-.455,3.935-.674a2.676,2.676,0,0,1,2.642.927,6.133,6.133,0,0,1,.39.6c-1,.168-1.936.325-2.865.479-.605.1-1.215.187-1.818.292-.511.088-.74.371-.665.8.069.412.395.6.9.52,1.688-.277,3.379-.537,5.063-.848a1.862,1.862,0,0,0,.925-.5c1.074-1.1,2.1-2.24,3.162-3.355A2.591,2.591,0,0,1,8533.769,1669.19Z" transform="translate(-8507.018 -1653.053)"/><path class="a" d="M8663.771,1572.4c-.82,0-1.64.005-2.457,0-.6-.005-.786-.227-.817-.828a3.333,3.333,0,0,1,1.93-3.48,3.3,3.3,0,0,1,4.67,2.835c.062,1.386-.022,1.476-1.4,1.476Z" transform="translate(-8649.573 -1559.169)"/><path class="a" d="M8681.206,1493.641a1.97,1.97,0,0,1,1.986,1.968,1.978,1.978,0,1,1-3.956.011A1.955,1.955,0,0,1,8681.206,1493.641Z" transform="translate(-8666.986 -1490.308)"/></g></g></svg>