<svg xmlns="http://www.w3.org/2000/svg" width="50.728" height="56.378" viewBox="0 0 50.728 56.378"><defs><style>.a{fill:#7d7f7d;}</style></defs><g transform="translate(-8789.983 -107.889)"><path class="a" d="M8815.424,128.551h19.619c.274,0,.551-.01.824.008a2.171,2.171,0,0,1,2.251,2.338c.026,2.04.008,4.08.009,6.12V145.7c1.051,0,2.049,0,3.048,0,1.757.005,2.579.813,2.58,2.555q.007,5.536,0,11.071a2.258,2.258,0,0,1-2.568,2.579q-5.4.01-10.8,0a2.289,2.289,0,0,1-2.594-2.577q-.009-5.536,0-11.071a2.275,2.275,0,0,1,2.6-2.557c.98,0,1.963,0,2.988,0V133.26h-36.971c-.184,0-.366,0-.55,0-1.639-.021-2.6-.9-2.575-2.378a2.271,2.271,0,0,1,2.566-2.324c3.256-.009,6.51,0,9.766,0h5v-4.448h-2.3c-.849,0-1.7.009-2.544,0a2.189,2.189,0,0,1-2.378-2.348q-.018-5.742,0-11.484a2.178,2.178,0,0,1,2.357-2.369q7.257-.026,14.514,0a2.235,2.235,0,0,1,2.373,2.514c.014,3.461,0,6.922,0,10.383,0,.344,0,.688.013,1.031a2.063,2.063,0,0,1-2.181,2.273c-1.671.02-3.341,0-5.062,0Zm-7.3-9.186h9.764v-6.733h-9.764Zm30.887,37.843V150.3c-.988.1-1.91.207-2.834.279a7.151,7.151,0,0,1-1.084-.041c-.832-.063-1.665-.136-2.59-.212,0,2.276-.006,4.422.018,6.567,0,.107.264.3.406.3C8834.936,157.214,8836.947,157.207,8839.008,157.207Z" transform="translate(-3.049)"/><path class="a" d="M8801.743,493.48c-.816-.349-1.562-.689-2.329-.98a.678.678,0,0,0-.571.117c-.447.391-.845.84-1.276,1.25a2.324,2.324,0,1,1-3.271-3.3c.382-.4.806-.755,1.149-1.181a.829.829,0,0,0,.087-.679,10.79,10.79,0,0,1-.593-1.305c-.174-.874-.674-1.05-1.463-.968a5.847,5.847,0,0,1-1.572-.061,2.2,2.2,0,0,1-1.909-2.5,2.233,2.233,0,0,1,2.27-2.2c.6-.023,1.194.023,1.787-.026a.75.75,0,0,0,.51-.377c.2-.409.292-.866.467-1.287s.4-.823.69-1.417c-.438-.389-.954-.8-1.417-1.266a2.241,2.241,0,0,1-.1-3.306,2.175,2.175,0,0,1,3.337.029c.921,1.091,1.778,1.53,3.042.612a4.787,4.787,0,0,1,1.164-.428c0-.732-.007-1.48,0-2.228a2.347,2.347,0,0,1,4.688-.072c.024.641-.013,1.284.027,1.923a.681.681,0,0,0,.323.495c.853.381,1.723.717,2.724,1.123.409-.438.873-.976,1.381-1.469a2.321,2.321,0,1,1,3.306,3.258c-.5.532-1.037,1.035-1.546,1.542.384.957.757,1.883,1.16,2.887.662,0,1.391-.005,2.118,0a2.254,2.254,0,0,1,2.494,2.384,2.385,2.385,0,0,1-2.473,2.393c-.756.017-1.512,0-2.276,0-.37.833-.728,1.641-1.143,2.579.521.5,1.112,1.037,1.665,1.611a2.238,2.238,0,0,1,.449,2.656,2.3,2.3,0,0,1-2.381,1.279,2.859,2.859,0,0,1-1.314-.645,22.075,22.075,0,0,1-1.617-1.669l-2.887,1.227c0,.748.014,1.548,0,2.346a2.35,2.35,0,1,1-4.7-.08Zm7.477-9.389a5.118,5.118,0,0,0-9.982-1.675,7.046,7.046,0,0,0-.1,2.081,5.988,5.988,0,0,0,.132,1.321c.2.874.928,1.368,1.5,1.988a3.132,3.132,0,0,0,3.018,1.193,6.594,6.594,0,0,1,.749.011,4.9,4.9,0,0,0,1.333-.13A5.054,5.054,0,0,0,8809.22,484.091Z" transform="translate(0 -333.893)"/></g></svg>