<svg xmlns="http://www.w3.org/2000/svg" width="76.212" height="62.654" viewBox="0 0 76.212 62.654"><defs><style>.a{fill:#707070;}</style></defs><g transform="translate(-975.953 -258.463)"><g transform="translate(975.953 258.463)"><path class="a" d="M7113.677,1433.851v-11.405c0-.734-.044-1.472.008-2.2.081-1.075-.268-1.563-1.448-1.561q-22.656.047-45.311.036a4.276,4.276,0,0,0-.843.186v51.545c2.453-1.891,4.732-3.5,6.827-5.31a8.756,8.756,0,0,1,6.231-2.116c10.69.1,21.385.043,32.076.043h2.42c-.862-4.162,3.188-5.039,4.976-7.581,0,3.031.156,6.073-.052,9.091-.156,2.269-2.164,3.55-5.033,3.558-7.285.021-14.57.008-21.855.008-4.343,0-8.689-.053-13.03.044a5.027,5.027,0,0,0-2.7.942c-2.579,1.9-5.063,3.933-7.563,5.94-1.527,1.226-3.172,1.734-5.011.832a4.454,4.454,0,0,1-2.508-4.42q.027-26.45.018-52.9c0-3.216,1.609-4.855,4.793-4.859q24.16-.029,48.317,0c3.042,0,4.638,1.673,4.676,4.757a30.143,30.143,0,0,0,.062,5.4C7119.64,1428.4,7116.628,1430.76,7113.677,1433.851Z" transform="translate(-7060.863 -1413.703)"/><path class="a" d="M7347.841,1520.2c-2.487-2.233-4.763-4.274-7.159-6.427,5.043-5.626,10.008-11.161,15.035-16.768l7.159,6.409C7357.885,1508.99,7352.933,1514.518,7347.841,1520.2Z" transform="translate(-7292.235 -1482.586)"/><path class="a" d="M7320.385,1615.2c-2.16,3.365-5.711,3.168-8.734,4.061-.334.1-1.389-.767-1.341-1.053.555-3.211-.132-6.881,3.108-9.278C7315.744,1611.028,7318.01,1613.067,7320.385,1615.2Z" transform="translate(-7267.12 -1575.131)"/><path class="a" d="M7448.113,1470.995l-6.955-6.267c.265-.342.441-.6.647-.831,3.527-3.985,2.788-3.983,6.756-.4,3.9,3.516,3.935,2.761.211,6.987A5.785,5.785,0,0,1,7448.113,1470.995Z" transform="translate(-7375.313 -1452.692)"/></g><g transform="translate(992.677 270.473)"><path class="a" d="M9344.127,1768.94h-9.281c-1.031,0-1.4-.376-1.4-1.419,0-1.111,0-2.222,0-3.333a1.118,1.118,0,0,1,1.241-1.24q9.448,0,18.9,0a1.116,1.116,0,0,1,1.232,1.214q.009,1.78,0,3.56a1.106,1.106,0,0,1-1.225,1.216Q9348.859,1768.944,9344.127,1768.94Zm2.958-1.41h4.785v-1.548h-4.785Zm-10.971-2.654a.663.663,0,0,0-.689-.651.675.675,0,0,0-.66.689.7.7,0,0,0,.7.661A.679.679,0,0,0,9336.114,1764.876Z" transform="translate(-9333.442 -1749.737)"/><path class="a" d="M9344.155,1512.644h9.278c1.015,0,1.4.381,1.4,1.39v3.257c0,.945-.412,1.351-1.368,1.351h-13.71q-2.461,0-4.923,0c-.977,0-1.376-.4-1.376-1.38v-3.295c0-.914.4-1.321,1.31-1.322Q9339.46,1512.641,9344.155,1512.644Zm2.94,4.565h4.785v-1.547H9347.1Zm-10.971-2.628a.681.681,0,0,0-.675-.676.7.7,0,0,0-.677.684.675.675,0,0,0,.684.666A.661.661,0,0,0,9336.125,1514.582Z" transform="translate(-9333.453 -1512.644)"/><path class="a" d="M9344.118,1637.875h9.317c.98,0,1.369.389,1.369,1.375,0,1.123,0,2.247,0,3.371a1.122,1.122,0,0,1-1.239,1.246q-9.45,0-18.9,0a1.119,1.119,0,0,1-1.234-1.248q-.007-1.761,0-3.522a1.1,1.1,0,0,1,1.22-1.22Q9339.384,1637.872,9344.118,1637.875Zm7.751,3.012h-4.791v1.565h4.791Zm-16.437-.4a.672.672,0,1,0-.011-1.344.672.672,0,1,0,.011,1.344Z" transform="translate(-9333.426 -1631.266)"/><path class="a" d="M9345.5,1896.391v-.743h-7.115v-2.556h7.091c.014-.271.026-.5.04-.771h2.019v-2.951h2.537v2.932h2.039v.773h7.13v2.557h-7.091c-.014.274-.025.507-.039.76Z" transform="translate(-9338.12 -1869.49)"/></g></g></svg>