<svg xmlns="http://www.w3.org/2000/svg" width="75.081" height="61.725" viewBox="0 0 75.081 61.725"><defs><style>.a,.b{fill:#707070;}.b{stroke:#707070;}</style></defs><g transform="translate(-971.966 -258.463)"><g transform="translate(971.966 258.463)"><g transform="translate(0)"><path class="a" d="M7112.893,1433.552v-11.236c0-.724-.044-1.451.008-2.171.079-1.059-.264-1.54-1.427-1.538q-22.32.046-44.639.036a4.212,4.212,0,0,0-.83.183v50.78c2.416-1.863,4.661-3.444,6.726-5.232a8.627,8.627,0,0,1,6.139-2.085c10.532.1,21.067.042,31.6.042h2.384c-.85-4.1,3.142-4.964,4.9-7.468,0,2.987.153,5.983-.051,8.956-.153,2.236-2.132,3.5-4.958,3.505-7.178.02-14.354.008-21.531.008-4.278,0-8.56-.052-12.836.043a4.953,4.953,0,0,0-2.659.928c-2.54,1.872-4.988,3.875-7.451,5.852-1.5,1.208-3.124,1.709-4.936.82a4.388,4.388,0,0,1-2.472-4.354q.028-26.058.019-52.117c0-3.168,1.585-4.783,4.721-4.787q23.8-.029,47.6,0c3,0,4.568,1.648,4.606,4.686a29.614,29.614,0,0,0,.061,5.319C7118.767,1428.178,7115.8,1430.507,7112.893,1433.552Z" transform="translate(-7060.862 -1413.703)"/><path class="a" d="M7347.736,1519.86l-7.055-6.331c4.969-5.542,9.86-11,14.813-16.52l7.053,6.314C7357.629,1508.812,7352.75,1514.258,7347.736,1519.86Z" transform="translate(-7292.953 -1482.8)"/><path class="a" d="M7320.236,1615.11c-2.129,3.315-5.627,3.12-8.605,4-.329.1-1.369-.756-1.321-1.037.548-3.163-.131-6.779,3.062-9.141C7315.663,1611,7317.9,1613.005,7320.236,1615.11Z" transform="translate(-7267.76 -1575.633)"/><path class="a" d="M7448.01,1470.845l-6.852-6.174c.261-.337.434-.59.637-.819,3.475-3.926,2.746-3.924,6.655-.394,3.843,3.464,3.877,2.72.209,6.883A5.729,5.729,0,0,1,7448.01,1470.845Z" transform="translate(-7376.292 -1452.814)"/></g><path class="b" d="M8002.159,2374.553h7.57v7.516c-.972-1.039-1.915-2.045-2.873-3.066-2.6,2.6-5.032,5.037-7.485,7.491l-6.084-6.136-8.08,7.059c-.488-.551-.953-1.073-1.451-1.637,3.181-2.788,6.346-5.561,9.547-8.363,1.994,2,3.972,3.989,5.905,5.929l5.886-5.893Z" transform="translate(-7969.692 -2360.023)"/></g><path class="b" d="M7997.754,2527.712v1.985h-25.645v-1.985Z" transform="translate(-6983.491 -2238.177)"/></g></svg>