<svg xmlns="http://www.w3.org/2000/svg" width="75.342" height="61.939" viewBox="0 0 75.342 61.939"><defs><style>.a{fill:#707070;}</style></defs><g transform="translate(-975.953 -258.463)"><g transform="translate(975.953 258.463)"><path class="a" d="M7113.073,1433.621v-11.275c0-.726-.043-1.456.009-2.178.079-1.063-.265-1.546-1.433-1.543q-22.4.046-44.793.036a4.24,4.24,0,0,0-.834.184V1469.8c2.426-1.87,4.679-3.456,6.749-5.25a8.659,8.659,0,0,1,6.161-2.092c10.568.1,21.141.042,31.71.042h2.393c-.853-4.115,3.152-4.982,4.919-7.494,0,3,.153,6-.051,8.987-.154,2.244-2.14,3.509-4.976,3.517-7.2.02-14.4.008-21.605.008-4.293,0-8.59-.053-12.881.043a4.972,4.972,0,0,0-2.669.932c-2.549,1.878-5,3.888-7.477,5.872-1.509,1.212-3.135,1.715-4.953.822a4.4,4.4,0,0,1-2.48-4.369q.028-26.148.019-52.3c0-3.179,1.591-4.8,4.738-4.8q23.884-.029,47.767,0c3.007,0,4.584,1.653,4.622,4.7a29.821,29.821,0,0,0,.062,5.338C7118.969,1428.228,7115.992,1430.566,7113.073,1433.621Z" transform="translate(-7060.862 -1413.703)"/><path class="a" d="M7347.761,1519.939c-2.46-2.207-4.709-4.225-7.079-6.353l14.864-16.577,7.077,6.336C7357.688,1508.853,7352.793,1514.318,7347.761,1519.939Z" transform="translate(-7292.787 -1482.75)"/><path class="a" d="M7320.271,1615.131c-2.136,3.327-5.646,3.131-8.635,4.015-.331.1-1.374-.758-1.326-1.041.549-3.174-.131-6.8,3.072-9.173C7315.682,1611,7317.922,1613.02,7320.271,1615.131Z" transform="translate(-7267.612 -1575.517)"/><path class="a" d="M7448.034,1470.879l-6.875-6.2c.261-.338.436-.592.639-.822,3.487-3.939,2.756-3.937,6.679-.4,3.855,3.476,3.891,2.73.21,6.907A5.841,5.841,0,0,1,7448.034,1470.879Z" transform="translate(-7376.066 -1452.786)"/></g><path class="a" d="M-10.114-32.8a6.347,6.347,0,0,0,6.35-6.35,6.347,6.347,0,0,0-6.35-6.35,6.347,6.347,0,0,0-6.35,6.35A6.347,6.347,0,0,0-10.114-32.8Zm4.354,1.814H-6.23a8.931,8.931,0,0,1-3.884.907A8.95,8.95,0,0,1-14-30.985h-.471A6.533,6.533,0,0,0-21-24.454v1.633A2.722,2.722,0,0,0-18.279-20.1H-1.95c1.5,0,2.721-1.219,2.721-4.354A6.533,6.533,0,0,0-5.76-30.985Z" transform="translate(1013.533 316.554)"/></g></svg>