<svg xmlns="http://www.w3.org/2000/svg" width="75.082" height="61.725" viewBox="0 0 75.082 61.725"><defs><style>.a{fill:#707070;}</style></defs><g transform="translate(-975.953 -258.463)"><g transform="translate(975.953 258.463)"><path class="a" d="M7112.892,1433.552v-11.236c0-.724-.043-1.451.009-2.171.079-1.059-.264-1.54-1.428-1.538q-22.32.046-44.638.036a4.206,4.206,0,0,0-.831.183v50.78c2.417-1.863,4.662-3.444,6.726-5.232a8.628,8.628,0,0,1,6.14-2.085c10.532.1,21.067.042,31.6.042h2.384c-.85-4.1,3.141-4.964,4.9-7.468,0,2.987.152,5.983-.051,8.956-.154,2.236-2.132,3.5-4.958,3.505-7.178.02-14.354.008-21.531.008-4.278,0-8.561-.052-12.836.043a4.953,4.953,0,0,0-2.659.928c-2.54,1.872-4.988,3.875-7.451,5.852-1.5,1.207-3.125,1.709-4.937.82a4.387,4.387,0,0,1-2.471-4.354q.026-26.058.018-52.118c0-3.168,1.585-4.783,4.722-4.787q23.8-.029,47.6,0c3,0,4.568,1.648,4.607,4.686a29.615,29.615,0,0,0,.061,5.319C7118.767,1428.178,7115.8,1430.507,7112.892,1433.552Z" transform="translate(-7060.863 -1413.703)"/><path class="a" d="M7347.736,1519.86l-7.055-6.331c4.969-5.542,9.859-11,14.813-16.52l7.053,6.314C7357.63,1508.812,7352.751,1514.258,7347.736,1519.86Z" transform="translate(-7292.953 -1482.8)"/><path class="a" d="M7320.235,1615.11c-2.128,3.316-5.626,3.12-8.6,4-.329.1-1.369-.756-1.321-1.037.547-3.163-.131-6.779,3.062-9.141C7315.663,1611,7317.9,1613.005,7320.235,1615.11Z" transform="translate(-7267.76 -1575.632)"/><path class="a" d="M7448.01,1470.845l-6.852-6.174c.261-.337.435-.59.637-.819,3.476-3.926,2.747-3.924,6.656-.394,3.842,3.464,3.877,2.72.208,6.883A5.722,5.722,0,0,1,7448.01,1470.845Z" transform="translate(-7376.291 -1452.814)"/></g><path class="a" d="M-11.487-34.4a5.546,5.546,0,0,0,5.549-5.549A5.546,5.546,0,0,0-11.487-45.5a5.546,5.546,0,0,0-5.549,5.549A5.546,5.546,0,0,0-11.487-34.4Zm3.805,1.586h-.411a7.805,7.805,0,0,1-3.394.793,7.822,7.822,0,0,1-3.394-.793h-.411A5.709,5.709,0,0,0-21-27.108v1.427A2.379,2.379,0,0,0-18.622-23.3h14.27c1.313,0,2.378-1.065,2.378-3.805A5.709,5.709,0,0,0-7.682-32.816Z" transform="translate(1016.145 319.626)"/></g></svg>