<svg xmlns="http://www.w3.org/2000/svg" width="84.268" height="65.932" viewBox="0 0 84.268 65.932"><defs><style>.a,.b{fill:#707070;}.b{stroke:#fff;stroke-width:4px;}</style></defs><g transform="translate(0.317 0)"><path class="a" d="M-24.5,1.75A5.251,5.251,0,0,0-19.25,7h38.5A5.251,5.251,0,0,0,24.5,1.75V-28h-49Zm35-21.437A1.316,1.316,0,0,1,11.813-21h4.375A1.316,1.316,0,0,1,17.5-19.687v4.375A1.316,1.316,0,0,1,16.188-14H11.813A1.316,1.316,0,0,1,10.5-15.312Zm0,14A1.316,1.316,0,0,1,11.813-7h4.375A1.316,1.316,0,0,1,17.5-5.687v4.375A1.316,1.316,0,0,1,16.188,0H11.813A1.316,1.316,0,0,1,10.5-1.312Zm-14-14A1.316,1.316,0,0,1-2.187-21H2.188A1.316,1.316,0,0,1,3.5-19.687v4.375A1.316,1.316,0,0,1,2.188-14H-2.187A1.316,1.316,0,0,1-3.5-15.312Zm0,14A1.316,1.316,0,0,1-2.187-7H2.188A1.316,1.316,0,0,1,3.5-5.687v4.375A1.316,1.316,0,0,1,2.188,0H-2.187A1.316,1.316,0,0,1-3.5-1.312Zm-14-14A1.316,1.316,0,0,1-16.187-21h4.375A1.316,1.316,0,0,1-10.5-19.687v4.375A1.316,1.316,0,0,1-11.812-14h-4.375A1.316,1.316,0,0,1-17.5-15.312Zm0,14A1.316,1.316,0,0,1-16.187-7h4.375A1.316,1.316,0,0,1-10.5-5.687v4.375A1.316,1.316,0,0,1-11.812,0h-4.375A1.316,1.316,0,0,1-17.5-1.312ZM19.25-42H14v-5.25A1.755,1.755,0,0,0,12.25-49H8.75A1.755,1.755,0,0,0,7-47.25V-42H-7v-5.25A1.755,1.755,0,0,0-8.75-49h-3.5A1.755,1.755,0,0,0-14-47.25V-42h-5.25a5.251,5.251,0,0,0-5.25,5.25v5.25h49v-5.25A5.251,5.251,0,0,0,19.25-42Z" transform="translate(24.183 49)"/><path class="b" d="M18.53-10.594l-3.411-1.97a15.425,15.425,0,0,0,0-5.621l3.411-1.97a.968.968,0,0,0,.44-1.121,19.944,19.944,0,0,0-4.38-7.575.963.963,0,0,0-1.185-.184l-3.411,1.97a15.111,15.111,0,0,0-4.869-2.811v-3.932a.959.959,0,0,0-.753-.937,20.132,20.132,0,0,0-8.744,0,.959.959,0,0,0-.753.937v3.94a15.59,15.59,0,0,0-4.869,2.811l-3.4-1.97a.951.951,0,0,0-1.185.184,19.824,19.824,0,0,0-4.38,7.575.958.958,0,0,0,.44,1.121l3.411,1.97a15.426,15.426,0,0,0,0,5.622l-3.411,1.97a.968.968,0,0,0-.44,1.121,19.944,19.944,0,0,0,4.38,7.575.964.964,0,0,0,1.185.184l3.411-1.97A15.112,15.112,0,0,0-5.117-.865v3.94a.959.959,0,0,0,.753.937,20.13,20.13,0,0,0,8.745,0,.959.959,0,0,0,.753-.937V-.865A15.589,15.589,0,0,0,10-3.676l3.411,1.97A.952.952,0,0,0,14.6-1.89a19.824,19.824,0,0,0,4.38-7.575A.989.989,0,0,0,18.53-10.594ZM0-8.969a6.415,6.415,0,0,1-6.406-6.406A6.415,6.415,0,0,1,0-21.781a6.415,6.415,0,0,1,6.406,6.406A6.415,6.415,0,0,1,0-8.969Z" transform="translate(62.897 59.431)"/></g></svg>