<svg xmlns="http://www.w3.org/2000/svg" width="62.236" height="62.315" viewBox="0 0 62.236 62.315"><defs><style>.a{fill:#707070;}</style></defs><g transform="translate(0)"><path class="a" d="M3856.714,2267.977l11.912-7.219,6.974,14.213h-18.886Z" transform="translate(-3856.715 -2212.656)"/><path class="a" d="M4336.714,2279.313l8.7-13.98c10.1,5.528,11.085,7.029,9.491,13.98Z" transform="translate(-4312.232 -2216.998)"/><path class="a" d="M3856.714,1642.464l6.71-7.668c2.481,4.128,4.5,7.16,6.166,10.372,1.057,2.034-.618,2.3-2.131,2.3-3.582-.013-7.164-.066-10.745-.1Z" transform="translate(-3856.715 -1618.62)"/><path class="a" d="M4124.02,1846.258c.511-6.736,2.729-9.456,8.331-9.75,6.749-.354,9.587,2.208,9.209,8.965a39.241,39.241,0,0,1-1.988,10.148,6.55,6.55,0,0,1-6.6,4.747,6.748,6.748,0,0,1-6.626-4.754A93.105,93.105,0,0,1,4124.02,1846.258Z" transform="translate(-4110.387 -1810.013)"/><path class="a" d="M4624,1608.915c-1.147,2.837-1.88,5.95-3.545,8.441-2.146,3.21-6.062,3.052-8.718.208s-3.64-10.542-1.8-13.911c1.4-2.566,4.637-3.665,8.678-2.854,2.895.582,4.375,2.447,4.549,5.373.049.814.083,1.628.125,2.442Z" transform="translate(-4570.625 -1586.108)"/><path class="a" d="M4043.375,1326.267c.2-6.439,3.127-9.354,8.711-8.473,3.812.6,5.629,2.4,5.535,6.3a31.161,31.161,0,0,1-1.364,8.459,5.692,5.692,0,0,1-5.834,4.146c-3.07-.07-4.91-2.082-5.918-4.673A31.748,31.748,0,0,1,4043.375,1326.267Z" transform="translate(-4033.855 -1317.641)"/><path class="a" d="M4812.873,1944.44H4799l7.053-11.634C4808.974,1936.509,4814.532,1938.062,4812.873,1944.44Z" transform="translate(-4750.94 -1901.43)"/><path class="a" d="M4511.875,1943.763c.97-3.917-1.749-8.215,2.5-11.637l7.1,11.637Z" transform="translate(-4478.459 -1900.785)"/><path class="a" d="M4163.042,2304.293l-6.264-12.261c.56-.063.69-.119.745-.077,1.986,1.516,3.968,4.239,5.945,4.235,2.07,0,4.131-2.634,6.213-4.09a8.042,8.042,0,0,1,1.673-.439Z" transform="translate(-4141.474 -2241.982)"/><path class="a" d="M4305.089,1655.631l3.526-5.856c2.911,3.846,8.557,5.427,6.874,11.71Z" transform="translate(-4282.22 -1632.835)"/><path class="a" d="M4641.489,1967.123l5.433-4.309.408.365-5.876,10.031-5.848-9.726.563-.545Z" transform="translate(-4595.88 -1929.908)"/><path class="a" d="M4080.815,1672.06c-1.3,4.111-2.942,7.159-7.526,7.717l-4.039-6.856C4073.233,1676.206,4077.029,1678.437,4080.815,1672.06Z" transform="translate(-4058.41 -1653.984)"/></g></svg>