<svg xmlns="http://www.w3.org/2000/svg" width="62.625" height="58.463" viewBox="0 0 62.625 58.463"><defs><style>.a{fill:#707070;}.b{fill:none;}.c{fill:#f7f7f7;}.d{fill:#fff;}</style></defs><g transform="translate(-612.888 -1560.336)"><path class="a" d="M612.888,1562.687a7.858,7.858,0,0,1,6.15-2.351q21.312.189,42.626.02c3.019-.019,4.995.965,5.577,4.018.139.731.519,1.791-.752,2.089-1.19.279-1.462-.393-1.47-1.423-.016-2.17-1.435-2.5-3.23-2.5-14.454.024-28.908.051-43.361-.022-2.565-.013-3.409.957-3.393,3.48.086,12.985.052,25.972.027,38.958,0,1.9.181,3.5,2.657,3.413.762-.025,1.585.1,1.518,1.1-.086,1.278-1.153.955-1.964,1.03-1.907.178-2.938-1.4-4.384-2.151Z"/><path class="b" d="M824.472,1798.38c-7.232,0-14.465.03-21.7-.012-3.786-.022-5.325-1.511-5.34-5.353q-.078-19.678,0-39.356c.017-3.837,1.557-5.362,5.406-5.376q21.881-.077,43.763,0c3.881.014,5.215,1.458,5.224,5.438q.047,19.678,0,39.356c-.01,3.941-1.362,5.273-5.291,5.292C839.182,1798.406,831.827,1798.38,824.472,1798.38Zm.216-47.965c-6.994,0-13.99.122-20.979-.056-3.072-.078-4.1,1.019-4.074,4.041q.161,18.958,0,37.918c-.02,2.756.755,4,3.74,3.975q21.347-.154,42.7-.008c2.687.015,3.657-.907,3.634-3.647q-.16-19.326,0-38.654c.022-2.755-.989-3.655-3.671-3.609C838.921,1750.5,831.8,1750.416,824.688,1750.415Z" transform="translate(-176.34 -179.592)"/><path class="a" d="M873.052,1796c7.116,0,14.234.082,21.348-.042,2.682-.047,3.693.854,3.671,3.609q-.151,19.326,0,38.654c.023,2.74-.947,3.663-3.634,3.647q-21.348-.12-42.7.008c-2.984.021-3.76-1.219-3.74-3.975q.14-18.958,0-37.918c-.026-3.022,1-4.119,4.074-4.041C859.062,1796.124,866.059,1796,873.052,1796Zm14.385,18.375c-1.036-2.1-2.9-3.36-4.383-4.931-1.02-1.083-1.884-.235-2.813.5-1.952,1.555-2.85.75-2.875-1.525-.032-2.853-2.234-2.239-3.741-2.055-1.714.21-4.524-1.562-4.782,2.079-.155,2.19-1.069,3.191-2.938,1.476-2.793-2.562-3.548.589-4.842,1.689-1.188,1.011-3.454,2.017-1.175,4.312,1.663,1.675.908,2.919-1.316,2.944-2.833.032-2.409,2.038-2.228,3.623.2,1.778-1.38,4.555,2.088,4.9,2.339.23,3.01,1.284,1.407,2.987-2.476,2.632.513,3.367,1.525,4.564,1.095,1.3,2.266,3.781,4.592,1.3.951-1.016,2.585-1.009,2.612.11.135,5.54,4.2,2.906,6.677,3.4a1.612,1.612,0,0,0,2.138-1.781c-.012-2.975,1.052-3.067,3.281-1.381,2.724,2.06,3.384-1.255,4.8-2.325,1.094-.825,2.94-1.806.98-3.745s-1.191-2.843,1.326-3.126c3.495-.394,1.721-3.19,1.968-4.943.221-1.571.645-3.558-2.217-3.584-2.3-.021-2.846-1.167-1.247-3.016C886.672,1815.388,887.027,1814.9,887.437,1814.377Zm-14.527-12.321c-6.727,0-13.454-.021-20.181.023-.982.006-2.559-.528-2.63,1.1-.088,2.013,1.709,1.323,2.747,1.327q20.365.072,40.729.013c.984,0,2.523.48,2.454-1.277-.067-1.705-1.591-1.159-2.571-1.165C886.609,1802.038,879.76,1802.057,872.91,1802.057Zm-19.542,11.752c.76-.8,2.707.851,2.84-1.016.136-1.9-1.787-1.184-2.792-1.127-1.126.063-3.187-.943-3.174,1.1C850.253,1814.52,852.2,1813.281,853.369,1813.809Zm39.406,23.979c-.957.5-2.954-.866-2.855,1.087.084,1.665,2,.869,3.069.857,1.014-.011,2.989.87,2.855-1.047C895.724,1836.977,893.811,1838.246,892.775,1837.788Zm-38.822-28.272a7.032,7.032,0,0,0,1.359-.013c1.048-.252,2.914.767,2.975-.956.065-1.846-1.837-.8-2.857-1.062a2.284,2.284,0,0,0-1.086,0c-1.392.348-3.955-.933-3.986.953C850.323,1810.583,852.913,1808.967,853.953,1809.516Z" transform="translate(-224.705 -225.179)"/><path class="a" d="M1256.358,2246.145a7.209,7.209,0,0,1,7.38,7.393,7.325,7.325,0,1,1-14.646-.248A7.25,7.25,0,0,1,1256.358,2246.145Zm.168,12.389a5.142,5.142,0,0,0-.106-10.277,5.141,5.141,0,1,0,.106,10.277Z" transform="translate(-608.045 -655.456)"/><path class="c" d="M1301.376,2304.155a5.142,5.142,0,1,1-.106-10.277,5.142,5.142,0,0,1,.106,10.277Z" transform="translate(-652.895 -701.076)"/><rect class="a" width="2.654" height="2.654" transform="translate(617.325 1564.415)"/><rect class="a" width="2.654" height="2.654" transform="translate(621.593 1564.415)"/><rect class="a" width="2.654" height="2.654" transform="translate(626.031 1564.415)"/><rect class="d" width="2.654" height="2.654" transform="translate(626.031 1572.662)"/><rect class="d" width="2.654" height="2.654" transform="translate(630.299 1572.662)"/><rect class="d" width="2.654" height="2.654" transform="translate(634.737 1572.662)"/></g></svg>