<svg xmlns="http://www.w3.org/2000/svg" width="70" height="49" viewBox="0 0 70 49"><defs><style>.a{fill:#707070;}</style></defs><path class="a" d="M-24.5-24.5a7.007,7.007,0,0,0,7-7,7.007,7.007,0,0,0-7-7,7.007,7.007,0,0,0-7,7A7.007,7.007,0,0,0-24.5-24.5Zm49,0a7.007,7.007,0,0,0,7-7,7.007,7.007,0,0,0-7-7,7.007,7.007,0,0,0-7,7A7.007,7.007,0,0,0,24.5-24.5ZM28-21H21a6.979,6.979,0,0,0-4.933,2.034A16,16,0,0,1,24.281-7H31.5A3.5,3.5,0,0,0,35-10.5V-14A7.007,7.007,0,0,0,28-21ZM0-21A12.244,12.244,0,0,0,12.25-33.25,12.244,12.244,0,0,0,0-45.5,12.244,12.244,0,0,0-12.25-33.25,12.244,12.244,0,0,0,0-21Zm8.4,3.5H7.492A17.229,17.229,0,0,1,0-15.75,17.266,17.266,0,0,1-7.492-17.5H-8.4A12.6,12.6,0,0,0-21-4.9v3.15A5.251,5.251,0,0,0-15.75,3.5h31.5A5.251,5.251,0,0,0,21-1.75V-4.9A12.6,12.6,0,0,0,8.4-17.5Zm-24.467-1.466A6.979,6.979,0,0,0-21-21h-7a7.007,7.007,0,0,0-7,7v3.5A3.5,3.5,0,0,0-31.5-7h7.208A16.039,16.039,0,0,1-16.067-18.966Z" transform="translate(35 45.5)"/></svg>