<svg xmlns="http://www.w3.org/2000/svg" width="87.871" height="64.536" viewBox="0 0 87.871 64.536"><defs><style>.a,.b{fill:#707070;}.b{stroke:#fff;stroke-width:3px;}</style></defs><g transform="translate(0.185 -3.701)"><path class="a" d="M-24.5-24.5a7.007,7.007,0,0,0,7-7,7.007,7.007,0,0,0-7-7,7.007,7.007,0,0,0-7,7A7.007,7.007,0,0,0-24.5-24.5Zm49,0a7.007,7.007,0,0,0,7-7,7.007,7.007,0,0,0-7-7,7.007,7.007,0,0,0-7,7A7.007,7.007,0,0,0,24.5-24.5ZM28-21H21a6.979,6.979,0,0,0-4.933,2.034A16,16,0,0,1,24.281-7H31.5A3.5,3.5,0,0,0,35-10.5V-14A7.007,7.007,0,0,0,28-21ZM0-21A12.244,12.244,0,0,0,12.25-33.25,12.244,12.244,0,0,0,0-45.5,12.244,12.244,0,0,0-12.25-33.25,12.244,12.244,0,0,0,0-21Zm8.4,3.5H7.492A17.229,17.229,0,0,1,0-15.75,17.266,17.266,0,0,1-7.492-17.5H-8.4A12.6,12.6,0,0,0-21-4.9v3.15A5.251,5.251,0,0,0-15.75,3.5h31.5A5.251,5.251,0,0,0,21-1.75V-4.9A12.6,12.6,0,0,0,8.4-17.5Zm-24.467-1.466A6.979,6.979,0,0,0-21-21h-7a7.007,7.007,0,0,0-7,7v3.5A3.5,3.5,0,0,0-31.5-7h7.208A16.039,16.039,0,0,1-16.067-18.966Z" transform="translate(34.815 49.201)"/><path class="b" d="M12.031-15.312H10.391v-4.922A10.4,10.4,0,0,0,0-30.625,10.4,10.4,0,0,0-10.391-20.234v4.922h-1.641a3.282,3.282,0,0,0-3.281,3.281V1.094a3.282,3.282,0,0,0,3.281,3.281H12.031a3.282,3.282,0,0,0,3.281-3.281V-12.031A3.282,3.282,0,0,0,12.031-15.312Zm-7.109,0H-4.922v-4.922A4.928,4.928,0,0,1,0-25.156a4.928,4.928,0,0,1,4.922,4.922Z" transform="translate(70.874 62.362)"/></g></svg>