<svg xmlns="http://www.w3.org/2000/svg" width="90.531" height="49" viewBox="0 0 90.531 49"><defs><style>.a,.b{fill:#707070;}.b{stroke:#fff;stroke-width:2px;}</style></defs><g transform="translate(0.375 -3.181)"><path class="a" d="M-24.5-24.5a7.007,7.007,0,0,0,7-7,7.007,7.007,0,0,0-7-7,7.007,7.007,0,0,0-7,7A7.007,7.007,0,0,0-24.5-24.5Zm49,0a7.007,7.007,0,0,0,7-7,7.007,7.007,0,0,0-7-7,7.007,7.007,0,0,0-7,7A7.007,7.007,0,0,0,24.5-24.5ZM28-21H21a6.979,6.979,0,0,0-4.933,2.034A16,16,0,0,1,24.281-7H31.5A3.5,3.5,0,0,0,35-10.5V-14A7.007,7.007,0,0,0,28-21ZM0-21A12.244,12.244,0,0,0,12.25-33.25,12.244,12.244,0,0,0,0-45.5,12.244,12.244,0,0,0-12.25-33.25,12.244,12.244,0,0,0,0-21Zm8.4,3.5H7.492A17.229,17.229,0,0,1,0-15.75,17.266,17.266,0,0,1-7.492-17.5H-8.4A12.6,12.6,0,0,0-21-4.9v3.15A5.251,5.251,0,0,0-15.75,3.5h31.5A5.251,5.251,0,0,0,21-1.75V-4.9A12.6,12.6,0,0,0,8.4-17.5Zm-24.467-1.466A6.979,6.979,0,0,0-21-21h-7a7.007,7.007,0,0,0-7,7v3.5A3.5,3.5,0,0,0-31.5-7h7.208A16.039,16.039,0,0,1-16.067-18.966Z" transform="translate(34.625 48.681)"/><path class="b" d="M14.531-11.25A14.533,14.533,0,0,0,0-25.781,14.533,14.533,0,0,0-14.531-11.25,14.53,14.53,0,0,0,0,3.281,14.53,14.53,0,0,0,14.531-11.25ZM.39-20.977c3.3,0,6.828,2.578,6.828,5.977,0,4.513-4.874,4.582-4.874,6.25v.078a.7.7,0,0,1-.7.7H-1.641a.7.7,0,0,1-.7-.7v-.234c0-2.406,1.824-3.367,3.2-4.14,1.182-.663,1.906-1.113,1.906-1.991,0-1.161-1.481-1.931-2.678-1.931-1.593,0-2.311.77-3.358,2.1a.7.7,0,0,1-.976.124L-6.28-16.288a.7.7,0,0,1-.159-.953A7.589,7.589,0,0,1,.39-20.977ZM0-6.445a2.7,2.7,0,0,1,2.7,2.7A2.7,2.7,0,0,1,0-1.055a2.7,2.7,0,0,1-2.7-2.7A2.7,2.7,0,0,1,0-6.445Z" transform="translate(74.625 46.681)"/></g></svg>