<svg xmlns="http://www.w3.org/2000/svg" width="54.25" height="54.25" viewBox="0 0 54.25 54.25"><defs><style>.a{fill:#707070;}</style></defs><path class="a" d="M27.125-21A27.129,27.129,0,0,0,0-48.125,27.129,27.129,0,0,0-27.125-21,27.124,27.124,0,0,0,0,6.125,27.124,27.124,0,0,0,27.125-21ZM.728-39.156c6.165,0,12.745,4.812,12.745,11.156,0,8.424-9.1,8.554-9.1,11.667v.146a1.313,1.313,0,0,1-1.312,1.313H-3.062a1.313,1.313,0,0,1-1.312-1.312v-.437c0-4.491,3.4-6.286,5.978-7.728,2.206-1.237,3.558-2.078,3.558-3.716,0-2.167-2.764-3.6-5-3.6-2.974,0-4.314,1.437-6.268,3.915a1.312,1.312,0,0,1-1.823.232l-3.8-2.878a1.314,1.314,0,0,1-.3-1.778C-9.034-36.645-5.233-39.156.728-39.156ZM0-12.031A5.037,5.037,0,0,1,5.031-7,5.037,5.037,0,0,1,0-1.969,5.037,5.037,0,0,1-5.031-7,5.037,5.037,0,0,1,0-12.031Z" transform="translate(27.125 48.125)"/></svg>