<svg xmlns="http://www.w3.org/2000/svg" width="18.159" height="18.011" viewBox="0 0 18.159 18.011"><defs><style>.a,.b,.c{fill:#7d7f7d;}.a{stroke:#7d7f7d;}.a,.c{stroke-width:0.6px;}.c{stroke:#fff;}</style></defs><g transform="translate(-249.225 -857.192)"><path class="a" d="M280.43,883.55c-.189-.121-.383-.233-.58-.34a.214.214,0,0,1-.129-.221c0-.182-.021-.365-.017-.548a.267.267,0,0,1,.086-.185c.182-.14.378-.263.566-.4a.706.706,0,0,0,.262-.858c-.133-.321-.278-.638-.437-.947a.706.706,0,0,0-.881-.369c-.187.052-.371.117-.561.153a.323.323,0,0,1-.232-.058,3.611,3.611,0,0,1-.412-.387.28.28,0,0,1-.063-.2c.023-.2.065-.394.1-.59a.729.729,0,0,0-.5-.907c-.27-.1-.541-.2-.811-.3a.746.746,0,0,0-.96.33c-.108.176-.2.36-.318.53a.29.29,0,0,1-.192.11c-.188.016-.378,0-.566.011a.242.242,0,0,1-.248-.123,6.543,6.543,0,0,0-.393-.566.638.638,0,0,0-.759-.229,10.955,10.955,0,0,0-1.093.5.526.526,0,0,0-.3.492,3.379,3.379,0,0,0,.131.74c.063.214.069.38-.131.524a1.015,1.015,0,0,0-.23.267.22.22,0,0,1-.271.1c-.194-.046-.391-.085-.589-.115a.735.735,0,0,0-.851.471c-.121.3-.229.605-.34.909a.61.61,0,0,0,.064.608,1.351,1.351,0,0,0,.426.354c.342.177.63.364.517.819a.318.318,0,0,0,.014.14.208.208,0,0,1-.109.251c-.17.106-.333.224-.5.338a.705.705,0,0,0-.278.94c.123.287.259.569.388.854a.721.721,0,0,0,.84.42c.212-.048.42-.117.633-.16a.3.3,0,0,1,.222.041,5.492,5.492,0,0,1,.453.422.2.2,0,0,1,.058.148c-.032.2-.076.4-.12.6a.733.733,0,0,0,.48.907q.434.173.876.326a.706.706,0,0,0,.872-.271,2.272,2.272,0,0,0,.262-.44.383.383,0,0,1,.457-.277,1,1,0,0,0,.316-.024.243.243,0,0,1,.28.125c.1.171.217.338.334.5a.689.689,0,0,0,.846.3c.351-.136.7-.294,1.032-.464a.649.649,0,0,0,.337-.731,6.6,6.6,0,0,0-.165-.65.255.255,0,0,1,.085-.308,1.843,1.843,0,0,0,.288-.31.286.286,0,0,1,.332-.124c.207.046.417.079.626.113a.667.667,0,0,0,.733-.371c.159-.36.29-.733.429-1.1A1.247,1.247,0,0,0,280.43,883.55Z" transform="translate(-16.913 -16.672)"/><path class="b" d="M266.694,902.648c-.282-.056-.566-.106-.846-.171a8.96,8.96,0,0,1-4.163-2.223c-.039-.036-.077-.073-.117-.108-.007-.006-.02-.006-.051-.014,0,.3,0,.6,0,.9,0,.254-.127.409-.339.408-.2,0-.332-.163-.336-.4q-.013-.832-.025-1.665c0-.285.124-.433.412-.439.591-.011,1.182-.011,1.773-.011a.332.332,0,0,1,.32.278.328.328,0,0,1-.232.367.849.849,0,0,1-.225.03,6.514,6.514,0,0,0-.847.043c.238.2.469.42.716.613a7.9,7.9,0,0,0,3.936,1.681,8.235,8.235,0,0,0,7.99-3.31,7.884,7.884,0,0,0,1.565-3.762,8.1,8.1,0,0,0-.337-3.8,1.81,1.81,0,0,1-.076-.29.324.324,0,0,1,.245-.406.334.334,0,0,1,.4.241c.122.4.25.8.337,1.205a8.8,8.8,0,0,1,.155,2.585,9.054,9.054,0,0,1-7.1,8.106c-.234.051-.469.1-.7.146Z" transform="translate(-9.594 -27.445)"/><path class="b" d="M264.684,859.753c0-.333,0-.628,0-.923,0-.258.124-.407.338-.411s.337.156.341.411q.01.815.019,1.629c0,.334-.123.46-.456.463-.532,0-1.063.01-1.595.011a.638.638,0,0,1-.26-.035.3.3,0,0,1-.187-.331.285.285,0,0,1,.249-.281c.258-.024.518-.028.777-.038a.8.8,0,0,0,.277-.04c-.234-.2-.461-.413-.7-.6a8.222,8.222,0,0,0-3.617-1.647,8.408,8.408,0,0,0-2.73-.058A8.408,8.408,0,0,0,250,864.888a7.512,7.512,0,0,0,.029,2.725c.093.453.232.9.334,1.35a.576.576,0,0,1-.026.38.427.427,0,0,1-.312.143.282.282,0,0,1-.273-.238c-.128-.464-.277-.924-.374-1.395a8.017,8.017,0,0,1-.146-2.023,9.118,9.118,0,0,1,5.106-7.79,8.342,8.342,0,0,1,2.834-.828c.486-.048.98,0,1.47-.015a7.722,7.722,0,0,1,3.612.846,8.735,8.735,0,0,1,2.327,1.623C264.609,859.69,264.635,859.711,264.684,859.753Z" transform="translate(0)"/><path class="c" d="M291.486,896.883a2.158,2.158,0,1,1-2.158,2.145A2.162,2.162,0,0,1,291.486,896.883Zm0,3.624a1.467,1.467,0,0,0,1.494-1.468,1.5,1.5,0,0,0-1.459-1.478,1.473,1.473,0,1,0-.035,2.946Z" transform="translate(-33.189 -32.848)"/></g></svg>