<svg xmlns="http://www.w3.org/2000/svg" width="73" height="73.019" viewBox="0 0 73 73.019"><defs><style>.a{fill:#707070;}</style></defs><path class="a" d="M3606.378-368.243c-3.26,0-6.378.005-9.5,0-1.43,0-2.869.071-4.288-.072a6.642,6.642,0,0,1-6.277-6.427c-.178-4.518-.044-9.048-.044-13.69.324,0,.628,0,.931,0,1.716-.014,3.44.078,5.146-.063a9.224,9.224,0,0,0,8.491-9.088,9.239,9.239,0,0,0-7.769-9.422,46.862,46.862,0,0,0-5.763-.161c-.332-.007-.663,0-.933,0-.071-.123-.1-.145-.1-.166,0-4.525-.162-9.058.05-13.573.183-3.892,3.238-6.431,7.257-6.448,4.188-.018,8.375,0,12.563,0h.957c0-.363-.006-.665,0-.967a53.567,53.567,0,0,1,.184-5.76,8.462,8.462,0,0,1,8.546-7.158,8.549,8.549,0,0,1,8.481,7.257,20.4,20.4,0,0,1,.135,2.565c.021,1.321,0,2.643,0,4.064h.891c4.214,0,8.427-.011,12.641,0a6.984,6.984,0,0,1,6.947,4.776,8.865,8.865,0,0,1,.376,2.527c.036,4.188.017,8.377.017,12.566v1c1.6,0,3.1.006,4.6,0a9.859,9.859,0,0,1,4.535.93,8.678,8.678,0,0,1,4.552,9.625,8.508,8.508,0,0,1-8.072,6.8c-1.56.046-3.122.023-4.681.03-.279,0-.56,0-.937,0v.995q0,6.244,0,12.488a7,7,0,0,1-7.4,7.386q-5.893,0-11.782,0h-.936c-.017-.319-.04-.6-.043-.872-.02-1.742.044-3.49-.066-5.226a9.319,9.319,0,0,0-9.241-8.524,9.328,9.328,0,0,0-9.347,8.233c-.161,1.782-.1,3.585-.131,5.379C3606.374-368.948,3606.378-368.642,3606.378-368.243Z" transform="translate(-3586.221 441.248)"/></svg>