<svg xmlns="http://www.w3.org/2000/svg" width="89.961" height="59.39" viewBox="0 0 89.961 59.39"><defs><style>.a,.b{fill:#707070;}.b{stroke:#fff;stroke-width:4px;}</style></defs><g transform="translate(0.242 -7.263)"><path class="a" d="M-17.5-31.5v21h35v-21ZM26.25-21a5.25,5.25,0,0,1,5.25-5.25v-10.5A5.25,5.25,0,0,0,26.25-42h-52.5a5.25,5.25,0,0,0-5.25,5.25v10.5A5.25,5.25,0,0,1-26.25-21a5.25,5.25,0,0,1-5.25,5.25v10.5A5.25,5.25,0,0,0-26.25,0h52.5A5.25,5.25,0,0,0,31.5-5.25v-10.5A5.25,5.25,0,0,1,26.25-21ZM21-32.375v22.75A2.625,2.625,0,0,1,18.375-7h-36.75A2.625,2.625,0,0,1-21-9.625v-22.75A2.625,2.625,0,0,1-18.375-35h36.75A2.625,2.625,0,0,1,21-32.375Z" transform="translate(31.258 49.263)"/><path class="b" d="M18.53-10.594l-3.411-1.97a15.425,15.425,0,0,0,0-5.621l3.411-1.97a.968.968,0,0,0,.44-1.121,19.944,19.944,0,0,0-4.38-7.575.963.963,0,0,0-1.185-.184l-3.411,1.97a15.111,15.111,0,0,0-4.869-2.811v-3.932a.959.959,0,0,0-.753-.937,20.132,20.132,0,0,0-8.744,0,.959.959,0,0,0-.753.937v3.94a15.59,15.59,0,0,0-4.869,2.811l-3.4-1.97a.951.951,0,0,0-1.185.184,19.824,19.824,0,0,0-4.38,7.575.958.958,0,0,0,.44,1.121l3.411,1.97a15.426,15.426,0,0,0,0,5.622l-3.411,1.97a.968.968,0,0,0-.44,1.121,19.944,19.944,0,0,0,4.38,7.575.964.964,0,0,0,1.185.184l3.411-1.97A15.112,15.112,0,0,0-5.117-.865v3.94a.959.959,0,0,0,.753.937,20.13,20.13,0,0,0,8.745,0,.959.959,0,0,0,.753-.937V-.865A15.589,15.589,0,0,0,10-3.676l3.411,1.97A.952.952,0,0,0,14.6-1.89a19.824,19.824,0,0,0,4.38-7.575A.989.989,0,0,0,18.53-10.594ZM0-8.969a6.415,6.415,0,0,1-6.406-6.406A6.415,6.415,0,0,1,0-21.781a6.415,6.415,0,0,1,6.406,6.406A6.415,6.415,0,0,1,0-8.969Z" transform="translate(68.665 60.152)"/></g></svg>